<?xml version="1.0" standalone="no"?>
<!DOCTYPE svg PUBLIC "-//W3C//DTD SVG 20010904//EN"
 "http://www.w3.org/TR/2001/REC-SVG-20010904/DTD/svg10.dtd">
<svg version="1.0" xmlns="http://www.w3.org/2000/svg"
 width="1408.000000pt" height="1280.000000pt" viewBox="0 0 1408.000000 1280.000000"
 preserveAspectRatio="xMidYMid meet">

<g transform="translate(0.000000,1280.000000) scale(0.100000,-0.100000)"
fill="#000000" stroke="none">
<path d="M2915 12601 c-200 -105 -410 -214 -440 -229 -16 -8 -77 -41 -135 -72
-58 -32 -163 -88 -235 -125 -71 -37 -134 -70 -140 -75 -5 -4 -66 -36 -135 -72
-69 -36 -145 -77 -170 -92 -25 -14 -83 -44 -128 -66 -46 -22 -96 -48 -110 -59
-15 -10 -85 -49 -157 -86 -171 -89 -219 -116 -244 -139 -21 -19 -21 -25 -21
-480 l1 -461 290 -295 c159 -162 398 -407 531 -545 133 -137 337 -347 453
-465 116 -118 244 -250 285 -293 l74 -79 -19 -33 c-25 -42 -93 -132 -164 -216
-31 -37 -78 -97 -106 -134 -27 -37 -66 -86 -85 -109 -49 -57 -194 -244 -268
-345 l-62 -85 22 -23 c18 -19 31 -23 85 -23 36 0 72 4 82 10 19 10 113 123
145 175 11 17 47 64 81 105 77 92 147 182 222 280 50 65 122 156 388 486 28
34 70 88 95 120 25 31 61 76 81 98 19 23 57 70 84 106 27 36 77 97 110 135 34
39 74 88 90 110 16 22 54 69 85 105 30 36 68 83 84 104 16 22 48 61 70 87 23
26 73 86 111 135 39 48 115 141 170 207 104 126 156 189 284 346 42 52 113
139 159 195 45 56 108 135 139 176 30 41 73 93 94 115 l39 41 -516 514 c-284
283 -537 535 -563 560 -26 25 -139 136 -253 248 -248 244 -227 236 -403 143z"/>
<path d="M10283 11929 l-719 -721 -120 40 c-65 22 -186 61 -269 87 -82 26
-253 80 -380 120 -126 41 -333 106 -459 145 -126 39 -232 73 -236 75 -4 2 -79
27 -166 54 -88 27 -285 89 -439 139 -474 153 -452 147 -475 127 -20 -18 -20
-45 -20 -2782 l0 -2763 -684 0 -684 0 -124 -39 c-195 -62 -296 -91 -405 -121
l-103 -28 0 234 0 234 348 0 c325 0 350 1 365 18 15 17 17 66 17 504 0 457 -1
486 -18 501 -17 15 -57 17 -365 17 l-347 0 0 238 c0 236 0 239 -23 260 l-23
22 -710 0 -711 0 -20 -22 c-11 -13 -45 -70 -75 -128 -30 -58 -60 -114 -66
-125 -6 -11 -171 -344 -368 -740 -196 -396 -371 -749 -389 -785 -18 -36 -58
-114 -89 -174 l-56 -110 22 -23 21 -23 1610 0 1609 0 67 -72 c37 -40 112 -123
167 -184 54 -60 189 -209 299 -330 110 -120 250 -275 310 -344 61 -68 142
-159 180 -201 39 -42 95 -105 126 -140 l56 -64 -2498 0 -2499 0 -27 -28 -28
-28 50 -45 c52 -47 162 -116 205 -129 22 -7 734 -353 805 -391 17 -9 255 -130
530 -269 830 -418 1374 -698 1595 -820 52 -29 133 -72 180 -97 47 -25 94 -50
105 -56 11 -6 88 -48 170 -93 83 -44 175 -96 205 -114 30 -18 91 -51 135 -75
44 -23 85 -46 90 -50 10 -8 22 -14 215 -120 63 -34 155 -85 204 -113 90 -51
127 -71 256 -140 38 -20 94 -53 123 -71 50 -32 75 -47 232 -133 33 -18 71 -33
84 -33 14 0 111 49 215 109 105 59 221 125 258 144 37 20 85 47 105 60 21 13
83 48 138 77 55 29 116 64 135 76 19 13 40 24 46 24 6 0 49 24 95 52 46 29
111 66 144 82 33 16 93 49 133 73 67 41 128 74 231 126 20 11 72 40 116 66 44
26 130 74 190 106 61 32 142 76 180 98 39 23 115 64 170 92 55 29 177 94 270
145 94 51 206 112 250 135 103 54 214 114 345 185 58 32 150 81 205 109 55 28
134 69 175 91 41 23 152 81 245 130 94 48 220 114 280 145 61 32 191 99 290
150 99 50 189 97 200 103 11 6 81 41 155 78 273 135 326 163 342 181 12 13 18
49 23 143 7 131 28 412 75 970 5 69 17 220 25 335 23 310 44 592 50 660 3 33
11 150 19 260 9 110 27 335 41 500 46 522 44 483 17 524 -13 20 -41 56 -61 80
-20 24 -79 96 -131 161 -52 64 -142 174 -200 244 -58 71 -119 147 -135 171
-17 23 -48 63 -70 87 -55 62 -139 167 -144 180 -2 5 70 85 160 176 264 269
488 500 563 581 38 42 231 243 428 448 l358 372 0 544 0 544 -22 21 c-13 11
-84 52 -158 90 -258 132 -428 223 -687 366 -54 29 -190 101 -303 160 -113 58
-221 116 -240 127 -19 11 -80 42 -135 69 -55 26 -152 78 -215 114 -107 61
-119 66 -176 66 l-61 0 -720 -721z m-5353 -4549 l0 -300 -425 0 -425 0 0 300
0 300 425 0 425 0 0 -300z m5110 0 l0 -300 -410 0 -410 0 0 300 0 300 410 0
410 0 0 -300z"/>
</g>
</svg>
