<?xml version="1.0" standalone="no"?>
<!DOCTYPE svg PUBLIC "-//W3C//DTD SVG 20010904//EN"
 "http://www.w3.org/TR/2001/REC-SVG-20010904/DTD/svg10.dtd">
<svg version="1.0" xmlns="http://www.w3.org/2000/svg"
 width="1408.000000pt" height="1280.000000pt" viewBox="0 0 1408.000000 1280.000000"
 preserveAspectRatio="xMidYMid meet">

<g transform="translate(0.000000,1280.000000) scale(0.100000,-0.100000)"
fill="#000000" stroke="none">
<path d="M2915 12567 c-201 -106 -383 -201 -495 -259 -63 -33 -128 -68 -145
-78 -16 -10 -86 -47 -155 -83 -181 -93 -292 -152 -405 -216 -55 -31 -140 -75
-190 -99 -49 -24 -99 -52 -110 -62 -11 -11 -42 -28 -68 -40 -26 -12 -93 -46
-150 -77 -56 -30 -114 -62 -129 -70 l-28 -14 0 -464 0 -464 272 -278 c150
-153 336 -343 413 -423 77 -79 187 -192 245 -251 58 -58 165 -169 239 -245 74
-76 208 -214 298 -306 l164 -168 -15 -27 c-8 -16 -45 -67 -83 -115 -37 -47
-115 -146 -173 -220 -57 -73 -150 -189 -205 -258 -56 -69 -110 -138 -120 -155
-11 -16 -39 -54 -62 -83 -24 -30 -43 -58 -43 -63 0 -5 33 -9 73 -9 l72 0 40
50 c22 28 43 50 47 50 5 0 8 6 8 13 0 6 35 55 78 108 42 53 122 153 177 224
55 70 118 150 140 178 22 27 66 83 97 124 32 40 63 80 71 87 7 7 35 41 62 76
28 34 82 101 120 148 39 48 89 112 113 142 41 54 112 141 317 392 55 67 118
145 139 172 22 28 74 92 115 142 95 114 128 155 182 224 23 30 46 57 49 60 4
3 47 55 95 115 49 61 116 142 150 181 33 39 83 99 110 133 28 35 87 108 132
164 46 56 107 134 137 172 29 39 67 83 85 99 17 17 31 33 31 38 0 11 -795 806
-1183 1183 l-308 300 -52 2 c-45 2 -65 -4 -152 -50z"/>
<path d="M11000 12610 c-9 -5 -63 -57 -120 -116 -490 -501 -1308 -1314 -1322
-1314 -9 0 -70 18 -135 39 -212 70 -367 119 -443 141 -41 11 -91 27 -110 35
-19 7 -100 34 -180 58 -370 116 -452 142 -545 172 -55 18 -167 54 -250 80 -82
26 -195 62 -250 80 -203 66 -382 123 -455 144 -41 12 -90 29 -109 37 -18 8
-36 13 -38 10 -3 -3 -6 -1255 -7 -2782 l-1 -2778 -687 3 c-441 2 -699 -1 -720
-7 -18 -6 -80 -25 -138 -42 -58 -17 -145 -44 -195 -60 -49 -16 -117 -37 -150
-46 -89 -23 -169 -43 -177 -44 -5 0 -8 122 -8 270 l0 270 365 0 365 0 0 490 0
490 -365 0 -365 0 0 255 0 255 -717 -2 -718 -3 -507 -1015 c-279 -558 -507
-1018 -508 -1022 0 -5 726 -8 1613 -8 l1613 0 104 -117 c58 -64 161 -179 230
-254 118 -129 201 -220 301 -334 73 -82 130 -145 204 -226 39 -42 93 -102 120
-134 28 -32 110 -122 183 -201 l134 -144 -2459 0 c-1352 0 -2495 -3 -2540 -7
-52 -4 -83 -10 -83 -17 0 -16 152 -116 202 -133 33 -11 494 -235 763 -370 749
-376 1686 -852 1700 -863 6 -4 89 -48 185 -97 96 -50 258 -135 360 -190 102
-55 224 -121 271 -146 47 -25 139 -75 205 -113 65 -37 162 -90 214 -118 52
-28 109 -60 125 -72 17 -12 82 -48 145 -81 63 -34 144 -78 180 -98 36 -21 108
-60 160 -88 52 -27 102 -56 110 -62 8 -7 38 -24 67 -39 29 -14 92 -50 140 -79
152 -92 282 -158 311 -159 26 -1 184 83 517 275 93 53 322 180 415 229 41 22
82 46 90 53 8 7 53 32 100 55 46 23 113 60 148 81 35 22 66 39 67 39 2 0 30
15 62 34 32 18 87 49 123 68 36 19 113 63 172 96 60 34 110 62 113 62 3 0 59
30 123 67 64 36 162 90 217 118 55 29 179 95 275 147 96 52 209 113 250 135
72 38 146 78 275 148 63 34 186 99 390 205 66 35 125 66 130 70 6 4 87 47 180
95 94 49 213 111 265 138 195 102 433 223 708 361 l282 141 0 81 c0 45 9 196
20 335 11 140 27 340 35 444 8 105 24 305 35 445 11 140 27 345 35 455 8 110
17 225 20 255 3 30 12 161 20 290 9 129 22 305 30 390 13 142 34 380 50 570
l7 75 -54 70 c-29 39 -111 142 -183 229 -71 87 -150 184 -175 216 -68 88 -140
176 -186 228 -22 26 -59 72 -82 102 -23 30 -53 69 -67 87 l-26 31 48 49 c26
27 143 148 258 269 690 718 964 1003 1077 1119 l128 130 0 550 0 550 -32 14
c-58 25 -164 78 -244 124 -44 24 -106 58 -139 74 -33 16 -136 71 -230 122 -93
51 -208 114 -255 139 -47 24 -151 80 -232 123 -81 44 -150 79 -153 79 -4 0
-53 26 -108 58 -56 31 -124 66 -152 78 -27 11 -106 53 -175 92 -110 63 -131
72 -175 72 -27 0 -57 -5 -65 -10z m-6073 -4896 l30 -6 5 -192 c3 -106 3 -254
0 -328 l-5 -135 -411 -6 c-226 -3 -430 -3 -453 0 l-43 6 0 333 0 334 424 0
c233 0 437 -3 453 -6z m4911 -4 l242 0 0 -329 0 -330 -42 -6 c-24 -3 -225 -5
-448 -3 l-405 3 -3 325 c-1 179 0 331 3 339 5 12 38 13 208 8 111 -4 311 -7
445 -7z"/>
<path d="M5152 8288 c3 -7 38 -18 79 -25 100 -18 269 -60 310 -77 19 -8 56
-30 84 -50 35 -26 51 -32 57 -23 4 6 8 51 8 100 l0 87 -271 0 c-207 0 -270 -3
-267 -12z"/>
</g>
</svg>
