<?xml version="1.0" standalone="no"?>
<!DOCTYPE svg PUBLIC "-//W3C//DTD SVG 20010904//EN"
 "http://www.w3.org/TR/2001/REC-SVG-20010904/DTD/svg10.dtd">
<svg version="1.0" xmlns="http://www.w3.org/2000/svg"
 width="1408.000000pt" height="1280.000000pt" viewBox="0 0 1408.000000 1280.000000"
 preserveAspectRatio="xMidYMid meet">

<g transform="translate(0.000000,1280.000000) scale(0.100000,-0.100000)"
fill="#000000" stroke="none">
<path d="M2915 12581 c-200 -105 -410 -214 -440 -229 -16 -8 -77 -41 -135 -72
-58 -32 -163 -88 -235 -125 -71 -37 -134 -70 -140 -75 -5 -4 -66 -36 -135 -72
-69 -36 -145 -77 -170 -92 -25 -14 -83 -44 -128 -66 -46 -22 -96 -48 -110 -59
-15 -10 -85 -49 -157 -86 -71 -37 -155 -82 -185 -99 l-55 -32 -2 -464 -3 -465
413 -421 c387 -395 870 -890 1110 -1139 59 -60 107 -114 107 -120 0 -18 -81
-130 -179 -246 -31 -37 -78 -97 -106 -134 -27 -37 -66 -86 -85 -109 -49 -57
-194 -244 -268 -345 -74 -101 -72 -111 28 -111 50 0 73 4 87 18 27 23 97 112
112 140 6 12 44 62 84 110 40 48 94 117 122 152 27 36 55 70 61 75 6 6 31 37
55 70 38 52 95 125 374 471 28 34 70 88 95 120 25 31 61 76 81 98 19 23 57 70
84 106 27 36 77 97 110 135 34 39 74 88 90 110 16 22 54 69 85 105 30 36 68
83 84 104 16 22 48 61 70 87 23 26 73 86 111 135 39 48 115 141 170 207 104
126 156 189 284 346 42 52 113 139 159 195 45 56 113 142 151 191 37 50 80
101 95 114 l26 25 -222 224 c-277 278 -724 721 -967 958 -101 98 -217 212
-257 252 -69 67 -77 72 -116 72 -33 -1 -70 -15 -153 -59z"/>
<path d="M10330 11955 c-371 -371 -676 -678 -679 -682 -4 -5 -25 -25 -48 -46
l-41 -39 -118 40 c-66 22 -186 61 -269 87 -82 26 -253 80 -380 120 -126 41
-331 106 -455 144 -124 39 -261 82 -305 97 -779 252 -950 306 -985 308 l-25 1
-3 -2777 -2 -2778 -694 0 -694 0 -124 -39 c-250 -78 -500 -151 -522 -151 -3 0
-6 115 -6 255 l0 255 363 2 362 3 0 495 0 495 -362 3 -363 2 0 249 c0 197 -3
251 -14 260 -9 8 -208 10 -727 9 l-714 -3 -50 -95 c-28 -52 -60 -113 -72 -135
-12 -22 -182 -364 -378 -760 -196 -396 -372 -749 -390 -785 -18 -36 -58 -114
-89 -174 -42 -83 -53 -113 -45 -123 9 -11 299 -13 1624 -13 l1614 0 28 -33
c29 -35 251 -281 363 -402 63 -68 196 -214 310 -340 145 -160 360 -402 407
-458 29 -34 72 -79 95 -99 24 -21 41 -38 38 -39 -3 0 -1138 -1 -2522 -2 -2403
-2 -2518 -3 -2535 -20 -17 -17 -16 -19 22 -53 45 -39 157 -108 195 -119 22 -7
734 -353 805 -391 17 -9 255 -130 530 -269 830 -418 1374 -698 1595 -820 52
-29 133 -72 180 -97 47 -25 94 -50 105 -56 11 -6 88 -48 170 -93 83 -44 175
-96 205 -114 30 -18 91 -51 135 -75 44 -23 85 -46 90 -50 10 -8 22 -14 215
-120 63 -34 155 -85 204 -113 90 -51 127 -71 256 -140 38 -20 94 -53 123 -71
50 -32 75 -47 232 -133 33 -18 71 -33 84 -33 14 0 111 49 215 109 105 59 221
125 258 144 37 20 85 47 105 60 21 13 83 48 138 77 55 29 116 64 135 76 19 13
40 24 46 24 6 0 49 24 95 53 46 28 111 65 144 81 33 16 93 49 133 73 67 41
128 74 231 126 20 11 72 40 116 66 44 26 130 74 190 106 61 32 142 76 180 98
39 23 115 64 170 92 55 29 177 94 270 145 94 51 206 112 250 135 103 54 214
114 345 185 58 32 150 81 205 109 55 28 134 69 175 91 41 23 152 81 245 130
94 48 220 114 280 145 61 32 191 99 290 150 99 50 189 97 200 103 11 6 79 40
150 75 72 36 177 89 235 118 l105 54 8 115 c11 177 40 544 76 985 6 72 18 225
26 340 24 315 44 593 50 660 3 33 11 150 19 260 9 110 27 335 41 500 46 522
44 483 17 524 -13 20 -41 56 -61 80 -20 24 -79 96 -131 161 -52 64 -142 174
-200 244 -58 71 -122 153 -143 182 -21 30 -41 54 -46 54 -4 0 -23 21 -41 48
-19 26 -53 69 -77 97 -24 27 -43 54 -43 59 0 6 73 85 163 176 216 220 485 497
565 584 71 78 222 235 402 421 64 66 176 181 248 256 l132 136 0 545 c0 425
-3 548 -13 556 -6 6 -73 42 -147 80 -262 135 -429 224 -687 366 -54 29 -190
101 -303 160 -113 58 -221 116 -240 127 -19 11 -80 42 -135 69 -55 26 -152 78
-215 114 -107 61 -119 66 -176 66 l-61 0 -673 -675z m-5380 -4575 l0 -320
-445 0 -445 0 0 320 0 320 445 0 445 0 0 -320z m5110 0 l0 -320 -430 0 -430 0
0 320 0 320 430 0 430 0 0 -320z"/>
</g>
</svg>
