<?xml version="1.0" standalone="no"?>
<!DOCTYPE svg PUBLIC "-//W3C//DTD SVG 20010904//EN"
 "http://www.w3.org/TR/2001/REC-SVG-20010904/DTD/svg10.dtd">
<svg version="1.0" xmlns="http://www.w3.org/2000/svg"
 width="1408.000000pt" height="1280.000000pt" viewBox="0 0 1408.000000 1280.000000"
 preserveAspectRatio="xMidYMid meet">

<g transform="translate(0.000000,1280.000000) scale(0.100000,-0.100000)"
fill="#000000" stroke="none">
<path d="M2915 12591 c-200 -105 -410 -214 -440 -229 -16 -8 -77 -41 -135 -72
-58 -32 -163 -88 -235 -125 -71 -37 -134 -70 -140 -75 -5 -4 -66 -36 -135 -72
-69 -36 -145 -77 -170 -92 -25 -14 -83 -44 -128 -66 -46 -22 -96 -48 -110 -59
-15 -10 -85 -49 -157 -86 -71 -37 -151 -79 -176 -94 -87 -49 -79 2 -79 -515
l0 -461 413 -421 c372 -379 799 -818 1104 -1133 62 -64 113 -120 113 -126 0
-18 -81 -130 -179 -246 -31 -37 -78 -97 -106 -134 -27 -37 -66 -86 -85 -109
-49 -57 -194 -244 -268 -345 -58 -80 -61 -86 -45 -103 12 -14 31 -18 79 -18
34 0 69 3 78 6 16 6 107 116 140 169 11 17 47 64 81 105 77 92 147 182 222
280 50 65 122 156 388 486 28 34 70 88 95 120 25 31 61 76 81 98 19 23 57 70
84 106 27 36 77 97 110 135 34 39 74 88 90 110 16 22 54 69 85 105 30 36 68
83 84 104 16 22 48 61 70 87 23 26 73 86 111 135 39 48 115 141 170 207 104
126 156 189 284 346 42 52 113 139 159 195 45 56 108 135 139 176 30 41 73 93
94 115 l39 41 -508 506 c-279 278 -599 595 -712 704 -112 110 -227 223 -256
252 -72 72 -100 72 -249 -7z"/>
<path d="M10283 11919 l-719 -721 -120 40 c-65 22 -186 61 -269 87 -82 26
-253 80 -380 120 -126 41 -333 106 -459 145 -126 39 -232 73 -236 75 -4 2 -79
27 -166 54 -88 27 -285 89 -439 139 -447 144 -453 146 -470 132 -13 -11 -15
-336 -15 -2781 l0 -2769 -689 0 -689 0 -124 -39 c-194 -61 -296 -92 -393 -118
-49 -13 -98 -26 -107 -29 -17 -5 -18 11 -18 240 l0 246 353 0 c261 0 356 3
365 12 17 17 17 979 0 996 -9 9 -104 12 -365 12 l-353 0 0 243 c0 224 -2 245
-18 260 -17 16 -82 17 -729 17 -664 0 -711 -1 -725 -17 -8 -10 -40 -65 -70
-123 -30 -58 -60 -114 -66 -125 -6 -11 -171 -344 -368 -740 -196 -396 -371
-749 -389 -785 -18 -36 -58 -114 -89 -174 -52 -103 -55 -111 -39 -128 15 -17
85 -18 1629 -18 l1612 0 29 -34 c28 -33 107 -121 513 -567 267 -293 492 -544
557 -622 29 -34 70 -78 91 -97 l39 -35 -2513 0 -2513 0 -23 -23 -23 -23 45
-40 c49 -43 160 -112 200 -124 22 -7 734 -353 805 -391 17 -9 255 -130 530
-269 830 -418 1374 -698 1595 -820 52 -29 133 -72 180 -97 47 -25 94 -50 105
-56 11 -6 88 -48 170 -93 83 -44 175 -96 205 -114 30 -18 91 -51 135 -75 44
-23 85 -46 90 -50 10 -8 22 -14 215 -120 63 -34 155 -85 204 -113 90 -51 127
-71 256 -140 38 -20 94 -53 123 -71 50 -32 75 -47 232 -133 33 -18 71 -33 84
-33 14 0 111 49 215 109 105 59 221 125 258 144 37 20 85 47 105 60 21 13 83
48 138 77 55 29 116 64 135 76 19 13 40 24 46 24 6 0 49 24 95 53 46 28 111
65 144 81 33 16 93 49 133 73 67 41 128 74 231 126 20 11 72 40 116 66 44 26
130 74 190 106 61 32 142 76 180 98 39 23 115 64 170 92 55 29 177 94 270 145
94 51 206 112 250 135 103 54 214 114 345 185 58 32 150 81 205 109 55 28 134
69 175 91 41 23 152 81 245 130 94 48 220 114 280 145 61 32 191 99 290 150
99 50 189 97 200 103 11 6 81 41 155 78 264 131 327 163 337 176 6 7 14 69 18
138 7 131 28 414 75 970 5 69 17 220 25 335 23 310 44 592 50 660 3 33 11 150
19 260 9 110 27 335 41 500 46 522 44 483 17 524 -13 20 -41 56 -61 80 -20 24
-79 96 -131 161 -52 64 -142 174 -200 244 -58 71 -120 149 -137 175 -18 25
-41 53 -51 61 -10 8 -37 40 -59 70 -23 30 -56 71 -72 90 -17 19 -31 39 -31 44
0 4 130 141 288 305 159 163 333 343 388 401 327 345 397 418 707 736 l127
131 0 545 c0 506 -1 546 -17 561 -10 8 -79 47 -153 85 -260 133 -428 223 -687
366 -54 29 -190 101 -303 160 -113 58 -221 116 -240 127 -19 11 -80 42 -135
69 -55 26 -152 78 -215 114 -107 61 -119 66 -176 66 l-61 0 -720 -721z m-5343
-4539 l0 -310 -435 0 -435 0 0 310 0 310 435 0 435 0 0 -310z m5110 0 l0 -310
-420 0 -420 0 0 310 0 310 420 0 420 0 0 -310z"/>
</g>
</svg>
