<?xml version='1.0' encoding='utf-8'?>
<!DOCTYPE svg PUBLIC '-//W3C//DTD SVG 1.1//EN' 'http://www.w3.org/Graphics/SVG/1.1/DTD/svg11.dtd'>
<svg version="1.1" xmlns="http://www.w3.org/2000/svg" viewBox="0 0 512 512" xmlns:xlink="http://www.w3.org/1999/xlink" enable-background="new 0 0 512 512">
  <g>
    <g>
      <path d="m105.1,376.9c-20.4,0-37.1,16.6-37.1,37.1 0,20.4 16.6,37.1 37.1,37.1 20.4,0 37.1-16.6 37.1-37.1 0-20.5-16.7-37.1-37.1-37.1z"/>
      <path d="m414.9,376.9c-20.4,0-37.1,16.6-37.1,37.1 0,20.4 16.6,37.1 37.1,37.1 20.4,0 37.1-16.6 37.1-37.1 0-20.5-16.7-37.1-37.1-37.1z"/>
      <path d="M246.1,61v332.7h93.4c8.9-33.2,39.3-57.8,75.4-57.8c36,0,66.4,24.5,75.4,57.8H501V61H246.1z"/>
      <path d="M11,311.5v82.2h18.7c8.9-33.2,39.3-57.8,75.4-57.8s66.4,24.5,75.4,57.8h16.7V188.5h-77.3L11,311.5z"/>
    </g>
  </g>
</svg>
