<?xml version="1.0" standalone="no"?>
<!DOCTYPE svg PUBLIC "-//W3C//DTD SVG 20010904//EN"
 "http://www.w3.org/TR/2001/REC-SVG-20010904/DTD/svg10.dtd">
<svg version="1.0" xmlns="http://www.w3.org/2000/svg"
 width="3008.000000pt" height="1024.000000pt" viewBox="0 0 3008.000000 1024.000000"
 preserveAspectRatio="xMidYMid meet">

<g transform="translate(0.000000,1024.000000) scale(0.100000,-0.100000)"
fill="#000000" stroke="none">
<path d="M2 10203 c3 -37 4 -38 63 -55 33 -9 80 -17 105 -17 44 -1 46 0 73 48
15 27 27 52 27 55 0 3 -61 6 -136 6 l-135 0 3 -37z"/>
<path d="M860 10228 c0 -7 9 -24 20 -38 26 -33 25 -47 -2 -53 -64 -14 -285
-100 -298 -116 -21 -25 -50 -34 -67 -20 -11 9 -19 7 -38 -11 -25 -24 -36 -51
-12 -32 7 6 81 14 165 17 134 6 151 5 146 -8 -5 -13 22 -16 208 -19 210 -4
213 -4 237 19 l25 22 -32 43 c-17 24 -46 68 -64 98 -67 116 -57 110 -180 110
-80 0 -108 -3 -108 -12z"/>
<path d="M4255 10209 c-49 -16 -117 -36 -150 -43 -33 -8 -98 -26 -145 -40 -47
-13 -114 -30 -150 -36 -36 -5 -117 -21 -180 -35 -180 -39 -358 -72 -445 -84
-99 -13 -320 -48 -343 -55 -9 -3 -97 -10 -194 -17 -175 -11 -313 -3 -342 20
-6 5 -28 14 -48 20 -56 18 -154 68 -227 115 -36 23 -86 55 -111 70 -25 15 -70
43 -100 62 -30 19 -60 34 -67 34 -21 0 -15 -49 17 -150 17 -51 45 -148 61
-214 l31 -121 -22 -98 c-15 -67 -21 -116 -17 -150 7 -70 9 -77 30 -99 19 -20
23 -58 6 -58 -7 0 -8 -16 -4 -47 9 -61 31 -158 39 -171 5 -9 6 -56 4 -180 0
-13 7 -31 15 -40 12 -14 14 -41 12 -137 -4 -151 -18 -290 -34 -332 -18 -45
-53 -47 -105 -8 -17 13 -60 39 -96 58 -36 19 -90 49 -120 67 -30 18 -89 51
-130 73 -41 22 -101 56 -134 75 -99 59 -139 81 -196 108 -30 14 -101 48 -157
75 -105 51 -169 71 -162 51 2 -6 29 -37 59 -69 30 -32 80 -87 111 -123 31 -36
71 -81 89 -100 18 -19 103 -114 189 -210 85 -96 172 -193 192 -215 60 -65 94
-103 197 -227 105 -126 101 -125 195 -112 l46 7 -40 55 c-22 31 -65 85 -97
121 -107 121 -128 146 -261 305 -151 179 -158 177 82 29 66 -40 121 -73 123
-73 3 0 33 -19 67 -42 34 -23 73 -49 87 -58 14 -9 73 -40 133 -68 61 -30 108
-58 109 -67 0 -8 1 -21 2 -27 2 -26 26 -28 83 -9 75 25 286 130 371 184 37 24
98 60 135 81 37 20 102 62 145 93 42 30 87 59 98 63 12 5 51 36 88 70 36 34
70 59 76 55 11 -7 60 30 145 108 29 26 55 47 59 47 4 0 37 24 74 53 37 28 96
72 132 97 68 46 181 132 215 163 11 10 44 34 74 54 29 19 75 54 101 77 27 22
93 75 147 116 129 99 263 212 263 222 0 5 16 18 35 30 38 22 94 98 140 187 27
54 27 54 23 240 -3 156 -6 192 -22 224 -17 35 -21 37 -65 37 -25 -1 -86 -14
-136 -31z"/>
<path d="M7794 10198 c4 -24 11 -108 16 -187 20 -279 62 -388 206 -539 49 -51
93 -92 98 -92 5 0 6 29 2 65 -7 67 2 84 22 40 6 -14 15 -26 19 -26 58 -10 103
2 103 26 0 11 66 45 89 45 6 0 29 9 49 19 36 18 70 20 543 24 539 5 643 13
674 53 75 96 137 189 153 230 28 74 86 158 104 152 15 -5 52 -107 113 -313
118 -399 204 -616 320 -811 30 -50 55 -96 55 -101 0 -18 110 -111 161 -137 60
-30 112 -33 192 -12 61 16 84 28 140 70 70 53 108 76 124 76 12 0 14 7 9 34
-6 32 -5 34 47 60 30 14 62 26 72 26 21 0 85 -38 85 -50 0 -5 32 -40 70 -79
39 -38 70 -72 70 -76 0 -3 9 -16 21 -28 11 -12 53 -65 92 -117 88 -117 237
-267 272 -276 57 -14 166 70 210 162 9 20 38 63 63 96 40 54 45 66 49 125 6
81 32 188 72 287 16 41 35 94 41 118 11 42 59 172 85 233 8 17 20 59 29 95 21
90 38 128 83 180 21 25 43 54 49 65 10 19 102 99 155 136 l23 16 -34 46 c-19
26 -40 47 -46 47 -6 0 -14 13 -17 29 -8 38 -70 70 -100 51 -17 -10 -17 -8 4
18 13 17 29 31 36 31 7 1 17 9 22 20 9 15 4 22 -26 42 -38 25 -73 66 -76 90
-2 8 -11 29 -22 47 l-19 32 -2254 0 -2253 0 5 -42z"/>
<path d="M13740 10221 c0 -20 73 -81 97 -81 7 0 13 9 13 19 0 26 59 46 175 61
49 6 92 13 94 16 2 2 -82 4 -187 4 -182 0 -192 -1 -192 -19z"/>
<path d="M16450 10226 c0 -14 33 -97 95 -236 51 -117 50 -113 96 -225 64 -157
63 -152 49 -186 -7 -16 -22 -35 -34 -41 -36 -20 -136 -12 -261 21 -123 32
-213 39 -260 21 -26 -10 -27 -12 -22 -73 6 -72 37 -202 66 -274 11 -28 22 -75
26 -104 9 -91 15 -108 43 -121 14 -7 28 -19 30 -27 3 -10 -3 -11 -29 -5 -61
14 -151 5 -204 -21 -57 -27 -173 -143 -270 -271 -117 -153 -208 -315 -188
-335 6 -6 75 -14 169 -19 l159 -7 20 26 c42 55 116 121 162 145 74 37 130 49
224 48 l86 -1 11 87 c10 88 13 101 27 137 41 104 83 186 135 266 57 85 130
226 130 248 0 5 25 62 55 128 30 65 55 124 55 131 0 7 14 48 31 92 20 53 41
88 62 106 29 24 37 26 95 21 79 -6 107 -25 144 -98 43 -83 129 -195 164 -212
17 -9 60 -21 95 -28 37 -7 74 -21 87 -32 19 -18 27 -20 52 -10 39 15 39 3 -2
-82 -34 -72 -52 -85 -119 -85 -54 0 -93 22 -162 91 -87 85 -101 89 -184 45
-216 -114 -261 -192 -265 -454 -1 -137 -1 -143 22 -167 13 -14 24 -34 25 -45
1 -12 6 -25 11 -29 15 -14 120 12 265 67 74 28 179 65 234 83 55 17 110 39
122 47 18 11 44 13 130 7 122 -8 247 6 331 37 74 28 173 97 262 183 41 40 80
74 86 76 6 2 30 27 54 54 73 86 140 138 169 132 32 -7 219 -108 281 -151 25
-18 89 -58 142 -89 53 -31 100 -62 104 -68 8 -13 167 -89 187 -89 6 0 18 -4
26 -9 32 -21 -103 -177 -332 -383 -60 -55 -76 -75 -82 -105 -3 -21 -13 -47
-20 -59 -7 -11 -19 -40 -25 -64 -10 -39 -9 -44 11 -66 28 -29 109 -69 164 -79
55 -10 152 -7 175 5 11 6 20 19 20 29 0 27 43 61 117 93 37 15 71 28 76 28 5
0 23 6 40 14 18 7 48 19 67 26 19 7 49 18 65 25 17 7 50 16 75 19 64 9 200 46
231 62 14 7 64 18 112 24 48 6 99 15 113 20 46 18 99 12 123 -14 l22 -23 -63
-13 c-35 -6 -71 -16 -81 -22 -19 -10 -143 -45 -192 -55 -16 -3 -34 -9 -40 -13
-5 -4 -50 -22 -99 -40 -98 -36 -190 -86 -245 -134 -20 -17 -48 -37 -62 -45
-24 -12 -25 -16 -23 -83 3 -74 20 -108 55 -108 15 0 17 -6 12 -34 -4 -28 -2
-35 16 -41 11 -3 21 -10 21 -15 0 -9 84 -40 108 -40 25 0 160 69 195 99 17 16
55 40 83 53 28 14 86 52 130 85 122 92 173 103 229 51 l34 -33 -35 -80 c-20
-44 -43 -93 -52 -110 -56 -105 -82 -160 -82 -178 0 -11 -15 -49 -32 -84 -28
-54 -31 -66 -20 -83 10 -16 10 -26 -1 -48 -16 -31 -11 -102 7 -102 7 0 25 14
41 30 50 53 65 40 54 -49 -4 -31 -7 -78 -8 -106 l0 -50 20 51 19 51 57 7 c104
12 316 89 385 139 91 65 286 158 334 158 48 0 161 -15 177 -23 22 -11 15 -61
-16 -123 -18 -36 -96 -139 -144 -190 -10 -11 -32 -38 -48 -60 -17 -21 -50 -60
-75 -85 -101 -102 -250 -287 -183 -227 11 9 23 17 28 17 9 0 129 84 205 143
27 21 80 54 117 73 130 68 232 148 253 200 4 11 13 70 20 130 12 124 17 150
54 289 14 55 33 156 41 225 15 131 25 270 19 270 -2 0 -11 -26 -20 -57 -17
-60 -52 -107 -69 -95 -6 4 -20 21 -30 38 -40 62 -117 120 -260 194 -55 29
-104 55 -110 60 -16 11 -195 78 -242 90 -24 6 -43 15 -43 20 0 4 -3 15 -6 24
-4 11 0 16 12 16 11 1 30 7 44 16 21 12 21 14 4 9 -12 -3 -26 0 -33 8 -9 12
-1 15 49 16 50 1 72 -5 142 -39 46 -22 103 -56 127 -75 37 -30 49 -35 75 -29
17 3 38 12 46 19 8 7 35 23 60 35 53 27 141 95 225 173 65 61 75 67 76 40 0
-15 2 -15 9 2 4 12 16 27 25 35 20 16 20 16 1 -60 -4 -14 -12 -65 -18 -115 -6
-49 -14 -95 -19 -100 -4 -6 -13 -46 -18 -90 -6 -44 -13 -91 -16 -105 -5 -22
-4 -22 4 -5 6 13 9 -42 8 -162 -1 -99 1 -179 6 -176 4 2 7 -2 7 -11 0 -8 -5
-16 -11 -18 -16 -5 -33 -109 -31 -194 1 -78 28 -161 67 -209 23 -28 26 -29 42
-13 15 16 15 19 1 35 -21 23 -27 65 -10 70 8 3 12 -6 12 -25 0 -19 6 -32 17
-36 20 -8 29 4 49 74 17 57 28 85 43 110 5 8 17 34 27 58 9 23 28 54 41 68 13
14 23 34 23 44 0 11 19 36 42 57 23 21 54 51 69 67 16 17 34 26 42 23 8 -3 23
0 32 7 14 10 15 17 6 34 -10 18 -5 25 37 61 26 23 90 62 142 87 79 39 117 51
230 70 74 13 154 24 177 24 34 0 41 3 37 15 -14 36 83 1 134 -48 43 -41 69
-94 88 -181 27 -116 84 -236 146 -304 39 -43 40 -48 21 -99 -7 -18 -1 -17 70
14 51 21 82 27 172 31 80 3 115 8 128 20 16 14 17 13 17 -17 0 -18 -4 -30 -9
-26 -5 3 -16 -3 -23 -12 -7 -10 -33 -28 -58 -40 l-45 -23 32 0 c17 0 43 4 57
9 17 7 26 6 30 -2 5 -9 7 -9 12 0 3 7 12 9 20 6 8 -3 14 0 14 6 0 6 15 11 33
12 17 0 41 4 51 8 18 7 16 9 -11 18 -23 8 -33 19 -38 42 -4 21 -13 31 -25 31
-10 0 -22 5 -25 10 -3 6 1 10 9 10 9 0 16 5 16 10 0 6 6 10 14 10 7 0 16 8 19
18 8 23 40 76 50 80 4 2 12 13 18 24 9 17 8 19 -9 14 -23 -8 -31 2 -33 36 -2
25 10 108 17 120 2 3 6 49 9 102 4 90 3 96 -21 125 -14 16 -34 33 -45 36 -11
4 -18 14 -17 22 3 14 -30 41 -72 59 -8 4 -36 24 -62 46 -26 21 -78 56 -115 78
-64 38 -295 154 -338 170 -11 5 -36 15 -57 24 -20 9 -41 16 -48 16 -22 0 -210
61 -215 71 -4 5 -13 9 -21 9 -14 0 -178 66 -244 98 -44 21 -300 279 -300 302
0 26 -38 60 -68 60 -22 -1 -37 -14 -77 -68 l-51 -67 -99 -8 c-55 -4 -181 -4
-280 -1 -99 4 -207 7 -240 9 -58 2 -60 3 -79 39 -14 28 -20 74 -27 189 -8 140
-26 269 -49 357 -5 19 -10 40 -11 45 0 6 -4 15 -9 20 -4 6 -11 42 -15 80 -3
39 -11 87 -17 107 -14 46 13 140 45 163 19 13 -112 15 -1174 15 l-1195 0 -12
-59 c-9 -45 -19 -63 -39 -76 -14 -10 -46 -35 -69 -57 -24 -22 -48 -37 -54 -33
-6 4 -34 4 -63 0 -46 -7 -58 -13 -106 -64 -29 -31 -67 -73 -85 -94 -17 -21
-52 -48 -78 -61 -26 -13 -65 -38 -86 -55 -22 -17 -50 -31 -61 -31 -38 0 -91
28 -150 79 -51 44 -58 55 -69 108 -7 32 -21 76 -33 98 -46 93 -48 95 -84 95
-19 0 -37 -5 -41 -11 -3 -6 -17 -8 -30 -5 -52 13 -165 -35 -230 -97 -41 -40
-170 -107 -204 -107 -49 0 -89 36 -303 273 l-89 97 -109 0 c-85 0 -109 -3
-109 -14z m5400 -2116 c0 -5 -5 -10 -11 -10 -5 0 -7 5 -4 10 3 6 8 10 11 10 2
0 4 -4 4 -10z m-371 -282 c1 -40 7 -99 13 -131 7 -41 8 -61 0 -69 -7 -7 -14 6
-21 44 -13 60 -22 205 -14 225 11 28 20 0 22 -69z"/>
<path d="M21435 10220 c34 -17 46 -32 82 -107 23 -49 47 -100 52 -115 12 -32
41 -37 48 -9 3 14 31 30 89 53 57 22 90 41 101 58 9 14 36 43 60 66 79 74 79
74 -214 74 l-258 0 40 -20z"/>
<path d="M22519 10218 c60 -62 165 -195 280 -357 48 -67 121 -142 149 -153 64
-25 183 23 255 103 26 29 47 56 47 61 0 4 6 8 13 8 7 0 18 9 25 20 7 11 17 20
22 20 12 0 45 32 52 51 3 8 40 32 83 54 43 22 80 45 82 52 3 7 14 13 24 13 10
0 19 4 19 8 0 8 66 45 82 46 3 1 10 4 14 9 4 4 16 7 26 7 10 0 18 5 18 11 0
14 173 7 192 -8 7 -5 31 -15 53 -22 60 -20 151 -76 219 -135 72 -61 112 -91
185 -135 30 -18 61 -39 68 -47 8 -8 19 -14 25 -14 5 0 21 -9 35 -20 37 -29 63
-26 63 7 0 26 1 26 14 7 25 -34 29 -7 17 109 -15 152 -16 144 21 153 18 3 38
13 43 21 15 20 40 9 221 -93 77 -42 157 -87 179 -99 22 -12 69 -39 105 -60 87
-51 183 -105 230 -130 21 -11 50 -32 64 -47 14 -16 29 -28 34 -28 18 0 98 -49
122 -75 13 -14 30 -25 37 -25 8 0 16 -7 20 -15 3 -9 24 -24 46 -35 46 -23 87
-18 87 11 0 10 6 19 13 19 19 0 60 47 52 59 -3 6 1 11 9 11 9 0 16 5 16 11 0
34 264 229 309 229 9 0 25 6 36 14 25 17 135 46 152 39 7 -3 13 0 13 7 0 9 11
11 39 6 25 -4 42 -2 47 5 4 8 9 7 16 -2 7 -11 11 -11 15 -1 2 6 14 12 26 12
18 0 19 -2 7 -10 -12 -8 -11 -10 8 -10 12 0 22 6 22 13 0 8 3 9 8 1 7 -11 31
-16 147 -34 33 -5 75 -16 92 -25 36 -18 73 -59 74 -84 0 -12 2 -13 6 -2 3 7
14 22 24 32 11 11 19 27 19 36 0 9 -3 13 -7 10 -3 -4 -12 2 -20 13 -8 11 -20
20 -28 20 -21 0 -28 19 -14 36 10 13 26 14 81 9 75 -8 98 1 98 39 0 13 11 33
25 46 14 13 25 32 25 43 0 13 5 17 15 13 9 -3 15 0 15 10 0 9 9 28 20 44 11
15 17 30 13 34 -3 3 -1 6 5 6 7 0 12 6 12 13 0 6 12 23 25 36 23 21 25 21 25
5 0 -12 3 -15 8 -8 6 10 74 30 112 33 164 15 -262 18 -2359 20 l-2494 1 22
-22z"/>
<path d="M27768 10233 c7 -3 16 -2 19 1 4 3 -2 6 -13 5 -11 0 -14 -3 -6 -6z"/>
<path d="M27801 10236 c2 -2 33 -7 69 -10 82 -9 249 -43 264 -55 6 -5 75 -37
154 -71 78 -34 152 -70 165 -79 12 -9 39 -26 60 -36 61 -31 263 -196 371 -303
208 -205 410 -519 546 -847 88 -216 165 -484 195 -682 49 -328 44 -509 -26
-873 -35 -182 -25 -165 -99 -168 -110 -4 -150 -23 -245 -118 -47 -46 -85 -88
-85 -93 0 -5 -11 -22 -24 -38 -13 -15 -36 -51 -51 -78 -15 -28 -38 -61 -50
-75 -12 -14 -47 -59 -78 -100 -31 -41 -74 -97 -96 -125 -22 -27 -47 -65 -57
-82 -9 -18 -20 -33 -26 -33 -5 0 -8 -6 -6 -12 1 -7 -3 -23 -10 -35 -19 -35
-101 -327 -112 -401 -19 -125 -23 -364 -10 -528 7 -88 16 -166 20 -174 4 -8
10 -37 13 -65 5 -46 20 -121 62 -310 9 -38 20 -92 25 -120 6 -27 21 -86 34
-130 73 -243 92 -300 132 -401 24 -61 44 -116 44 -121 0 -6 12 -37 26 -69 14
-33 36 -88 49 -124 35 -100 127 -312 189 -437 69 -138 71 -164 18 -254 -48
-79 -84 -101 -162 -97 -45 3 -57 7 -64 24 -5 12 -24 29 -41 39 -18 9 -59 41
-91 71 -32 30 -72 58 -88 61 -16 3 -31 14 -33 23 -3 10 -30 34 -62 54 -58 38
-63 45 -188 269 -13 22 -29 45 -37 51 -13 10 -96 184 -96 201 0 4 -16 41 -35
81 -19 40 -35 80 -35 89 0 9 -7 29 -15 45 -9 17 -11 30 -5 30 5 0 10 9 10 20
0 11 15 44 34 73 19 28 38 66 42 82 4 17 12 33 17 36 9 7 17 39 35 157 6 36 5
81 -4 134 -11 69 -11 83 2 95 7 8 17 26 20 41 3 15 10 41 15 58 13 42 18 288
8 409 -29 376 -39 494 -44 520 -2 17 -12 95 -20 175 -23 214 -113 612 -190
845 -13 39 -42 130 -65 204 -23 73 -59 170 -80 215 -20 44 -43 99 -50 121 -12
37 -36 92 -62 139 -52 98 -178 298 -218 346 -20 25 -58 79 -85 120 -27 41 -71
105 -97 143 -52 73 -51 83 2 37 19 -16 41 -29 48 -30 7 0 21 -14 31 -31 13
-20 21 -26 24 -17 4 10 9 9 20 -5 12 -14 23 -16 56 -11 22 4 38 10 35 15 -8
14 10 11 25 -3 10 -11 11 -9 5 6 -5 14 -3 17 7 14 16 -6 68 20 85 41 6 8 16
11 24 6 9 -6 10 -1 5 16 -4 18 -4 20 4 10 8 -12 16 -10 50 12 44 29 234 101
295 112 21 3 49 13 61 21 14 9 33 12 47 9 13 -3 78 2 144 11 126 19 129 19
239 12 39 -3 78 -1 88 4 34 17 13 153 -32 203 -10 11 -27 36 -37 55 -10 19
-24 42 -30 50 -14 19 -22 46 -39 137 -14 76 -43 128 -79 144 -48 20 -138 77
-197 124 -73 58 -168 125 -178 125 -16 0 -90 71 -155 150 -63 77 -94 124 -145
219 -13 24 -57 91 -141 215 -40 58 -137 156 -155 156 -22 0 -134 -132 -145
-170 -18 -68 -39 -206 -45 -310 -4 -58 -8 -121 -10 -140 -3 -19 -7 -57 -10
-85 -35 -334 -46 -400 -83 -507 -29 -83 -103 -216 -157 -281 -45 -54 -71 -52
-89 7 -5 15 -9 16 -21 6 -13 -11 -49 21 -238 214 -164 167 -229 227 -247 228
-14 1 -31 6 -38 11 -19 15 -20 7 -11 -63 13 -90 15 -95 65 -151 25 -28 55 -67
68 -87 13 -20 48 -59 77 -87 30 -27 66 -65 81 -85 14 -19 50 -60 78 -90 29
-30 56 -64 61 -75 5 -11 18 -33 29 -50 11 -16 27 -43 36 -59 20 -37 54 -65 76
-66 10 0 24 15 34 36 10 20 42 63 72 95 43 47 52 62 43 73 -9 11 -7 15 7 18
21 6 46 -5 79 -34 l22 -20 -22 -33 c-12 -18 -25 -32 -28 -29 -4 2 -44 -38 -91
-89 -115 -127 -115 -127 -98 -137 12 -7 11 -12 -3 -28 -14 -15 -32 -19 -88
-20 -39 -1 -87 -6 -107 -11 -20 -6 -68 -18 -107 -26 -65 -15 -133 -36 -180
-55 -11 -5 -30 -12 -43 -15 -27 -8 -72 -48 -72 -64 0 -6 7 -14 15 -17 8 -4 15
-17 15 -30 0 -24 72 -213 94 -249 7 -11 19 -38 26 -60 7 -22 32 -80 55 -130
23 -49 46 -100 50 -113 4 -13 24 -58 45 -100 21 -43 44 -93 52 -112 22 -52
106 -139 117 -121 5 8 10 9 12 3 5 -12 140 16 150 31 4 5 11 7 16 4 5 -4 20 1
32 10 18 12 20 17 10 24 -11 7 -10 9 4 9 9 0 17 -4 17 -10 0 -5 6 -10 13 -10
19 0 44 -49 51 -100 17 -125 -3 -400 -34 -475 l-13 -30 -9 41 c-5 23 -18 50
-30 60 -21 19 -21 19 -14 0 3 -10 10 -47 15 -81 5 -34 21 -87 35 -116 22 -48
111 -306 120 -348 2 -9 6 -23 9 -31 14 -38 38 -171 67 -367 19 -134 9 -217
-44 -361 -24 -63 -129 -212 -150 -212 -10 0 -27 -19 -48 -52 -10 -14 -33 -32
-53 -39 -41 -15 -46 -29 -11 -29 14 0 53 -13 88 -29 35 -15 78 -35 96 -42 17
-8 32 -17 32 -21 0 -4 15 -8 32 -10 22 -2 34 -9 36 -21 2 -10 16 -31 30 -46
23 -24 57 -74 71 -105 2 -5 -3 -6 -10 -2 -8 4 -2 -2 14 -14 15 -12 27 -30 27
-41 0 -30 23 -109 32 -109 5 0 8 -15 8 -32 -3 -78 9 -288 16 -300 5 -7 9 -19
10 -26 7 -46 45 -58 64 -21 11 19 13 19 29 5 10 -9 23 -33 30 -54 6 -20 24
-77 40 -127 46 -145 57 -201 41 -220 -9 -11 -10 -19 -4 -23 15 -10 25 -42 14
-42 -6 0 -10 -4 -10 -10 0 -5 7 -7 15 -4 11 4 15 0 15 -16 0 -16 -4 -20 -16
-16 -13 5 -15 0 -12 -34 2 -26 -1 -41 -9 -44 -7 -3 -13 -12 -13 -20 0 -39 -83
-153 -124 -170 -36 -15 -46 -51 -17 -59 14 -3 18 -13 16 -42 -2 -33 -8 -40
-51 -66 -81 -48 -113 -53 -186 -28 -55 18 -81 32 -137 74 -30 22 -128 122
-160 163 l-34 43 13 62 c7 34 14 64 16 65 5 7 64 -42 64 -54 0 -7 5 -16 12
-20 8 -5 9 0 6 14 -8 30 6 28 20 -3 12 -26 32 -34 32 -13 0 9 3 9 12 0 16 -16
31 -15 25 2 -4 10 0 14 14 11 10 -2 23 -6 28 -10 5 -3 12 4 16 14 3 11 15 23
26 26 10 4 17 10 14 15 -3 5 -1 11 4 14 5 4 12 2 16 -3 11 -19 36 0 29 22 -5
15 -3 19 9 14 16 -6 30 6 82 68 24 28 29 40 26 58 0 4 3 7 8 7 11 0 31 78 31
120 0 46 -14 65 -83 111 -100 68 -176 136 -487 439 -26 25 -64 61 -86 80 -21
20 -56 55 -77 78 -45 50 -73 57 -62 15 13 -46 23 -117 18 -129 -2 -6 -16 -15
-31 -21 -25 -10 -25 -11 -4 -12 17 -1 22 -7 22 -30 0 -27 -3 -29 -52 -35 -29
-3 -78 -6 -108 -6 -30 0 -80 -7 -110 -15 -78 -21 -221 -31 -247 -16 -17 8 -25
8 -35 -3 -13 -13 -73 -13 -108 0 -30 11 32 33 74 27 23 -4 37 -2 33 3 -10 18
-177 23 -274 9 -43 -6 -53 -11 -53 -26 0 -15 5 -18 24 -13 24 6 24 4 19 -38
-4 -23 -12 -53 -20 -65 -13 -19 -12 -27 6 -66 13 -28 22 -78 27 -138 11 -159
20 -167 254 -255 102 -38 154 -67 166 -91 6 -13 17 -31 25 -40 8 -10 41 -74
73 -143 75 -162 67 -144 126 -305 45 -126 64 -176 91 -240 20 -51 93 -256 109
-310 10 -33 23 -73 29 -90 6 -16 30 -86 52 -155 23 -69 47 -137 55 -152 17
-33 78 -71 101 -63 57 19 119 116 107 167 l-6 31 33 -19 c42 -25 79 -78 79
-115 0 -48 -39 -139 -60 -139 -20 0 -34 38 -24 64 29 75 -242 -168 -349 -314
-23 -30 -59 -75 -82 -100 -22 -25 -61 -72 -85 -105 -57 -76 -104 -125 -119
-125 -23 0 -94 69 -151 145 -164 221 -480 715 -566 885 -4 8 -38 69 -74 135
-37 66 -90 167 -120 225 -29 58 -61 117 -71 132 -11 14 -19 30 -19 35 0 5 -45
99 -101 209 -56 109 -109 219 -119 244 -10 25 -31 68 -47 95 -16 28 -42 82
-57 120 -15 39 -41 95 -57 126 -16 31 -29 63 -29 70 0 8 -10 32 -21 54 -14 26
-22 57 -22 88 1 43 -4 53 -43 95 -24 26 -44 54 -44 64 0 9 -13 21 -31 27 -17
6 -28 15 -25 20 3 5 -12 23 -33 40 -22 18 -52 43 -68 57 -15 13 -44 31 -63 40
-19 8 -48 22 -65 29 -50 22 -216 64 -285 71 -108 11 -184 27 -202 43 -42 34
-70 67 -80 94 -5 15 -16 27 -24 27 -8 0 -37 -22 -64 -50 -47 -46 -50 -52 -51
-102 0 -61 -4 -103 -24 -283 -8 -71 -17 -218 -20 -325 -4 -107 -10 -286 -15
-397 -7 -196 0 -283 23 -283 4 0 6 4 3 9 -3 5 0 14 8 20 10 9 15 8 19 -3 4 -9
14 -12 27 -9 16 4 19 11 14 27 l-6 21 18 -21 c11 -11 31 -24 47 -28 23 -5 27
-3 27 14 0 11 5 20 10 20 6 0 10 13 10 30 0 25 8 71 26 158 2 12 16 27 29 32
16 6 23 15 19 25 -3 8 -2 15 4 15 6 0 13 -6 15 -12 3 -7 6 -3 6 10 1 23 17 30
23 10 6 -17 28 0 28 22 0 22 22 39 28 21 3 -8 8 -9 16 -1 7 5 26 11 42 12 16
1 34 4 39 7 6 4 19 6 30 6 11 0 25 3 30 7 49 38 250 124 330 143 16 3 49 15
73 27 25 11 48 16 52 11 9 -9 58 -245 65 -313 3 -25 10 -73 15 -107 6 -34 17
-115 26 -180 8 -65 19 -145 24 -178 7 -47 30 -269 39 -385 9 -115 10 -341 2
-400 -6 -41 -15 -109 -21 -150 -6 -41 -13 -97 -15 -125 -7 -71 -27 -155 -37
-155 -4 0 -8 -7 -8 -15 0 -10 -10 -15 -34 -15 -39 0 -63 11 -134 63 -28 21
-57 37 -64 35 -15 -5 47 -62 92 -85 19 -10 37 -21 38 -25 2 -5 10 -8 17 -8 10
0 12 -9 8 -33 -6 -38 1 -48 136 -192 224 -241 261 -283 261 -296 0 -5 4 -9 9
-9 8 0 45 -45 155 -190 36 -47 71 -92 78 -100 26 -30 108 -151 108 -160 0 -6
4 -10 8 -10 5 0 24 -24 42 -53 19 -28 40 -58 48 -66 27 -28 63 -125 58 -155
-4 -16 -1 -44 6 -62 6 -19 9 -36 6 -40 -8 -8 -117 108 -203 216 -37 47 -84
103 -104 126 -20 23 -74 87 -121 143 -47 57 -95 115 -108 129 -13 15 -30 39
-40 55 -9 15 -24 29 -33 32 -9 3 -33 30 -53 60 -54 82 -118 145 -147 145 -13
0 -49 -9 -79 -20 -30 -11 -100 -31 -154 -45 -55 -13 -129 -35 -165 -49 -36
-13 -91 -31 -121 -41 -30 -9 -64 -21 -75 -25 -11 -5 -51 -18 -90 -29 -38 -11
-124 -39 -190 -62 -66 -22 -147 -47 -180 -54 -33 -8 -85 -23 -117 -34 -31 -10
-90 -25 -132 -32 l-75 -13 55 -58 c69 -76 127 -181 155 -283 11 -44 26 -86 31
-92 6 -7 7 -13 2 -13 -5 0 5 -9 21 -19 17 -10 64 -51 105 -90 l75 -71 2342 0
c1441 0 2343 4 2343 9 0 5 -14 19 -31 31 -16 12 -27 25 -24 29 10 9 133 29
188 30 41 1 53 -4 78 -28 16 -16 29 -39 29 -50 0 -19 6 -21 70 -21 l70 0 0 78
0 77 -322 2 c-348 2 -365 5 -332 51 l15 22 720 0 719 0 0 5005 0 5005 -1142 0
c-628 0 -1139 -2 -1137 -4z m-162 -3083 c6 -21 12 -49 15 -63 12 -68 27 -112
64 -190 43 -90 55 -121 104 -265 43 -127 79 -271 127 -511 10 -51 21 -96 24
-101 3 -5 9 -32 12 -59 4 -27 11 -76 16 -109 15 -100 12 -130 -21 -182 -16
-26 -30 -50 -30 -54 0 -20 79 -79 119 -90 96 -26 112 -56 146 -259 18 -105 69
-318 87 -365 7 -16 25 -49 40 -72 36 -53 45 -95 24 -112 -12 -10 -16 -10 -16
-1 0 6 -16 30 -35 53 -19 22 -35 44 -35 48 0 9 -32 49 -80 100 -41 43 -131 75
-180 64 -16 -3 -72 -12 -126 -20 -86 -12 -100 -17 -120 -42 -13 -15 -23 -32
-24 -37 0 -10 -60 -87 -79 -102 -8 -6 -11 -18 -8 -28 4 -9 3 -16 -2 -16 -14 0
-43 -70 -37 -87 3 -8 3 -20 -1 -26 -8 -12 -10 -18 -12 -40 0 -7 -10 -18 -22
-25 -19 -12 -19 -12 -8 10 11 21 11 22 -4 10 -17 -15 -77 -8 -77 8 0 21 42
120 54 127 15 9 68 162 60 174 -3 5 0 26 5 46 71 267 56 860 -29 1168 -11 39
-26 102 -35 140 -24 111 -62 245 -85 305 -12 30 -40 106 -61 169 l-40 114 22
23 c12 13 28 24 36 24 7 0 13 8 13 19 0 10 7 24 15 31 8 7 25 30 37 51 12 22
25 39 29 39 4 0 12 14 18 30 5 17 15 30 21 30 5 0 21 25 35 55 13 30 26 55 29
55 3 0 10 -17 15 -37z m-343 -2428 c14 -13 13 -15 -10 -15 -25 0 -33 10 -19
23 9 10 13 9 29 -8z m1104 -4 c0 -6 -4 -13 -10 -16 -5 -3 -10 1 -10 9 0 9 5
16 10 16 6 0 10 -4 10 -9z m-2225 -671 c-3 -5 -10 -10 -16 -10 -5 0 -9 5 -9
10 0 6 7 10 16 10 8 0 12 -4 9 -10z m-35 -15 c0 -8 -4 -15 -10 -15 -5 0 -10 7
-10 15 0 8 5 15 10 15 6 0 10 -7 10 -15z m-39 -20 c-1 -15 -24 -12 -29 3 -3 9
2 13 12 10 10 -1 17 -7 17 -13z m999 -1956 c0 -7 12 -22 28 -35 l27 -24 -42 0
c-23 0 -45 -5 -48 -10 -7 -11 -25 -4 -25 8 0 4 9 22 20 40 20 32 40 43 40 21z"/>
<path d="M4517 10138 c25 -47 28 -61 28 -152 0 -92 -3 -106 -29 -156 l-28 -55
35 35 c19 19 47 59 62 88 25 47 27 60 22 117 -7 69 -38 131 -83 160 -36 24
-37 19 -7 -37z"/>
<path d="M14236 10143 c-8 -8 -8 -71 0 -101 4 -12 17 -25 31 -28 18 -5 22 -11
18 -25 -7 -21 5 -25 23 -7 9 9 12 7 12 -10 0 -28 26 -29 40 -2 9 17 7 20 -14
26 -14 3 -27 12 -30 20 -3 8 -11 14 -18 14 -8 0 -14 14 -15 33 -1 17 -5 42 -8
53 -5 22 -28 38 -39 27z"/>
<path d="M375 9948 c4 -18 14 -46 22 -62 35 -69 55 -150 70 -286 23 -216 26
-293 15 -347 -18 -85 -6 -113 80 -190 72 -64 146 -113 170 -113 24 0 -5 154
-78 405 -25 88 -54 190 -64 226 -32 122 -150 349 -181 349 -5 0 -11 11 -15 25
-9 38 -27 31 -19 -7z"/>
<path d="M718 9963 c6 -2 18 -2 25 0 6 3 1 5 -13 5 -14 0 -19 -2 -12 -5z"/>
<path d="M5329 9818 c-6 -24 -17 -57 -24 -74 -17 -40 -13 -432 5 -479 12 -31
67 -95 83 -95 5 0 24 -7 43 -16 38 -18 62 -16 212 17 l103 23 24 -30 c42 -51
48 -86 42 -248 -3 -83 -11 -178 -17 -211 -14 -80 -49 -211 -65 -249 -7 -17
-23 -56 -35 -86 -12 -30 -33 -80 -47 -110 -23 -50 -96 -236 -143 -365 -10 -27
-46 -122 -79 -210 -130 -349 -211 -593 -256 -770 -25 -98 -42 -207 -66 -430
-6 -60 -13 -117 -14 -125 -13 -71 -16 -128 -6 -135 6 -3 34 1 61 10 61 20 142
101 295 295 59 74 152 181 207 237 73 73 99 106 94 118 -4 11 -12 14 -26 10
-11 -3 -20 -4 -20 -2 0 16 47 101 86 157 25 36 68 110 95 164 59 117 99 175
169 240 l51 48 22 -20 c38 -34 96 -52 197 -58 l97 -7 69 45 c38 25 84 59 103
77 19 17 39 31 43 31 5 0 7 4 3 10 -3 5 4 19 15 30 11 11 25 32 30 46 l10 25
37 -30 c21 -16 58 -40 83 -52 25 -12 57 -30 71 -40 34 -24 52 -19 94 21 41 40
60 95 74 214 10 83 6 378 -5 454 -6 40 -24 32 -24 -11 -1 -36 -67 -157 -142
-262 -40 -55 -53 -65 -77 -65 -24 0 -36 9 -61 45 -35 51 -67 61 -144 46 -27
-5 -54 -8 -60 -6 -6 2 -23 6 -37 9 -30 6 -48 43 -68 136 -36 159 -55 236 -61
245 -4 6 -10 24 -14 40 -20 81 -142 335 -245 509 -106 179 -170 241 -235 228
-19 -4 -19 -7 0 -82 l6 -25 -21 24 c-12 13 -21 29 -21 37 0 8 -14 27 -31 44
-25 23 -30 35 -25 55 12 47 -56 115 -116 115 -17 0 -19 3 -9 9 9 6 -8 9 -48 9
-46 0 -61 -4 -61 -14 0 -42 -61 12 -93 83 -25 57 -40 116 -72 298 -24 136 -26
145 -35 145 -5 0 -14 -19 -21 -42z m932 -2319 c34 -7 47 -14 38 -19 -7 -5 -22
-4 -32 2 -11 6 -37 8 -58 5 -26 -3 -42 0 -50 9 -9 11 -6 14 19 14 17 0 54 -5
83 -11z"/>
<path d="M26855 9645 c-46 -61 -125 -206 -125 -228 0 -3 -18 -34 -40 -68 -53
-84 -71 -123 -59 -128 13 -4 59 38 59 55 0 6 7 18 17 25 44 37 233 368 233
409 0 29 -36 2 -85 -65z"/>
<path d="M7175 9645 c-4 -43 -12 -68 -21 -72 -20 -8 -17 -31 5 -38 12 -4 18
-12 14 -21 -4 -11 11 -14 88 -15 111 -1 175 -6 209 -18 14 -5 52 -12 85 -15
33 -3 71 -9 84 -12 16 -5 22 -3 18 3 -4 6 -19 14 -34 18 -41 10 -213 114 -252
152 -41 41 -84 64 -125 68 -17 2 -38 6 -47 10 -14 5 -18 -4 -24 -60z"/>
<path d="M15037 9538 c-8 -57 -25 -193 -37 -303 -12 -110 -26 -218 -31 -240
-5 -22 -12 -49 -14 -60 -3 -11 -12 -45 -20 -75 -40 -143 -43 -168 -51 -392 -7
-200 -6 -207 15 -241 12 -19 45 -50 73 -68 28 -18 65 -46 82 -62 17 -16 55
-47 84 -69 28 -22 52 -43 52 -47 0 -4 16 -23 36 -44 56 -58 58 -79 19 -309 -7
-43 -11 -78 -9 -78 7 0 33 67 43 113 7 27 14 91 18 142 7 111 -2 143 -58 197
-21 21 -55 61 -75 90 -21 29 -48 67 -60 83 -32 42 -64 115 -64 146 0 14 19 63
43 110 24 46 56 131 71 189 16 58 32 115 37 128 14 36 11 72 -17 199 -42 187
-43 196 -43 446 l-1 237 -24 0 c-13 0 -31 2 -38 5 -12 5 -18 -17 -31 -97z"/>
<path d="M23086 9605 c4 -8 10 -15 15 -15 4 0 25 -26 45 -57 42 -65 105 -145
143 -184 61 -61 236 -292 284 -373 95 -164 135 -317 122 -466 -16 -179 -70
-373 -147 -522 -37 -73 -39 -79 -36 -160 l3 -83 84 -5 c73 -4 86 -8 99 -27 8
-13 18 -23 22 -23 4 0 10 60 12 133 5 129 6 134 48 227 64 144 107 252 155
390 108 308 85 539 -74 754 -60 81 -230 212 -356 274 -61 31 -187 81 -215 86
-112 19 -148 30 -142 44 4 11 0 13 -16 8 -11 -4 -23 -2 -27 4 -10 16 -25 12
-19 -5z"/>
<path d="M12460 9400 c0 -11 7 -37 15 -57 9 -20 15 -66 15 -107 0 -39 3 -108
7 -153 5 -72 8 -83 24 -83 11 0 19 2 19 4 0 2 9 39 20 82 11 44 20 99 20 123
0 52 -44 179 -68 197 -26 20 -52 17 -52 -6z"/>
<path d="M5558 9363 c7 -3 16 -2 19 1 4 3 -2 6 -13 5 -11 0 -14 -3 -6 -6z"/>
<path d="M395 9273 c5 -10 13 -37 19 -60 14 -52 36 -79 36 -45 0 23 -46 122
-56 122 -3 0 -3 -8 1 -17z"/>
<path d="M25625 9174 c-106 -79 -155 -126 -155 -148 0 -9 -4 -16 -8 -16 -10 0
-132 -241 -132 -260 0 -7 -12 -37 -27 -67 -25 -48 -31 -54 -58 -53 -16 1 -35
2 -42 1 -30 -3 -113 -235 -113 -318 0 -18 11 -51 25 -73 14 -22 25 -42 25 -45
0 -3 16 -28 35 -56 34 -49 44 -79 27 -79 -10 0 -63 58 -78 85 -48 88 -69 121
-122 192 -57 75 -110 129 -119 120 -19 -19 17 -164 68 -273 10 -22 19 -48 19
-58 0 -9 6 -29 14 -44 7 -15 16 -44 20 -64 4 -21 17 -45 31 -56 16 -13 23 -29
23 -48 -1 -16 6 -43 14 -59 8 -17 23 -55 33 -85 10 -30 26 -72 37 -93 10 -21
24 -63 29 -94 10 -55 35 -102 53 -103 5 0 17 -7 27 -16 14 -13 24 -13 61 -4
23 6 61 20 83 31 22 10 66 26 97 35 112 30 216 167 315 414 90 225 96 244 91
310 -2 33 -8 63 -12 67 -10 10 -39 -10 -51 -35 -5 -12 -13 -22 -18 -22 -5 0
-5 -10 -2 -22 5 -18 4 -19 -4 -8 -8 12 -11 12 -17 -3 -15 -40 -165 -169 -251
-217 -35 -19 -51 -22 -105 -18 -72 6 -144 38 -172 76 l-20 25 65 60 c110 102
293 215 418 258 39 14 57 16 62 8 10 -17 29 -1 30 24 1 19 2 18 15 -8 l15 -30
-6 44 c-9 67 -39 122 -107 199 -108 122 -158 189 -158 214 0 13 5 39 10 58 12
38 70 262 70 267 0 7 -16 1 -35 -13z"/>
<path d="M8077 8964 c-13 -14 -61 -88 -107 -164 -84 -142 -92 -150 -156 -150
-25 0 -41 10 -73 45 -23 25 -48 45 -55 45 -8 0 -28 -12 -45 -26 -31 -25 -40
-64 -23 -91 13 -20 105 -61 155 -68 27 -4 51 -14 54 -22 5 -13 -31 -130 -97
-313 -17 -47 -42 -116 -55 -154 -14 -38 -29 -74 -34 -80 -5 -6 -23 -47 -40
-91 -18 -44 -39 -94 -48 -112 -12 -22 -14 -35 -6 -45 7 -9 7 -205 1 -613 -5
-330 -6 -614 -3 -632 6 -36 8 -38 50 -47 27 -6 34 -2 75 51 58 74 131 207 199
361 l55 123 50 -6 c59 -8 71 -20 93 -95 8 -30 21 -68 29 -85 64 -142 135 -464
204 -922 57 -373 85 -728 78 -993 l-3 -135 -53 -55 c-30 -32 -72 -92 -99 -145
-44 -85 -46 -94 -47 -175 -1 -107 18 -150 89 -198 70 -48 76 -74 69 -332 -5
-146 -2 -224 7 -270 7 -36 12 -85 11 -110 l-1 -45 29 55 c39 73 66 167 80 270
6 47 15 108 20 135 19 99 32 224 50 495 16 232 36 353 90 535 11 39 29 99 39
135 10 36 40 119 66 185 25 66 65 174 89 240 24 66 63 167 86 225 23 58 57
146 75 197 29 80 66 170 110 268 7 17 30 71 50 120 96 232 238 494 314 578 47
53 80 67 151 67 104 0 161 -45 360 -279 25 -30 52 -62 61 -72 8 -10 24 -30 35
-45 21 -29 70 -89 94 -114 8 -8 44 -51 80 -93 60 -72 142 -147 161 -147 5 0
13 9 19 20 9 17 8 20 -10 20 -16 0 -29 17 -56 78 -20 42 -40 86 -46 96 -17 32
-166 403 -208 516 -123 338 -200 531 -247 620 -41 78 -86 110 -152 110 -42 0
-49 -4 -116 -72 -64 -67 -124 -152 -213 -306 -98 -169 -266 -562 -393 -917
-92 -258 -182 -470 -214 -501 -8 -9 -15 -19 -15 -24 0 -12 -54 -40 -76 -40
-23 0 -92 57 -99 83 -3 12 -10 31 -15 42 -5 11 -13 52 -19 90 -6 39 -17 111
-25 160 -8 50 -20 135 -26 190 -6 55 -18 156 -25 225 -46 403 -19 858 72 1245
14 60 31 137 37 170 11 57 13 60 38 57 19 -2 30 4 38 18 10 19 17 21 65 15 64
-8 107 4 155 46 l35 30 -45 -6 c-25 -3 -57 -8 -71 -10 -21 -3 -26 -1 -23 13 3
9 -11 42 -31 72 -71 111 -70 111 -56 203 39 245 37 333 -7 380 -36 38 -81 60
-177 87 -44 12 -105 30 -135 40 -58 20 -177 54 -222 64 -21 5 -32 0 -51 -20z
m290 -5046 c-3 -8 -6 -5 -6 6 -1 11 2 17 5 13 3 -3 4 -12 1 -19z"/>
<path d="M24158 8945 c-14 -14 25 -82 76 -133 31 -31 72 -79 91 -107 19 -27
47 -65 63 -84 l29 -34 -2 46 c-1 26 -8 55 -17 64 -8 10 -21 33 -28 51 -7 19
-24 40 -37 49 -12 8 -23 21 -23 27 0 18 -60 81 -100 105 -37 22 -44 24 -52 16z"/>
<path d="M22481 8926 c8 -7 123 -45 126 -42 7 7 -84 46 -107 46 -13 0 -21 -2
-19 -4z"/>
<path d="M12776 8718 c4 -46 7 -134 6 -197 -2 -98 -5 -121 -27 -169 -25 -54
-32 -106 -17 -116 5 -3 22 9 38 26 31 32 142 88 213 108 24 6 100 10 177 9 74
-1 139 2 144 7 4 5 10 18 12 28 1 10 10 22 18 27 8 4 53 26 100 49 95 47 112
59 141 107 16 25 19 42 14 71 -9 57 -20 70 -42 51 -10 -9 -34 -22 -53 -29 -19
-7 -41 -18 -47 -23 -7 -5 -42 -12 -78 -15 -64 -5 -65 -5 -65 -33 0 -38 -16
-37 -60 5 -42 41 -164 106 -273 147 -57 21 -96 29 -144 29 l-65 0 8 -82z"/>
<path d="M722 8672 c-12 -37 -24 -80 -28 -97 -13 -66 -122 -362 -157 -430 -9
-16 -48 -103 -87 -192 -73 -169 -85 -226 -54 -257 22 -23 52 -20 109 10 97 50
132 112 160 284 23 145 24 151 35 210 5 30 10 73 12 95 1 22 5 47 10 55 6 13
29 381 24 387 -1 2 -12 -28 -24 -65z"/>
<path d="M10980 8688 c-33 -45 -54 -107 -44 -132 12 -31 31 -15 48 42 10 31
26 72 37 90 23 40 23 42 4 42 -8 0 -28 -19 -45 -42z"/>
<path d="M17190 8624 c-30 -8 -80 -26 -110 -41 -30 -14 -73 -32 -94 -41 -22
-9 -65 -31 -95 -49 -55 -33 -55 -34 -20 -28 22 4 39 3 43 -4 4 -5 13 -62 20
-125 12 -104 18 -123 60 -208 26 -51 63 -108 82 -126 19 -18 34 -39 34 -46 0
-14 72 -130 96 -153 17 -17 15 -7 20 -113 2 -49 9 -89 16 -96 7 -7 45 -29 83
-50 70 -37 124 -68 160 -92 11 -7 33 -20 50 -30 16 -9 41 -30 55 -46 14 -15
41 -46 61 -68 l37 -40 39 59 c21 32 44 69 51 83 14 29 19 37 96 155 33 49 91
134 130 187 39 53 87 121 106 151 19 29 90 107 157 172 l123 117 25 -16 c22
-15 28 -15 53 -2 27 14 72 67 72 84 0 8 125 168 169 217 18 20 61 98 61 111 0
6 -102 0 -207 -12 -38 -4 -61 -1 -90 13 -27 13 -59 18 -108 17 -79 -2 -269
-28 -354 -49 -79 -20 -130 -25 -257 -25 -97 -1 -121 3 -198 29 -48 16 -93 34
-99 39 -25 20 -113 42 -161 41 -28 0 -76 -7 -106 -15z m1270 -49 c10 -12 7
-20 -17 -42 -23 -22 -32 -43 -43 -101 -16 -87 -25 -96 -169 -166 -51 -25 -98
-49 -105 -54 -48 -38 -341 -161 -334 -141 4 12 159 103 238 141 25 11 58 32
74 45 16 14 59 38 94 55 l64 31 -5 39 c-5 39 -4 42 81 124 48 46 92 84 98 84
6 0 17 -7 24 -15z m45 -295 c-9 -16 -18 -30 -20 -30 -6 0 6 32 18 48 17 22 18
13 2 -18z m-55 -41 c0 -10 -4 -19 -10 -19 -5 0 -10 12 -10 26 0 14 4 23 10 19
6 -3 10 -15 10 -26z m-1141 -135 c27 -45 27 -84 0 -118 -26 -33 -35 -33 -54 4
-12 24 -13 38 -5 77 9 40 25 73 35 73 2 0 12 -16 24 -36z"/>
<path d="M10340 8565 c0 -63 36 -154 78 -199 30 -32 101 -80 108 -73 3 3 2 46
-2 97 -5 71 -11 93 -23 98 -27 9 -106 79 -121 106 -23 44 -40 32 -40 -29z"/>
<path d="M14323 8563 c-30 -33 -50 -72 -73 -137 -84 -242 -103 -272 -212 -334
-45 -26 -66 -32 -116 -32 -72 0 -122 20 -228 90 -82 54 -84 54 -84 41 0 -30
121 -104 220 -136 59 -18 110 -38 149 -58 13 -7 42 -39 65 -71 36 -51 54 -66
128 -105 48 -25 90 -42 93 -39 4 4 -3 35 -16 70 -16 46 -24 92 -27 173 l-4
110 39 74 c54 104 74 117 176 113 45 -1 120 -9 167 -17 102 -18 100 -18 100
-4 0 21 -199 225 -260 267 -33 23 -64 42 -68 42 -4 0 -26 -21 -49 -47z"/>
<path d="M24454 8353 c4 -60 7 -148 6 -198 -1 -77 -5 -96 -27 -135 -14 -25
-38 -67 -53 -95 -35 -64 -126 -195 -184 -265 -25 -30 -46 -58 -46 -62 0 -4
-10 -18 -22 -31 -13 -13 -54 -58 -93 -101 -167 -187 -333 -341 -476 -442 -30
-21 -67 -48 -82 -61 -16 -13 -32 -23 -37 -23 -4 0 -11 24 -14 53 -9 82 -11 91
-19 105 -5 7 -4 12 3 12 7 0 10 6 7 13 -2 6 -10 11 -16 9 -7 -1 -10 2 -6 8 4
6 -5 33 -19 60 -14 27 -26 57 -26 65 0 9 -8 19 -17 22 -10 4 -23 14 -30 22
-10 14 -15 9 -32 -29 -10 -25 -29 -81 -41 -125 -12 -44 -26 -88 -31 -97 -5
-10 -9 -62 -8 -115 1 -83 -2 -99 -18 -110 -10 -8 -28 -22 -40 -33 -12 -10 -32
-24 -45 -31 -12 -6 -30 -18 -38 -26 -8 -7 -36 -30 -62 -50 -40 -30 -48 -41
-48 -69 0 -46 38 -74 101 -74 43 0 51 -4 78 -37 17 -20 33 -50 37 -66 6 -29 7
-29 55 -24 33 4 65 0 101 -12 64 -21 69 -37 39 -117 -17 -44 -20 -69 -15 -117
5 -57 4 -66 -22 -102 -15 -22 -41 -67 -59 -99 -25 -47 -36 -59 -58 -62 -15 -1
-27 2 -27 8 0 5 -7 8 -15 4 -10 -4 -15 1 -15 15 0 15 -5 19 -19 14 -22 -7
-103 10 -146 30 -21 9 -43 11 -75 5 -50 -9 -51 -11 -170 -170 -136 -183 -405
-471 -458 -491 -42 -16 -125 -10 -159 11 -40 24 -48 39 -61 120 -6 36 -14 83
-19 105 -4 22 -7 45 -7 50 -2 37 -83 46 -135 14 -31 -19 -33 -23 -29 -63 8
-67 99 -230 175 -311 15 -16 41 -48 57 -70 16 -22 51 -61 78 -87 28 -26 47
-51 43 -57 -3 -6 -3 -16 1 -23 5 -7 11 -5 21 7 7 11 13 14 13 9 0 -15 37 -14
50 1 6 8 19 11 27 8 11 -4 14 -2 9 5 -4 7 -2 12 4 12 7 0 10 -7 7 -15 -9 -21
14 -31 25 -11 16 29 61 64 74 59 8 -3 14 -1 14 5 0 5 14 15 30 22 17 7 30 16
30 21 0 5 9 9 20 9 12 0 20 7 20 16 0 12 3 14 13 6 10 -8 16 -6 25 9 7 10 17
19 24 19 6 0 25 10 42 23 17 13 54 36 81 51 28 16 68 45 90 66 22 20 67 58
100 85 56 44 123 115 170 178 14 20 22 23 32 15 19 -16 16 -27 -12 -40 -13 -6
-22 -15 -19 -19 2 -5 -18 -77 -46 -161 -50 -151 -76 -221 -151 -408 -21 -53
-45 -138 -54 -193 -15 -89 -16 -100 -1 -121 17 -27 36 -25 93 9 33 20 42 35
23 35 -14 0 60 77 96 101 37 24 52 15 60 -38 5 -36 3 -50 -13 -72 -52 -70 -74
-141 -57 -184 3 -9 49 -53 102 -98 53 -45 107 -93 118 -107 12 -14 27 -21 33
-18 6 4 10 4 9 -1 -2 -4 8 -25 21 -46 l23 -38 -46 -136 c-51 -148 -120 -303
-135 -303 -5 0 -12 9 -16 19 -3 11 -14 22 -24 26 -9 3 -45 37 -80 76 -35 39
-97 95 -137 126 -41 30 -75 62 -75 69 -2 22 -4 28 -16 49 -19 37 -16 164 7
229 12 32 18 61 15 64 -6 6 -27 -20 -47 -58 -7 -14 -18 -30 -24 -36 -6 -7 -23
-26 -38 -44 -21 -26 -30 -30 -39 -21 -9 9 -7 21 10 51 21 39 21 40 2 40 -10 0
-19 6 -19 14 0 30 32 87 55 98 14 6 25 14 25 17 -1 19 -41 49 -70 53 -30 5
-39 1 -62 -25 -33 -37 -34 -44 -7 -52 11 -4 18 -12 16 -18 -6 -19 -85 -25
-142 -12 -42 10 -55 10 -70 -1 -26 -19 -35 -17 -35 6 0 34 -17 22 -37 -28 -19
-44 -24 -49 -64 -58 -43 -9 -44 -10 -56 -64 -7 -30 -17 -84 -23 -120 -6 -36
-19 -76 -27 -89 -9 -15 -19 -59 -22 -105 -3 -44 -11 -81 -17 -83 -24 -8 -43
60 -38 132 4 48 3 67 -5 60 -6 -6 -12 -73 -14 -156 -5 -179 -15 -207 -97 -256
-44 -26 -56 -39 -60 -64 -4 -25 -12 -33 -40 -43 -76 -26 -245 -177 -238 -212
2 -14 24 -26 73 -41 49 -16 76 -31 93 -53 22 -28 27 -30 90 -29 37 1 78 4 92
8 14 4 66 1 115 -7 50 -7 119 -11 155 -8 36 4 126 8 200 11 74 3 187 13 250
22 134 20 184 20 207 1 21 -17 62 -109 102 -228 34 -102 92 -223 148 -308 19
-29 46 -86 59 -126 14 -41 33 -81 42 -89 16 -14 17 -10 20 60 3 93 30 198 76
297 36 78 59 183 71 316 5 61 23 158 50 279 25 106 48 188 55 195 6 6 10 19
10 29 0 10 7 31 15 45 8 15 21 44 29 65 17 42 29 46 49 16 15 -20 15 -20 36 9
11 17 21 38 21 47 0 10 6 23 14 29 15 11 76 149 76 170 -1 19 -50 -48 -50 -67
0 -20 -50 -96 -62 -97 -29 -1 48 165 117 255 26 33 67 87 92 120 25 33 51 64
59 68 8 4 14 21 14 38 0 22 -6 32 -25 41 -20 9 -25 19 -25 47 0 39 -59 230
-60 194 0 -27 -16 -38 -24 -17 -7 19 -8 114 -1 114 3 0 14 -5 24 -12 21 -13
56 -4 46 13 -4 6 4 23 17 37 14 15 36 48 51 73 34 59 54 77 63 55 5 -12 10
-14 19 -6 6 5 14 7 17 4 7 -6 72 33 137 83 24 18 54 33 66 33 22 0 65 38 65
57 0 6 7 16 15 23 8 7 15 25 15 41 0 18 8 34 23 44 14 10 18 18 11 23 -5 4
-10 16 -11 27 0 11 -3 61 -7 110 -3 50 -9 133 -12 185 -3 52 -9 100 -12 105
-4 6 -7 23 -8 40 -1 16 -10 34 -19 40 -9 5 -40 31 -68 57 -29 26 -72 56 -97
68 -115 55 -112 53 -116 93 -3 38 3 46 24 25 9 -9 12 -9 12 1 0 7 5 9 10 6 6
-4 8 -11 5 -16 -4 -5 -1 -9 6 -9 8 0 9 11 3 38 -10 45 -7 113 4 124 5 5 24 -3
43 -19 61 -51 223 -206 284 -272 33 -36 101 -108 151 -161 133 -139 174 -184
174 -192 0 -4 25 -32 55 -62 30 -30 55 -62 55 -70 0 -9 7 -19 15 -22 8 -4 15
-12 15 -20 0 -22 16 -17 34 11 9 14 21 25 26 25 6 0 19 9 30 20 11 11 27 20
35 20 8 0 15 6 15 13 0 6 46 57 102 112 56 55 132 141 170 192 37 51 72 93 76
93 4 0 8 -19 9 -42 1 -39 0 -41 -12 -24 -13 17 -14 17 -21 -10 -4 -16 -14 -37
-22 -46 -21 -25 0 -23 32 3 l26 20 0 -24 c0 -35 45 -80 71 -72 18 6 20 4 14
-14 -16 -52 48 -2 70 55 9 22 20 48 25 59 5 11 11 37 15 58 4 23 10 35 17 31
6 -4 8 1 3 15 -4 12 -2 21 4 21 6 0 11 9 11 19 0 11 4 22 9 25 8 5 40 109 46
151 2 11 8 45 14 75 14 76 30 299 24 333 -3 15 -9 29 -12 32 -4 2 -24 -24 -45
-58 -20 -34 -70 -118 -111 -185 -41 -68 -75 -128 -75 -133 0 -9 -49 -89 -60
-99 -12 -10 -40 -55 -40 -63 0 -5 7 -7 15 -3 10 3 15 -1 15 -14 0 -10 -9 -22
-20 -25 -11 -3 -20 -11 -20 -16 0 -5 -5 -9 -11 -9 -7 0 -4 11 7 28 15 23 15
25 1 14 -9 -8 -19 -22 -22 -33 -10 -32 -67 -90 -79 -80 -6 5 -31 9 -55 8 -24
0 -47 6 -51 13 -6 9 -9 9 -15 0 -5 -7 -19 -10 -40 -6 -18 4 -35 3 -37 -1 -3
-4 -4 -3 -2 4 2 7 -20 14 -59 19 -170 21 -253 47 -242 77 7 19 -7 32 -51 45
-22 6 -49 21 -60 33 -19 21 -19 22 1 16 11 -3 48 -9 83 -12 60 -7 92 2 92 26
0 4 -33 27 -72 51 -40 23 -77 48 -83 54 -5 6 -37 31 -70 56 -60 45 -135 121
-135 136 0 4 -33 41 -73 83 -114 120 -145 161 -164 211 l-16 47 -25 -20 c-14
-11 -28 -17 -31 -13 -3 3 2 11 12 18 9 7 17 19 17 25 0 7 5 9 10 6 6 -3 10 2
10 13 0 10 9 27 20 37 22 20 129 176 148 215 52 111 84 227 112 405 17 116 21
179 19 365 -3 364 -29 676 -61 738 -24 47 -31 23 -24 -85z m-674 -1771 c0 -9
-5 -24 -10 -32 -8 -11 -10 -6 -8 22 2 35 18 44 18 10z m-20 -66 c0 -3 -4 -8
-10 -11 -5 -3 -10 -1 -10 4 0 6 5 11 10 11 6 0 10 -2 10 -4z m360 -363 c0 -7
-7 -13 -15 -13 -14 0 -45 59 -45 84 1 15 60 -55 60 -71z m-930 -466 c0 -2 -12
-14 -26 -28 -25 -22 -26 -23 -15 -2 9 18 19 26 39 32 1 1 2 0 2 -2z m250 -66
c0 -5 12 -8 26 -8 15 0 30 -6 34 -13 5 -9 9 -9 14 -1 4 6 25 10 47 9 32 -2 37
-5 23 -13 -9 -5 -28 -20 -42 -32 -14 -13 -31 -23 -38 -23 -22 0 -16 -17 8 -23
14 -4 36 2 57 14 33 19 34 19 51 2 18 -20 20 -57 3 -74 -5 -5 -48 -18 -94 -29
-46 -10 -102 -23 -124 -29 -49 -13 -85 -14 -105 -1 -12 8 -11 13 8 39 12 17
22 35 22 41 0 15 38 88 63 122 20 27 47 38 47 19z m430 -306 c0 -18 5 -18 31
-5 11 6 19 7 19 2 0 -13 -36 -22 -83 -22 -41 0 -42 14 -3 30 31 13 36 12 36
-5z m-946 -596 c7 -33 -19 -62 -35 -38 -11 18 -11 26 1 34 6 3 10 16 10 28 0
27 15 11 24 -24z m-136 -463 c-20 -15 -24 -27 -7 -23 13 3 22 -60 10 -68 -5
-3 -19 9 -31 26 l-22 30 21 23 c11 12 21 29 21 36 0 11 2 12 13 1 10 -10 9
-15 -5 -25z m137 -946 c-6 -9 -9 -9 -16 1 -10 17 0 34 13 21 6 -6 7 -16 3 -22z"/>
<path d="M16852 8373 c-5 -10 -12 -55 -15 -100 -5 -79 -4 -82 14 -72 17 8 19
21 19 99 0 50 -2 90 -5 90 -2 0 -8 -8 -13 -17z"/>
<path d="M16280 8331 c0 -6 7 -11 15 -11 8 0 15 -6 15 -14 0 -8 5 -16 10 -18
7 -2 6 -13 -2 -30 -15 -33 -24 -35 -31 -8 -3 13 -13 20 -29 19 -12 0 -18 -3
-11 -5 7 -3 22 -21 33 -40 12 -19 28 -34 37 -34 17 0 59 49 56 65 -2 6 15 9
42 7 29 -3 45 -9 45 -17 0 -20 -61 -64 -85 -62 -14 1 -20 -4 -20 -17 0 -29
-67 -59 -149 -65 -90 -8 -142 -33 -229 -112 -74 -67 -99 -107 -116 -187 -20
-96 -15 -128 26 -178 21 -24 56 -57 78 -71 22 -15 45 -32 50 -39 14 -16 91 8
130 41 l30 25 -30 -6 c-16 -3 -47 -12 -68 -20 -72 -27 -95 -12 -93 61 1 30 2
30 66 36 66 5 151 38 180 68 37 39 91 131 107 181 9 30 32 75 50 99 18 24 33
47 33 51 0 4 15 14 34 21 37 16 130 115 121 130 -11 18 -30 9 -54 -26 -38 -57
-58 -37 -25 27 11 22 14 43 9 79 l-7 49 -46 0 c-25 0 -42 -3 -38 -7 8 -8 13
-9 41 -12 8 0 15 -5 15 -11 0 -18 -46 -11 -81 13 -36 24 -109 36 -109 18z"/>
<path d="M22390 8222 c-62 -22 -217 -186 -265 -281 -15 -31 -16 -35 -1 -43 10
-5 15 -21 14 -43 -1 -41 2 -47 36 -49 19 -1 24 -6 22 -21 -2 -11 -6 -18 -9
-15 -3 3 -16 -4 -29 -16 -13 -11 -50 -37 -83 -57 -33 -21 -72 -47 -86 -59 -41
-35 -154 -216 -174 -278 -10 -30 -22 -60 -26 -66 -5 -6 -12 -38 -15 -71 -7
-65 4 -85 32 -62 13 11 18 10 25 -3 5 -10 16 -24 24 -32 20 -19 19 -33 -2 -45
-14 -8 -15 -12 -6 -22 15 -15 47 7 39 27 -3 7 -1 16 5 19 15 10 69 -5 66 -18
-1 -6 8 -13 20 -15 16 -2 36 10 70 43 26 26 67 61 92 78 46 31 115 92 210 185
30 28 55 52 56 52 2 0 36 33 77 73 85 82 228 217 279 263 19 17 49 52 67 77
l32 47 -59 124 c-37 76 -72 133 -91 149 -34 29 -124 51 -164 41 -14 -3 -32 -2
-39 4 -14 12 -95 22 -117 14z"/>
<path d="M3866 8163 c-1 -2 -43 -5 -92 -8 -264 -17 -386 -26 -449 -34 -38 -6
-110 -15 -160 -22 -49 -6 -106 -15 -125 -20 -19 -5 -51 -9 -71 -9 -20 0 -50
-7 -68 -16 -17 -8 -73 -19 -124 -24 -50 -5 -119 -16 -152 -24 -33 -8 -95 -22
-137 -31 -75 -16 -78 -17 -78 -45 l0 -28 288 -4 c263 -4 298 -7 413 -31 70
-15 140 -34 155 -42 16 -8 34 -15 40 -15 6 0 27 -16 47 -35 32 -31 37 -42 37
-82 0 -68 -42 -144 -123 -225 -61 -60 -218 -188 -232 -188 -2 0 -31 -19 -62
-42 -32 -24 -67 -49 -78 -56 -59 -37 -144 -92 -201 -129 -36 -24 -67 -43 -70
-43 -3 0 -25 -13 -48 -28 -22 -15 -48 -31 -56 -35 -8 -4 -33 -18 -55 -32 -22
-14 -55 -33 -72 -42 -18 -9 -33 -20 -33 -25 0 -4 -6 -8 -12 -8 -7 0 -24 -10
-38 -21 l-25 -21 50 6 c28 3 61 8 75 11 14 4 57 10 95 15 39 5 95 18 125 30
54 22 101 37 210 66 30 8 118 34 195 58 77 25 194 61 260 81 66 20 170 54 230
75 61 22 157 51 215 65 58 14 116 30 130 34 33 12 203 64 315 96 50 15 115 35
145 45 30 11 69 20 85 22 27 3 30 7 33 41 3 35 5 37 30 30 15 -3 40 -6 56 -6
83 0 126 184 70 302 -34 74 -117 195 -177 258 -52 55 -159 114 -232 129 -35 7
-323 13 -329 7z"/>
<path d="M20165 8050 c-11 -5 -39 -24 -62 -42 -23 -18 -77 -61 -120 -94 -43
-34 -107 -87 -142 -118 -36 -31 -69 -56 -74 -56 -5 0 -49 -39 -98 -87 -76 -73
-93 -86 -121 -85 -46 1 -50 -5 -28 -44 11 -19 20 -40 20 -46 0 -6 8 -20 17
-30 20 -22 43 -83 43 -115 0 -33 17 -37 25 -6 7 28 41 83 60 95 5 4 19 13 29
20 57 38 97 83 107 121 8 31 31 60 96 122 54 52 91 81 102 78 16 -4 61 51 61
75 0 6 11 14 24 18 28 7 74 62 100 120 28 66 12 97 -39 74z"/>
<path d="M2301 7949 c-63 -22 -80 -34 -33 -26 18 4 32 2 32 -3 0 -6 11 -10 24
-10 13 0 26 -5 28 -12 3 -7 11 -9 24 -4 18 8 18 8 -3 17 -25 9 -30 28 -11 47
15 15 5 14 -61 -9z"/>
<path d="M11701 7836 c-9 -11 -7 -32 9 -93 20 -73 48 -192 65 -273 5 -19 11
-107 15 -195 3 -88 7 -151 8 -140 1 11 7 61 12 112 5 50 14 166 19 258 11 186
1 252 -45 312 -27 35 -63 43 -83 19z"/>
<path d="M15332 7790 c0 -14 2 -19 5 -12 2 6 2 18 0 25 -3 6 -5 1 -5 -13z"/>
<path d="M17025 7764 c-14 -22 -15 -31 -5 -55 14 -33 14 -33 41 -19 20 11 27
50 9 50 -5 0 -10 11 -10 25 0 32 -13 32 -35 -1z"/>
<path d="M17135 7780 c-7 -12 2 -30 16 -30 12 0 12 27 0 35 -5 3 -12 1 -16 -5z"/>
<path d="M16977 7773 c-4 -3 -7 -11 -7 -17 0 -6 5 -5 12 2 6 6 9 14 7 17 -3 3
-9 2 -12 -2z"/>
<path d="M16870 7714 c0 -14 3 -14 15 -4 8 7 15 14 15 16 0 2 -7 4 -15 4 -8 0
-15 -7 -15 -16z"/>
<path d="M17090 7697 c0 -34 23 -52 41 -31 15 18 2 47 -25 52 -11 3 -16 -4
-16 -21z"/>
<path d="M16905 7676 c-31 -41 -62 -58 -44 -25 8 15 8 24 0 32 -8 8 -11 8 -11
-1 0 -7 -8 -25 -18 -40 -10 -15 -33 -48 -50 -74 -34 -49 -122 -288 -122 -331
0 -14 -5 -38 -10 -53 -6 -15 -8 -29 -5 -32 3 -3 45 32 93 79 48 47 121 113
162 146 41 33 96 83 122 111 l48 50 -22 54 c-25 62 -43 85 -80 104 -35 18 -33
19 -63 -20z"/>
<path d="M23100 7680 c0 -20 2 -22 10 -10 8 13 10 13 10 -2 0 -9 7 -21 16 -26
10 -5 17 -24 19 -44 2 -38 51 -117 73 -118 6 0 12 -4 12 -10 0 -20 55 -90 70
-87 11 2 13 15 11 55 -2 44 2 57 23 83 33 38 32 42 -3 56 -26 9 -32 8 -52 -13
-12 -13 -19 -24 -15 -24 5 0 3 -7 -4 -15 -11 -14 -15 -14 -32 2 -16 15 -21 15
-28 3 -7 -11 -11 -8 -20 14 -6 16 -13 33 -16 37 -3 5 2 6 10 3 8 -3 17 -12 20
-20 3 -8 12 -14 21 -14 25 0 17 39 -15 80 -16 21 -30 43 -30 50 0 6 -4 8 -10
5 -5 -3 -10 1 -10 9 0 11 -9 15 -30 13 -25 -2 -30 -6 -30 -27z"/>
<path d="M23320 7650 c0 -5 5 -10 10 -10 6 0 10 5 10 10 0 6 -4 10 -10 10 -5
0 -10 -4 -10 -10z"/>
<path d="M23111 7624 c0 -11 3 -14 6 -6 3 7 2 16 -1 19 -3 4 -6 -2 -5 -13z"/>
<path d="M23372 7619 c-16 -25 -10 -33 29 -35 18 -1 29 3 29 11 0 7 6 16 13
18 6 3 0 6 -15 6 -16 1 -28 6 -28 11 0 17 -14 11 -28 -11z"/>
<path d="M23415 7560 c-3 -5 1 -10 9 -10 9 0 16 5 16 10 0 6 -4 10 -9 10 -6 0
-13 -4 -16 -10z"/>
<path d="M16256 7511 c-3 -4 -30 -9 -61 -10 -30 0 -63 -5 -73 -11 -9 -5 -30
-14 -45 -20 -35 -12 -28 -26 15 -32 24 -4 53 4 105 29 68 32 97 53 74 53 -5 0
-12 -4 -15 -9z"/>
<path d="M25627 7458 c-14 -8 -16 -13 -6 -24 17 -20 39 -17 39 5 0 26 -11 32
-33 19z"/>
<path d="M13022 7435 c-19 -8 -51 -29 -72 -45 -61 -48 -250 -284 -324 -405
-20 -33 -52 -80 -70 -105 -18 -25 -60 -85 -93 -135 -34 -49 -80 -110 -103
-135 -23 -25 -48 -56 -55 -70 -7 -14 -42 -50 -77 -80 -34 -30 -66 -60 -70 -66
-41 -64 -300 -212 -565 -323 -61 -26 -100 -47 -97 -54 15 -40 100 -69 359
-125 217 -47 326 -60 475 -58 133 3 206 15 265 44 32 16 42 23 144 102 81 63
92 64 77 8 -6 -24 -13 -45 -17 -48 -3 -3 -9 -23 -13 -45 -5 -22 -16 -67 -26
-100 -42 -138 -78 -321 -100 -505 -6 -52 -15 -120 -20 -150 -5 -30 -14 -138
-20 -240 -5 -102 -15 -255 -21 -340 -13 -181 -5 -490 17 -630 22 -139 24 -152
31 -185 6 -30 6 -30 14 -6 5 12 11 57 13 100 3 66 8 84 40 135 20 33 36 65 36
71 0 6 13 26 29 45 15 19 38 55 51 80 13 25 43 77 68 115 25 39 60 93 78 121
18 28 58 75 88 105 31 30 56 59 56 65 0 17 97 91 156 120 42 21 61 25 93 19
35 -6 41 -11 60 -54 17 -39 26 -104 31 -203 0 -5 5 -8 12 -8 6 0 19 -7 29 -16
9 -8 38 -22 63 -29 l46 -14 14 47 c7 26 12 62 11 79 -3 27 -76 160 -144 263
-10 14 -30 61 -45 105 -41 114 -49 125 -95 125 -75 0 -166 -55 -220 -134 -16
-22 -39 -52 -51 -66 -146 -164 -251 -351 -357 -635 -25 -66 -47 -122 -49 -124
-3 -3 -10 1 -17 8 -8 8 -9 14 -1 19 6 4 15 84 22 192 7 102 16 201 21 220 54
201 125 397 199 547 70 143 108 212 147 268 22 33 56 87 74 120 48 86 80 133
128 190 24 27 43 53 43 57 0 5 12 25 28 47 53 73 77 156 87 308 7 110 46 243
77 263 12 8 65 49 118 90 150 119 378 280 395 280 18 0 72 58 90 96 28 59 7
96 -90 162 -44 31 -88 65 -97 78 -10 12 -41 37 -70 55 -29 18 -77 52 -106 75
-78 64 -273 193 -360 241 -145 79 -261 102 -340 68z"/>
<path d="M6273 7403 c9 -2 23 -2 30 0 6 3 -1 5 -18 5 -16 0 -22 -2 -12 -5z"/>
<path d="M25560 7395 c0 -8 2 -15 4 -15 2 0 6 7 10 15 3 8 1 15 -4 15 -6 0
-10 -7 -10 -15z"/>
<path d="M23300 7349 c0 -5 5 -7 10 -4 6 3 10 8 10 11 0 2 -4 4 -10 4 -5 0
-10 -5 -10 -11z"/>
<path d="M26510 7334 c-30 -14 -57 -28 -60 -32 -3 -4 -34 -22 -70 -39 -77 -38
-153 -57 -178 -44 -15 8 -68 15 -99 12 -7 -1 -17 -19 -24 -40 -10 -35 -9 -44
12 -82 13 -24 33 -57 45 -74 33 -46 70 -125 93 -196 45 -139 63 -427 41 -634
-5 -49 -12 -126 -15 -170 -3 -44 -13 -113 -21 -153 -8 -40 -12 -77 -10 -81 3
-4 1 -23 -4 -42 -11 -43 -19 -79 -31 -149 -6 -31 -18 -61 -28 -70 -10 -8 -21
-23 -24 -33 -6 -15 -3 -17 13 -12 17 5 19 2 15 -32 -13 -109 -14 -136 -2 -124
6 6 19 11 28 11 10 0 27 12 38 28 18 24 21 25 22 7 1 -11 1 -25 0 -32 -1 -6 3
-14 9 -18 5 -3 11 0 12 7 0 7 2 18 3 23 2 6 3 17 4 26 0 8 17 33 37 55 43 46
220 265 252 311 40 57 59 131 60 233 0 52 5 126 11 164 6 44 6 76 0 87 -5 10
-9 39 -9 66 -1 90 -36 272 -69 356 -31 80 1 263 53 305 21 16 22 22 15 72 -4
30 -8 107 -9 170 -1 116 -10 150 -41 150 -8 0 -39 -12 -69 -26z"/>
<path d="M17125 7318 c-10 -31 -45 -178 -45 -192 0 -31 27 -15 45 27 9 23 22
51 27 63 13 27 6 106 -9 112 -7 2 -15 -2 -18 -10z"/>
<path d="M0 6048 c0 -702 3 -907 12 -910 7 -3 13 -24 14 -49 1 -24 8 -70 15
-103 10 -47 10 -85 1 -195 -7 -75 -12 -153 -12 -173 0 -37 1 -38 40 -38 26 0
43 6 50 18 10 15 11 15 5 -3 -20 -61 -49 -132 -58 -144 -6 -7 -12 -20 -13 -28
-5 -29 -14 -44 -24 -38 -14 9 -18 -29 -6 -57 5 -10 2 -26 -8 -40 -13 -19 -16
-54 -16 -203 l1 -180 40 105 c21 58 43 114 49 125 5 11 32 99 59 196 27 97 59
202 71 235 94 262 161 463 236 709 31 99 59 182 63 185 23 14 115 332 105 362
-6 21 -7 20 -22 -8 -26 -49 -111 -243 -148 -339 -19 -49 -43 -110 -53 -135
-10 -25 -38 -103 -61 -175 -24 -71 -46 -134 -50 -140 -4 -5 -22 -49 -39 -97
-36 -104 -72 -190 -77 -185 -7 7 92 285 108 304 16 19 48 135 48 173 0 19 4
51 10 70 5 19 11 91 14 160 10 227 42 378 102 483 14 26 21 51 18 67 -3 21 -3
22 4 5 9 -19 9 -19 20 2 8 14 10 61 8 135 l-4 114 -49 77 c-70 112 -95 167
-75 167 5 0 92 -59 193 -131 168 -120 228 -159 244 -159 19 0 -13 94 -72 205
-67 126 -141 195 -318 297 -85 49 -198 121 -254 163 -58 43 -66 37 -87 -63
-15 -73 -42 -142 -56 -142 -11 0 -11 5 -9 140 1 65 -3 121 -8 130 -7 10 -11
-269 -11 -892z"/>
<path d="M20350 6932 c0 -10 -7 -28 -16 -40 -8 -12 -23 -46 -33 -75 -11 -30
-24 -63 -31 -74 -11 -17 -10 -23 7 -40 12 -12 24 -42 28 -69 4 -27 11 -56 15
-64 9 -16 20 -69 24 -110 2 -21 9 -26 37 -28 l35 -3 2 58 c1 32 6 69 12 83 8
21 27 101 56 228 7 34 -33 110 -70 133 -39 24 -66 24 -66 1z"/>
<path d="M17565 6900 c-43 -29 -124 -78 -194 -117 -70 -40 -151 -64 -237 -70
-75 -5 -82 -4 -102 18 -17 17 -25 20 -34 11 -28 -28 31 -272 95 -397 23 -44
46 -105 119 -305 26 -69 38 -83 38 -43 0 17 6 35 13 41 7 6 26 38 42 72 16 33
32 60 35 60 11 0 28 -42 35 -82 3 -23 2 -38 -4 -38 -6 0 -35 -20 -65 -45 -31
-25 -60 -45 -66 -45 -5 0 -10 -4 -10 -9 0 -6 -10 -21 -23 -35 -15 -16 -35 -66
-55 -139 -37 -136 -87 -229 -135 -251 -18 -8 -62 -16 -98 -19 -36 -2 -77 -12
-90 -20 -40 -27 -150 -47 -240 -44 -98 2 -131 -9 -174 -61 -60 -71 -27 -183
62 -210 50 -15 505 -17 553 -3 54 17 103 13 186 -14 42 -14 117 -30 167 -36
51 -6 99 -17 107 -25 23 -19 145 -37 210 -31 32 4 73 14 91 23 19 10 48 24 64
32 17 9 64 47 104 86 112 106 133 128 171 175 19 24 51 56 72 72 46 33 123
125 133 159 4 14 35 79 69 145 124 242 140 290 157 471 14 152 9 226 -16 254
-18 20 -18 20 -54 -2 -49 -30 -55 -39 -98 -148 -44 -111 -65 -152 -78 -154
-13 -1 -58 92 -80 164 -9 30 -20 62 -24 69 -13 25 -62 33 -121 21 -73 -15
-174 -58 -207 -89 -10 -9 -45 -36 -78 -60 -33 -24 -64 -49 -70 -56 -15 -18
-71 -45 -95 -45 -15 0 -26 12 -39 43 -10 23 -28 51 -40 61 -42 38 -50 128 -31
344 7 81 17 130 35 172 14 33 25 68 25 78 0 10 5 23 12 30 23 23 2 19 -37 -8z"/>
<path d="M20852 6777 c-112 -100 -129 -123 -155 -210 -18 -55 -16 -84 4 -71 5
3 16 1 24 -6 33 -27 146 56 196 146 38 66 63 78 116 54 31 -14 44 -27 53 -54
6 -20 16 -36 20 -36 5 0 7 -7 4 -15 -4 -9 3 -19 20 -26 14 -7 26 -16 26 -21 0
-4 6 -8 13 -8 6 0 20 -16 29 -35 15 -31 16 -35 2 -43 -12 -7 -7 -15 28 -44 24
-20 70 -61 102 -92 83 -79 114 -96 174 -96 45 0 60 6 145 64 52 35 101 66 108
69 8 3 2 6 -13 6 -38 1 -43 18 -11 35 15 8 39 25 51 39 34 37 22 63 -44 93
-30 14 -57 31 -60 39 -3 8 -20 17 -37 21 -17 3 -38 10 -47 15 -8 4 -42 17 -75
29 -33 12 -77 32 -97 46 -21 13 -41 24 -44 24 -4 0 -22 11 -40 25 -19 14 -46
25 -64 25 -28 0 -31 -3 -25 -22 4 -13 32 -49 63 -80 31 -32 53 -58 49 -58 -11
0 -129 59 -146 73 -7 6 -24 28 -37 49 -22 34 -28 37 -76 40 -29 2 -52 7 -50
13 2 6 14 9 28 8 13 -1 24 2 24 8 0 5 -7 9 -15 9 -8 0 -15 7 -15 16 0 14 -7
16 -37 11 -21 -3 -48 -9 -60 -13 -21 -6 -22 -4 -16 30 3 20 2 36 -3 36 -5 0
-55 -42 -112 -93z"/>
<path d="M21507 6819 c-20 -22 -37 -45 -37 -50 0 -12 27 -12 35 1 3 6 17 10
30 10 32 0 37 12 22 49 l-13 31 -37 -41z"/>
<path d="M21155 6800 c-3 -6 0 -13 9 -16 22 -8 59 -1 64 14 5 15 -64 17 -73 2z"/>
<path d="M19181 6457 c-54 -22 -92 -47 -141 -94 -37 -35 -83 -75 -101 -89 -41
-30 -61 -51 -119 -129 -25 -33 -47 -62 -50 -65 -15 -13 -59 -100 -70 -137 -10
-33 -22 -48 -54 -67 -51 -30 -166 -134 -166 -149 1 -12 83 -67 101 -67 6 0 31
-9 57 -19 26 -11 103 -41 172 -67 69 -26 134 -53 145 -60 26 -17 139 -44 185
-44 56 0 62 -9 43 -61 -9 -24 -33 -64 -53 -89 -20 -25 -42 -55 -48 -67 -29
-54 -8 -220 35 -281 10 -13 23 -32 28 -41 45 -75 95 -110 165 -114 178 -13
260 119 260 418 0 162 -33 292 -91 366 -51 65 -279 247 -369 296 -28 15 -50
34 -50 43 0 38 55 149 99 198 94 108 112 134 100 148 -12 15 -4 32 46 103 17
25 35 55 39 65 16 45 -59 47 -163 3z"/>
<path d="M6958 6272 c-66 -136 -86 -170 -152 -272 -27 -41 -62 -97 -79 -125
-45 -77 -105 -154 -169 -218 l-58 -57 -108 6 c-296 17 -415 -53 -496 -289 -31
-90 -62 -222 -71 -307 -4 -36 -9 -74 -11 -85 -2 -11 -7 -101 -10 -200 -11
-325 20 -828 55 -895 4 -8 16 -42 26 -75 14 -43 32 -73 66 -108 l48 -50 78 5
c43 3 93 13 113 23 19 9 54 27 78 38 180 91 365 448 496 960 18 73 39 161 46
197 6 36 16 85 21 110 11 56 11 59 48 310 17 113 37 241 45 285 8 44 20 143
26 220 10 121 22 196 46 280 23 80 42 328 26 352 -4 7 -30 -36 -64 -105z"/>
<path d="M15306 6301 c-15 -16 -63 -233 -81 -366 -10 -67 -41 -158 -78 -223
-28 -51 -29 -55 -18 -109 19 -95 14 -161 -18 -238 -15 -38 -34 -95 -42 -125
-7 -30 -23 -71 -34 -90 -22 -36 -60 -132 -91 -230 -10 -30 -24 -66 -31 -80 -7
-14 -13 -32 -13 -40 0 -8 -7 -28 -15 -44 -27 -51 -47 -139 -60 -264 -11 -104
-18 -130 -41 -165 -33 -52 -68 -83 -116 -103 -21 -9 -38 -22 -38 -30 0 -18
128 -7 152 14 12 10 29 13 53 9 29 -5 35 -3 35 12 0 9 7 26 16 37 13 16 15 16
10 2 -3 -10 -1 -20 3 -22 5 -3 5 -25 0 -48 -12 -62 -10 -77 5 -43 7 17 15 62
19 100 7 94 22 125 59 125 17 0 28 5 28 14 0 18 74 164 97 190 22 25 43 71 43
92 0 8 -11 30 -24 47 -42 55 -59 146 -54 282 5 131 11 146 119 339 42 74 48
115 28 191 -28 109 -30 127 -11 158 21 36 102 68 159 61 21 -2 59 1 85 7 37 9
49 16 59 41 6 16 24 42 39 56 41 41 65 163 38 190 -7 7 -20 12 -30 12 -21 0
-108 78 -108 96 0 7 -7 14 -15 18 -8 3 -15 11 -15 18 0 7 -11 25 -25 40 -14
15 -25 31 -25 35 0 4 -11 18 -24 30 -22 22 -24 22 -40 4z"/>
<path d="M1394 6241 c-123 -62 -310 -179 -300 -188 6 -7 96 38 96 49 0 5 5 6
10 3 6 -4 9 -2 8 4 -2 7 51 41 117 78 192 106 221 123 210 121 -5 0 -69 -30
-141 -67z"/>
<path d="M20997 6262 c-29 -18 -67 -101 -67 -150 -1 -15 -7 -38 -15 -52 -8
-14 -14 -51 -15 -83 0 -51 3 -60 20 -64 11 -3 20 -8 20 -12 0 -12 -58 -187
-84 -255 -14 -38 -33 -99 -42 -135 -8 -36 -18 -75 -20 -86 -5 -20 -56 -362
-68 -460 -4 -27 -11 -66 -17 -86 -5 -21 -13 -57 -18 -80 -5 -24 -21 -89 -35
-144 -14 -55 -26 -106 -26 -115 0 -8 -20 -54 -45 -102 -37 -72 -48 -108 -63
-195 -18 -113 -21 -202 -8 -265 10 -56 36 -52 139 22 26 18 47 37 47 41 0 4
-13 20 -28 36 -36 37 -53 79 -49 126 8 97 95 78 116 -26 6 -26 13 -34 42 -41
20 -5 49 -6 64 -2 38 10 169 148 201 212 13 28 43 68 65 90 l41 39 -7 -50 -6
-50 28 32 c89 100 185 232 234 323 13 25 30 51 36 58 7 7 18 32 24 55 6 23 24
80 40 128 15 47 33 110 40 140 6 29 17 72 24 94 50 155 67 626 27 775 -19 75
-19 75 -51 72 -18 -1 -43 -10 -55 -19 -24 -18 -56 -92 -77 -173 -6 -25 -15
-50 -21 -57 -5 -7 -7 -17 -3 -22 3 -6 2 -28 -4 -48 -22 -86 -33 -153 -39 -233
-9 -115 -8 -241 3 -264 6 -14 5 -18 -6 -14 -39 12 -108 208 -73 208 8 0 14 5
14 10 0 6 -4 10 -8 10 -5 0 -9 14 -9 30 0 17 5 30 10 30 5 0 4 7 -3 15 -13 15
-12 32 5 195 7 65 18 152 21 175 10 57 2 208 -12 242 -32 77 -88 116 -182 127
-29 4 -58 9 -65 11 -6 3 -24 -3 -40 -13z"/>
<path d="M3570 6225 c-131 -30 -291 -92 -490 -191 -80 -39 -162 -79 -183 -89
-49 -23 -75 -44 -162 -130 -125 -123 -180 -250 -222 -510 -9 -57 -4 -209 7
-213 6 -2 7 -14 4 -27 -8 -34 23 -144 52 -182 33 -43 67 -60 141 -68 58 -7 65
-5 144 35 46 23 110 60 141 83 78 57 212 160 218 167 3 3 55 46 115 95 125
102 244 200 353 294 62 53 77 62 86 50 10 -13 195 -166 304 -251 123 -97 132
-101 132 -67 -1 25 -10 70 -30 149 -6 25 -13 52 -16 60 -83 327 -118 425 -213
594 -54 98 -75 125 -118 157 -29 22 -59 39 -67 39 -8 0 -18 5 -21 10 -8 14
-108 11 -175 -5z"/>
<path d="M14315 6195 c-30 -36 -25 -50 17 -53 32 -3 40 1 49 22 9 20 9 29 -1
41 -18 21 -42 18 -65 -10z"/>
<path d="M24803 6147 c-36 -16 -41 -57 -8 -57 16 0 49 56 37 63 -4 3 -17 0
-29 -6z"/>
<path d="M14979 6115 c-62 -17 -103 -42 -123 -76 -10 -16 -22 -29 -28 -29 -6
0 -29 -15 -52 -33 -23 -18 -63 -46 -90 -61 -27 -16 -81 -63 -120 -105 -39 -42
-112 -117 -163 -168 -51 -51 -109 -118 -130 -150 -21 -32 -41 -60 -44 -63 -4
-3 -9 -15 -13 -27 -4 -13 -12 -23 -17 -23 -5 0 -9 -5 -9 -11 0 -6 -14 -27 -31
-47 -17 -20 -38 -52 -46 -71 -8 -20 -26 -61 -40 -91 -13 -30 -29 -64 -33 -75
-55 -126 -102 -414 -120 -731 -13 -235 -9 -264 40 -332 16 -23 30 -46 30 -52
0 -5 5 -10 10 -10 6 0 10 4 10 9 0 5 10 11 22 13 14 2 28 15 37 33 7 17 24 41
37 55 15 17 25 43 30 80 4 30 10 60 14 65 4 6 13 88 20 184 12 166 8 306 -9
340 -5 9 -11 47 -14 84 l-6 68 35 -42 c59 -71 113 -171 126 -234 14 -72 1
-179 -41 -329 -36 -126 -71 -273 -72 -306 -2 -37 45 -130 85 -168 23 -22 33
-39 29 -50 -5 -14 -3 -15 7 -5 10 9 19 9 41 -3 16 -8 32 -14 36 -13 5 1 14 -9
20 -22 l13 -24 0 25 c0 23 1 23 17 8 15 -16 18 -16 43 2 15 11 33 33 40 50 7
16 16 30 20 30 4 0 16 19 26 43 16 36 18 71 19 237 0 133 4 201 12 215 7 11
19 44 28 73 9 29 27 65 39 80 26 31 59 128 76 222 6 36 15 74 20 85 5 11 11
40 14 65 13 94 48 271 86 425 21 88 41 174 45 190 3 17 26 70 51 118 24 49 44
99 44 112 0 14 9 42 20 63 20 39 31 114 45 305 7 99 8 98 -86 72z"/>
<path d="M21315 6120 c3 -5 11 -10 16 -10 6 0 7 5 4 10 -3 6 -11 10 -16 10 -6
0 -7 -4 -4 -10z"/>
<path d="M10591 5968 c26 -51 210 -195 283 -223 61 -24 149 -16 219 19 56 28
243 173 241 187 -1 5 -2 15 -2 23 -2 13 -20 12 -122 -10 -89 -18 -181 -25
-290 -21 -126 4 -136 6 -238 32 -31 8 -67 15 -79 15 -21 0 -23 -2 -12 -22z"/>
<path d="M493 5915 c0 -22 2 -30 4 -17 2 12 2 30 0 40 -3 9 -5 -1 -4 -23z"/>
<path d="M21397 5943 c-4 -3 -7 -11 -7 -17 0 -6 5 -5 12 2 6 6 9 14 7 17 -3 3
-9 2 -12 -2z"/>
<path d="M21357 5857 c-11 -29 -9 -43 4 -30 6 6 9 19 7 29 -3 18 -4 18 -11 1z"/>
<path d="M13775 5843 c-61 -12 -70 -23 -129 -144 l-58 -121 6 -147 c3 -80 10
-171 15 -201 5 -30 15 -94 22 -142 7 -49 16 -88 20 -88 3 0 9 31 11 70 3 38
10 75 16 82 6 7 20 42 32 78 20 59 66 173 91 225 50 106 62 231 33 321 -19 58
-32 72 -59 67z"/>
<path d="M437 5788 c-17 -25 -62 -197 -54 -204 3 -3 22 45 42 106 37 110 41
144 12 98z"/>
<path d="M9934 5778 c-62 -67 -118 -163 -189 -323 -10 -22 -104 -213 -208
-425 -179 -365 -220 -449 -315 -650 -68 -145 -236 -496 -342 -715 -101 -209
-103 -214 -138 -325 -57 -179 -91 -466 -71 -589 17 -105 61 -237 84 -253 20
-15 92 -7 150 17 33 14 74 25 92 25 76 0 192 -79 318 -216 91 -100 206 -211
242 -235 21 -14 68 -55 202 -178 14 -13 36 -30 49 -39 21 -14 25 -14 44 6 l21
20 -21 37 -22 36 26 9 c14 6 29 10 35 10 5 0 2 18 -7 39 -14 36 -14 42 1 72
16 31 16 33 0 45 -12 9 -16 21 -11 37 3 15 1 29 -7 36 -25 20 -93 39 -157 42
l-65 4 4 -40 c3 -35 1 -38 -14 -25 -16 14 -88 130 -83 135 2 2 19 11 38 22 36
19 75 44 197 122 39 25 104 66 143 91 83 51 251 177 394 295 53 44 123 100
155 125 163 125 381 306 381 317 0 6 -13 22 -29 36 l-29 24 68 71 c45 48 75
72 90 72 20 0 22 -4 17 -35 -3 -19 -2 -35 2 -35 5 0 37 13 72 28 35 16 96 37
134 47 39 10 120 39 180 64 199 84 309 110 500 118 156 7 269 -2 288 -22 7 -7
43 -14 80 -17 61 -4 70 -7 99 -39 18 -20 54 -45 80 -57 41 -18 48 -25 58 -64
24 -94 55 -155 137 -263 83 -112 97 -166 72 -274 -5 -24 -8 -50 -5 -57 8 -21
65 3 109 44 32 31 37 42 37 79 0 47 -12 71 -73 145 -21 26 -56 89 -77 140 -28
66 -51 103 -78 128 -75 68 -112 167 -141 375 -29 203 -50 252 -119 282 -28 12
-43 12 -88 2 -30 -7 -57 -16 -60 -20 -3 -5 -18 -6 -33 -3 -18 4 -52 -2 -88
-16 -32 -12 -94 -32 -138 -45 -104 -31 -344 -119 -400 -146 -11 -5 -49 -18
-85 -28 -36 -11 -81 -26 -100 -35 -61 -29 -227 -130 -267 -163 -21 -17 -72
-59 -113 -93 -41 -35 -99 -89 -128 -121 -30 -33 -60 -59 -68 -59 -50 0 -236
113 -313 190 -37 37 -58 50 -79 50 -49 0 -132 -30 -292 -105 -244 -114 -224
-108 -293 -100 -34 4 -72 13 -84 21 -59 37 -50 171 37 529 42 177 62 273 88
435 4 25 6 183 5 353 l-3 307 24 0 c44 0 82 -44 108 -123 33 -103 31 -303 -5
-512 -38 -225 -41 -277 -23 -375 29 -148 62 -186 178 -197 115 -10 288 55 485
183 102 66 151 83 266 91 l92 6 -115 -78 c-63 -43 -145 -102 -182 -131 -151
-121 -149 -171 10 -326 69 -68 96 -88 126 -94 63 -11 87 3 107 66 9 30 36 114
59 185 23 72 42 141 42 153 0 13 -9 37 -21 53 -26 35 -19 43 78 104 45 28 107
72 122 85 10 8 41 32 71 53 172 123 398 300 478 372 101 92 375 370 405 410
17 22 56 65 87 97 31 32 60 67 63 78 3 11 10 20 15 20 16 0 37 53 38 93 1 20
6 46 12 58 19 35 6 50 -30 37 -18 -6 -59 -8 -92 -5 -49 4 -90 -2 -231 -38
-223 -57 -575 -178 -778 -268 -130 -58 -307 -107 -388 -107 -20 0 -61 7 -91
16 -92 27 -162 114 -295 369 -26 50 -57 106 -68 125 -35 57 -173 227 -214 262
-21 18 -45 39 -53 47 -22 21 -92 51 -121 51 -16 0 -36 -12 -55 -32z"/>
<path d="M21323 5745 c-9 -10 -10 -16 -2 -21 8 -5 6 -10 -5 -16 -9 -5 -16 -17
-16 -26 0 -15 2 -15 10 -2 7 11 10 11 10 2 0 -33 17 1 18 38 2 45 2 45 -15 25z"/>
<path d="M2245 5603 c-60 -61 -155 -189 -155 -210 0 -5 -13 -25 -29 -44 -51
-62 -173 -336 -196 -439 -4 -19 -11 -41 -16 -50 -22 -38 -67 -283 -74 -395
-11 -217 -15 -270 -21 -288 -3 -10 -1 -23 4 -30 5 -7 12 -69 14 -139 3 -70 9
-133 15 -140 6 -7 13 -32 17 -56 15 -98 99 -232 167 -267 63 -33 115 -36 222
-15 123 25 160 35 212 60 22 11 121 50 220 86 99 37 202 78 229 91 27 14 106
44 175 68 69 23 179 63 243 89 208 82 334 103 429 71 97 -33 166 -141 189
-295 15 -100 20 -123 55 -215 15 -38 35 -99 46 -135 24 -83 56 -188 113 -371
25 -81 46 -155 46 -164 0 -9 5 -15 12 -13 7 3 22 -16 34 -41 23 -50 96 -131
117 -131 8 0 13 -10 13 -21 -1 -12 5 -24 12 -26 8 -3 10 1 5 13 -6 15 -1 17
51 11 71 -7 86 -2 87 32 1 17 3 20 6 9 2 -10 8 -18 13 -18 29 0 120 166 145
265 26 102 36 228 42 565 6 367 -4 523 -37 574 -11 17 -29 51 -40 76 -12 25
-25 52 -30 60 -5 8 -21 41 -36 72 -25 53 -48 80 -169 187 -75 67 -202 131
-260 131 -29 0 -13 25 44 71 96 78 169 210 124 225 -10 4 -31 19 -48 34 -55
50 -199 141 -313 200 -77 39 -84 41 -101 26 -10 -9 -21 -16 -25 -16 -11 0
-104 -68 -141 -103 -16 -15 -43 -35 -58 -43 -28 -15 -63 -42 -99 -76 -10 -10
-21 -18 -25 -18 -3 0 -13 -7 -22 -15 -35 -33 -79 -65 -90 -65 -6 0 -11 -6 -11
-14 0 -8 -10 -18 -22 -22 -25 -8 -84 -64 -81 -76 2 -4 -7 -8 -20 -8 -20 0 -41
-15 -117 -82 -14 -13 -43 -36 -65 -52 -22 -16 -62 -49 -90 -72 -27 -24 -71
-58 -98 -76 -26 -18 -75 -54 -110 -79 -120 -89 -274 -159 -346 -159 -36 0
-102 27 -131 52 -114 98 -180 334 -167 593 8 155 53 370 113 540 47 135 114
334 114 341 0 15 -26 -5 -85 -63z m-366 -772 c-6 -17 -17 -35 -24 -41 -11 -9
-10 -1 3 29 19 47 36 56 21 12z"/>
<path d="M20342 5649 c3 -22 9 -25 68 -30 36 -3 71 -9 78 -13 8 -5 12 0 12 13
0 22 -33 35 -113 47 -47 6 -49 6 -45 -17z"/>
<path d="M21320 5639 c0 -5 5 -7 10 -4 6 3 10 8 10 11 0 2 -4 4 -10 4 -5 0
-10 -5 -10 -11z"/>
<path d="M15979 5548 c-15 -39 -133 -158 -156 -158 -8 0 -28 9 -44 21 -20 14
-38 19 -53 15 -22 -5 -23 -10 -20 -63 4 -47 0 -62 -20 -92 -34 -50 -40 -94
-22 -179 19 -87 20 -112 5 -112 -6 0 -18 8 -27 19 -10 10 -36 23 -59 30 -33 9
-48 20 -65 51 -22 38 -53 60 -83 60 -19 0 -19 -27 -1 -60 7 -14 29 -55 49 -92
21 -37 37 -72 37 -79 0 -6 15 -37 34 -68 19 -31 37 -70 41 -88 15 -73 -56
-212 -123 -240 -53 -22 -127 -4 -172 42 -19 19 -42 35 -51 35 -10 0 -20 4 -24
10 -21 35 -126 -82 -144 -161 -10 -43 11 -191 42 -306 21 -75 21 -75 85 -45
51 23 73 26 196 30 136 5 184 0 356 -34 46 -10 96 -13 130 -9 57 6 110 23 110
34 -1 3 -7 31 -14 61 -7 30 -14 111 -15 180 -1 68 -6 131 -11 140 -5 8 -28 36
-53 63 -29 31 -49 63 -56 92 -22 86 -51 341 -51 443 l0 102 38 43 c51 56 111
139 151 209 24 42 31 67 29 95 -4 47 -22 53 -39 11z"/>
<path d="M26135 5471 c-3 -5 -1 -12 5 -16 5 -3 10 1 10 9 0 18 -6 21 -15 7z"/>
<path d="M7715 5443 c-76 -40 -89 -66 -120 -241 -13 -75 -31 -173 -39 -217 -9
-44 -16 -130 -16 -192 0 -110 0 -112 39 -190 26 -49 48 -116 63 -183 20 -93
23 -131 22 -330 0 -206 -2 -234 -26 -335 -14 -60 -33 -123 -42 -139 -11 -22
-12 -33 -4 -43 17 -21 -6 -15 -30 7 -52 49 -108 136 -201 313 -55 105 -98 142
-131 112 -49 -44 -97 -165 -120 -301 -15 -83 -8 -419 9 -474 6 -19 22 -78 37
-130 30 -107 52 -166 97 -260 64 -131 107 -180 159 -180 76 0 183 241 293 660
60 232 69 263 109 410 39 140 102 367 116 420 5 19 17 73 26 120 22 112 31
528 15 655 -22 171 -51 299 -81 361 -17 34 -28 69 -24 77 8 22 -13 55 -49 77
-38 24 -62 24 -102 3z"/>
<path d="M20543 5312 c-81 -83 -85 -84 -282 -102 -62 -6 -122 -15 -132 -21
-17 -8 -19 -22 -19 -114 0 -106 -9 -143 -43 -182 -19 -21 -19 -24 -3 -57 9
-19 46 -61 82 -93 36 -32 78 -75 92 -95 15 -21 54 -76 86 -123 33 -47 63 -85
67 -85 23 0 68 54 78 95 17 67 -6 154 -44 168 -19 8 -19 37 0 63 21 27 19 32
-17 47 -18 8 -39 21 -47 30 -15 18 -13 19 41 31 29 7 59 35 111 107 27 36 37
64 51 142 10 53 24 117 32 143 16 54 18 94 5 94 -6 0 -32 -22 -58 -48z m-146
-764 c-3 -8 -6 -5 -6 6 -1 11 2 17 5 13 3 -3 4 -12 1 -19z"/>
<path d="M26210 5335 c-7 -9 -15 -13 -18 -11 -2 3 -13 -5 -24 -17 -11 -12 -16
-16 -12 -8 4 9 3 12 -4 7 -5 -3 -13 -25 -17 -48 -4 -22 -14 -56 -21 -74 -16
-39 -18 -58 -5 -49 6 3 3 -15 -5 -40 -9 -25 -19 -45 -24 -45 -4 0 -10 -17 -13
-37 -4 -21 -16 -56 -27 -78 -11 -21 -20 -45 -20 -53 0 -7 -7 -27 -16 -43 -8
-17 -13 -33 -10 -36 8 -9 98 188 92 203 -3 8 -2 13 3 10 10 -7 44 53 71 129
13 33 33 72 46 86 14 14 21 28 17 32 -3 4 -1 7 5 7 7 0 12 16 12 40 0 42 -9
50 -30 25z"/>
<path d="M25360 5175 c0 -2 14 -39 31 -82 18 -43 33 -85 34 -93 1 -8 10 -33
20 -54 21 -49 48 -174 42 -198 -3 -9 3 -24 13 -33 10 -9 21 -29 25 -43 4 -15
14 -35 22 -44 10 -12 14 -27 10 -47 -5 -24 -2 -31 13 -36 11 -4 20 -13 20 -21
0 -8 5 -14 10 -14 6 0 10 -9 10 -20 0 -11 6 -20 14 -20 8 0 18 -5 22 -12 4 -7
3 -8 -4 -4 -7 4 -12 1 -12 -7 0 -8 6 -17 14 -20 8 -3 17 -19 21 -36 3 -16 12
-35 20 -41 15 -13 24 -1 44 61 6 19 32 66 56 104 51 77 53 85 25 85 -11 0 -20
5 -20 10 0 6 6 10 14 10 8 0 16 3 19 8 2 4 2 1 0 -6 -1 -8 2 -12 9 -10 6 2 22
30 36 61 27 63 21 87 -24 87 -12 0 -26 5 -29 10 -3 6 -16 10 -29 10 -37 0
-117 48 -169 101 -49 50 -65 57 -83 39 -19 -19 -43 1 -59 48 -23 66 -97 212
-107 212 -4 0 -8 -2 -8 -5z m490 -506 c-7 -11 -14 -18 -17 -15 -3 3 0 12 7 21
18 21 23 19 10 -6z"/>
<path d="M21855 5010 c-4 -25 -9 -95 -9 -157 -1 -82 -5 -115 -15 -125 -8 -8
-11 -8 -7 -1 3 6 2 14 -3 18 -14 8 -34 -33 -26 -53 13 -32 13 -76 0 -87 -8 -5
-16 -27 -19 -49 -8 -50 -12 -56 -42 -56 -22 0 -23 -2 -12 -20 10 -16 10 -24 0
-40 -19 -31 -15 -68 8 -75 12 -4 20 -15 20 -27 0 -20 1 -20 19 -4 18 17 19 16
26 -13 8 -35 -1 -55 -21 -47 -17 6 -34 -23 -34 -58 0 -30 6 -34 63 -42 l45 -6
21 43 c12 24 17 45 12 49 -14 8 -8 80 6 80 6 0 15 15 18 33 4 17 13 39 19 47
7 8 13 42 15 75 2 33 7 67 12 76 16 30 4 113 -46 314 -15 61 -30 124 -34 140
-7 29 -7 29 -16 -15z m-14 -543 c-8 -8 -11 -7 -11 4 0 20 13 34 18 19 3 -7 -1
-17 -7 -23z m-61 -91 c0 -3 -4 -8 -10 -11 -5 -3 -10 -1 -10 4 0 6 5 11 10 11
6 0 10 -2 10 -4z"/>
<path d="M25660 4875 c7 -8 22 -15 33 -15 20 0 20 0 1 15 -27 20 -51 20 -34 0z"/>
<path d="M26822 4837 c-8 -10 -6 -16 9 -25 10 -7 19 -21 19 -31 0 -47 131 -64
158 -20 10 16 8 19 -26 24 -20 3 -45 10 -54 16 -10 5 -25 9 -33 9 -8 0 -23 9
-32 20 -20 23 -27 25 -41 7z"/>
<path d="M1167 4743 c-49 -48 -102 -109 -118 -137 -27 -47 -29 -59 -29 -154 0
-94 4 -114 40 -225 37 -110 40 -128 34 -187 -3 -36 -9 -69 -12 -75 -4 -5 -8
-19 -9 -30 -19 -128 -117 -269 -266 -383 -20 -15 -41 -39 -47 -54 -7 -15 -30
-38 -52 -53 -98 -65 -128 -114 -128 -213 0 -87 21 -166 131 -496 79 -235 135
-376 166 -419 5 -6 20 -39 33 -72 49 -122 107 -203 197 -272 37 -28 58 -22 89
24 17 25 19 53 23 268 3 232 -3 342 -36 695 -16 174 -16 172 -26 235 -3 22 -9
74 -12 115 -2 41 -10 143 -16 225 -19 255 4 650 45 780 13 39 28 98 35 132 12
65 42 160 85 276 35 92 34 107 -6 107 -28 0 -47 -14 -121 -87z"/>
<path d="M17887 4796 c-53 -18 -100 -36 -104 -39 -3 -4 -14 -7 -24 -7 -9 0
-38 -9 -64 -20 -34 -14 -45 -24 -41 -35 16 -40 16 -48 0 -22 -22 32 -30 33
-69 7 -16 -11 -39 -20 -49 -20 -11 0 -51 -15 -90 -34 -140 -66 -215 -89 -292
-88 -65 1 -74 -2 -97 -26 -14 -15 -38 -52 -52 -82 -52 -110 -62 -120 -191
-182 -105 -51 -136 -78 -149 -131 -8 -32 25 -89 78 -137 28 -25 30 -30 19 -54
-10 -22 -6 -41 24 -133 19 -60 44 -120 54 -135 11 -15 20 -30 20 -34 0 -3 13
-23 29 -43 15 -20 38 -54 49 -77 22 -43 35 -121 22 -129 -4 -2 -10 -19 -14
-36 -3 -18 -19 -53 -34 -78 -16 -25 -37 -70 -47 -98 -11 -29 -23 -53 -27 -53
-25 0 6 -81 44 -117 33 -31 66 -41 160 -49 82 -6 85 -6 208 41 153 58 187 73
224 99 17 12 53 35 82 51 29 17 81 50 116 74 62 43 181 91 226 91 12 0 30 -4
40 -9 9 -5 38 -17 64 -26 92 -32 110 -92 55 -178 -19 -29 -58 -90 -87 -137
-29 -47 -72 -107 -95 -135 -62 -73 -80 -115 -52 -115 7 0 24 -8 37 -17 39 -28
179 -73 226 -73 24 0 74 -12 111 -26 37 -14 84 -32 103 -39 19 -7 48 -25 63
-40 33 -32 91 -150 82 -165 -10 -16 -33 -12 -44 7 -17 32 -24 5 -8 -34 16 -40
73 -82 114 -83 32 0 124 38 151 63 13 12 32 38 41 57 9 19 48 86 85 148 37 62
81 149 97 195 16 45 34 91 39 102 16 36 68 239 80 312 6 39 12 196 13 350 l2
278 -33 52 c-25 39 -37 74 -46 133 -8 44 -16 83 -19 87 -14 13 -37 -21 -48
-72 -7 -30 -16 -52 -21 -49 -5 3 -6 -6 -2 -19 8 -34 -5 -75 -17 -56 -6 10 -8
4 -7 -16 1 -16 -4 -65 -10 -108 -7 -43 -12 -93 -11 -110 0 -28 2 -26 19 23
l19 55 -6 -110 c-6 -132 -11 -270 -12 -383 -1 -79 -2 -83 -27 -94 -24 -11 -29
-9 -50 15 -13 16 -24 40 -24 54 0 14 -6 39 -14 56 -8 18 -17 46 -19 62 -3 17
-11 50 -18 75 -10 36 -10 74 0 193 6 81 16 159 21 172 5 13 11 47 14 75 2 29
8 55 12 58 4 4 4 -1 1 -11 -4 -11 -3 -16 3 -12 13 8 13 35 0 35 -5 0 -10 8
-10 18 0 14 2 15 10 2 5 -8 10 -10 10 -5 0 6 -5 16 -12 23 -8 8 -8 12 -1 12 6
0 13 14 15 30 3 17 0 30 -6 30 -6 0 -4 5 4 10 10 7 11 10 2 10 -7 0 -17 11
-22 25 -14 38 -13 38 -126 -62 -12 -11 -45 -30 -75 -42 -101 -44 -211 -102
-234 -125 -22 -22 -84 -56 -103 -56 -5 0 -29 -9 -54 -20 -44 -19 -134 -36
-240 -44 -56 -4 -198 9 -228 21 -8 4 -17 7 -20 7 -21 5 -151 82 -176 104 -17
15 -47 42 -68 60 -49 43 -79 111 -62 143 15 30 104 89 181 119 33 13 72 32 87
42 14 10 30 18 35 18 5 0 16 11 23 25 7 14 17 25 22 25 4 0 8 10 8 23 0 13 5
28 11 34 7 7 2 20 -19 44 -42 49 -52 72 -52 124 0 59 47 154 95 190 43 33 141
85 161 85 8 0 14 5 14 10 0 6 12 15 26 20 33 13 114 71 114 82 0 15 -43 7
-143 -26z"/>
<path d="M22572 4490 c0 -14 2 -19 5 -12 2 6 2 18 0 25 -3 6 -5 1 -5 -13z"/>
<path d="M24235 4480 c-4 -6 5 -10 19 -10 14 0 26 5 26 10 0 6 -9 10 -19 10
-11 0 -23 -4 -26 -10z"/>
<path d="M18884 4453 c-3 -10 -10 -28 -15 -41 -5 -13 -9 -38 -9 -55 0 -18 -5
-38 -12 -45 -9 -9 -7 -16 7 -32 10 -11 24 -20 32 -20 15 0 17 21 4 36 -10 10
-20 94 -11 94 3 0 11 -13 18 -30 10 -23 20 -30 41 -30 35 0 51 17 51 53 0 55
-92 115 -106 70z"/>
<path d="M21680 4455 c0 -8 4 -15 9 -15 5 0 11 7 15 15 3 9 0 15 -9 15 -8 0
-15 -7 -15 -15z"/>
<path d="M20200 4296 c-30 -13 -68 -30 -83 -39 -36 -19 -97 -90 -97 -112 0 -9
37 -56 83 -103 71 -75 88 -100 122 -179 29 -68 45 -93 58 -93 13 0 17 5 12 19
-5 17 17 196 25 196 2 0 6 21 16 85 4 25 13 58 21 74 8 15 21 51 28 80 14 51
14 51 -13 73 -36 30 -100 30 -172 -1z"/>
<path d="M22201 4190 c0 -14 -8 -38 -16 -54 -16 -31 -20 -70 -6 -62 13 9 33
90 28 117 l-4 24 -2 -25z"/>
<path d="M16409 4149 c-19 -12 -43 -36 -53 -53 -21 -39 -73 -58 -213 -77 -73
-10 -102 -10 -147 0 -35 8 -81 10 -124 5 l-69 -6 7 -32 c14 -63 53 -115 105
-142 34 -18 41 -24 21 -20 -15 4 -41 9 -56 13 -21 4 -27 10 -23 21 5 12 1 14
-15 10 -25 -7 -92 11 -92 24 0 4 -26 8 -58 8 -47 0 -67 -6 -103 -28 -24 -16
-49 -39 -56 -53 -18 -38 -33 -90 -33 -115 0 -30 -59 -97 -104 -118 -37 -17
-145 -22 -174 -7 -26 14 -124 53 -156 62 l-28 8 7 -52 c8 -60 25 -192 50 -388
17 -132 15 -209 -6 -209 -6 0 -7 -9 -4 -21 6 -17 4 -20 -12 -15 -19 6 -57 -22
-126 -91 -55 -56 -58 -61 -45 -83 7 -11 18 -20 24 -20 30 0 31 -27 3 -114 -16
-49 -36 -97 -45 -107 -8 -9 -24 -45 -34 -79 -10 -33 -30 -76 -44 -95 -14 -18
-26 -37 -26 -42 0 -5 -9 -26 -20 -47 -22 -40 -15 -66 17 -66 7 0 43 -16 78
-35 46 -25 86 -37 137 -44 172 -21 275 13 407 133 125 114 172 150 225 170 25
10 45 23 44 29 -1 7 12 39 29 72 16 33 33 76 37 96 5 31 45 104 76 142 6 7 30
37 55 68 50 62 353 365 401 401 16 13 51 43 75 68 25 25 81 77 124 115 44 39
91 82 106 98 15 15 30 27 35 27 4 0 38 -14 76 -32 71 -32 87 -33 69 -1 -15 26
-81 243 -81 265 0 25 -155 323 -188 361 -19 22 -29 21 -73 -4z m-1349 -1219
c0 -5 -5 -10 -11 -10 -5 0 -7 5 -4 10 3 6 8 10 11 10 2 0 4 -4 4 -10z"/>
<path d="M5450 4087 c-70 -43 -111 -80 -163 -151 -115 -153 -149 -210 -236
-398 -64 -138 -79 -182 -126 -368 -76 -304 -105 -472 -106 -611 -1 -144 10
-182 86 -303 43 -68 52 -76 79 -76 17 0 37 -4 45 -9 26 -17 160 31 554 198 93
39 181 80 196 91 15 10 50 52 76 92 27 40 67 95 90 123 22 27 62 84 89 125 26
41 57 86 67 100 10 14 29 43 40 65 12 22 31 52 43 66 22 27 101 180 111 215 4
15 0 23 -12 27 -10 4 -25 12 -34 18 -12 9 -30 4 -90 -26 -134 -69 -144 -73
-212 -95 -43 -14 -77 -19 -97 -15 -62 14 -99 98 -120 280 -6 55 -22 183 -36
284 -35 267 -54 322 -128 365 -53 31 -69 31 -116 3z"/>
<path d="M15538 4083 c7 -3 16 -2 19 1 4 3 -2 6 -13 5 -11 0 -14 -3 -6 -6z"/>
<path d="M15570 4076 c0 -2 7 -7 16 -10 8 -3 12 -2 9 4 -6 10 -25 14 -25 6z"/>
<path d="M15628 4053 c7 -3 16 -2 19 1 4 3 -2 6 -13 5 -11 0 -14 -3 -6 -6z"/>
<path d="M15668 4043 c7 -3 16 -2 19 1 4 3 -2 6 -13 5 -11 0 -14 -3 -6 -6z"/>
<path d="M15718 4033 c7 -3 16 -2 19 1 4 3 -2 6 -13 5 -11 0 -14 -3 -6 -6z"/>
<path d="M18774 3936 c-3 -8 -1 -23 5 -33 9 -15 10 -13 11 15 0 34 -7 42 -16
18z"/>
<path d="M18831 3844 c0 -11 3 -14 6 -6 3 7 2 16 -1 19 -3 4 -6 -2 -5 -13z"/>
<path d="M13995 3825 c-23 -8 -58 -11 -82 -8 -39 5 -44 3 -52 -20 -14 -37 -37
-40 -61 -9 l-21 27 5 -45 c5 -44 4 -46 -42 -81 -26 -20 -56 -53 -66 -73 l-20
-37 50 -45 c54 -50 139 -109 179 -124 14 -5 30 -21 35 -34 7 -20 19 -26 55
-32 36 -5 59 -18 103 -56 48 -41 60 -48 82 -41 14 4 52 8 85 8 l60 0 -1 -37
c-1 -21 3 -38 8 -38 5 0 22 -9 37 -21 25 -18 38 -20 111 -15 54 3 89 11 100
21 9 8 22 15 29 15 20 0 109 80 146 131 53 75 75 124 75 173 0 25 5 48 10 51
19 12 40 -62 40 -143 0 -90 -14 -142 -38 -142 -10 0 -47 -36 -84 -79 -37 -44
-92 -98 -123 -121 -30 -22 -55 -44 -55 -49 0 -4 -12 -13 -27 -20 -16 -7 -50
-28 -78 -47 -35 -23 -82 -42 -156 -61 -106 -27 -107 -27 -230 -14 -234 25
-299 26 -299 3 0 -8 121 -84 190 -120 25 -13 34 -21 20 -17 -14 3 -72 8 -130
11 l-105 5 72 -35 c39 -19 95 -42 125 -51 29 -9 68 -24 87 -34 l34 -18 -56 -6
c-31 -3 -67 -13 -79 -21 -28 -20 -88 -20 -134 -1 -20 8 -60 38 -89 66 -58 55
-132 109 -152 109 -25 0 -64 23 -52 31 19 12 -59 45 -136 57 -99 17 -248 32
-254 27 -2 -3 4 -14 14 -25 13 -15 31 -20 66 -20 26 0 50 -4 53 -9 10 -15 75
-22 96 -11 17 9 32 6 78 -16 31 -15 59 -29 61 -31 8 -5 -51 -82 -111 -145 -56
-59 -98 -122 -98 -148 0 -7 -11 -39 -24 -73 -12 -34 -31 -89 -40 -122 -9 -33
-21 -69 -26 -80 -12 -28 -33 -135 -33 -166 0 -38 51 -105 98 -128 57 -29 157
-46 193 -33 38 13 78 -4 139 -61 55 -50 83 -61 112 -41 39 28 50 129 21 199
-24 59 -40 114 -40 137 0 37 30 97 45 92 7 -3 15 4 18 15 7 29 25 26 33 -4 3
-14 10 -25 14 -25 4 0 26 -25 48 -55 31 -41 44 -71 52 -113 15 -88 58 -293 70
-332 5 -19 10 -58 10 -85 0 -43 -7 -62 -42 -116 -22 -35 -53 -78 -67 -95 -14
-17 -44 -52 -66 -78 -41 -49 -85 -122 -85 -142 0 -19 86 -189 103 -203 11 -8
17 -29 17 -55 0 -49 39 -185 70 -245 19 -37 20 -49 11 -91 -14 -66 -37 -100
-104 -155 -31 -26 -57 -50 -57 -54 0 -4 -19 -26 -41 -50 -53 -54 -139 -202
-163 -278 l-7 -23 1386 0 1385 0 38 25 c20 13 60 27 87 30 28 4 68 15 91 26
22 10 46 19 52 19 7 0 22 11 34 25 21 24 80 48 150 59 31 6 38 12 49 44 19 59
98 244 121 282 15 25 22 56 24 107 2 40 7 81 13 91 5 9 38 30 73 46 112 50
202 98 254 136 27 21 72 50 100 64 46 25 80 46 199 121 28 18 75 46 106 63 64
34 112 63 119 73 3 4 43 26 90 49 78 39 88 42 140 36 30 -4 86 -18 123 -32 37
-14 77 -24 87 -21 11 3 20 0 20 -5 0 -7 17 -9 43 -5 53 6 168 70 199 111 21
28 23 40 20 119 -2 74 -7 95 -28 128 -14 22 -24 48 -22 57 3 11 11 1 25 -28
22 -47 30 -38 14 18 -6 20 -6 32 0 32 5 0 9 5 9 10 0 6 -5 10 -11 10 -23 0
-102 78 -125 123 -13 27 -49 80 -79 119 -30 38 -55 74 -55 78 0 19 -174 222
-293 343 -74 75 -134 146 -147 172 -12 25 -25 45 -30 45 -4 0 -33 -34 -65 -76
-31 -42 -74 -93 -96 -114 -21 -21 -39 -46 -39 -56 0 -22 -47 -92 -72 -105 -10
-5 -27 -26 -37 -47 -24 -47 -237 -255 -312 -304 -31 -21 -59 -44 -62 -51 -3
-8 -20 -21 -39 -31 -50 -25 -69 -37 -123 -82 -27 -22 -69 -51 -92 -64 -54 -30
-85 -73 -91 -127 -4 -39 -11 -49 -53 -81 -27 -20 -49 -40 -49 -44 0 -15 101
-12 258 8 62 8 115 14 118 14 13 0 2 -64 -13 -75 -15 -11 -10 -14 40 -20 31
-4 76 -5 99 -1 69 9 258 19 258 13 0 -3 -25 -13 -55 -21 -88 -26 -266 -177
-388 -330 -39 -49 -119 -204 -126 -243 l-6 -32 -106 77 c-59 42 -134 100 -167
127 -33 28 -77 60 -99 73 -21 13 -70 53 -109 90 -39 37 -90 80 -112 96 -22 16
-64 55 -92 87 -29 33 -60 59 -70 59 -18 0 -50 30 -50 47 0 6 14 23 31 37 25
21 41 26 85 26 58 0 64 -5 37 -26 -27 -20 1 -18 67 5 30 11 73 22 95 26 44 8
141 59 148 78 2 7 -4 23 -13 37 -23 34 -33 67 -21 74 5 3 40 -10 77 -29 37
-19 73 -35 80 -35 19 0 18 34 -1 50 -8 7 -15 17 -15 22 0 5 -15 23 -33 41 -38
39 -138 67 -162 47 -24 -20 -65 -4 -65 24 0 17 -7 26 -25 30 -28 7 -46 -1
-114 -49 -71 -50 -113 -69 -286 -123 -197 -62 -248 -74 -395 -92 -47 -6 -101
-15 -120 -20 -19 -5 -78 -14 -130 -20 -52 -7 -119 -18 -147 -27 -54 -15 -81
-12 -121 13 -19 13 -21 18 -10 37 7 12 13 45 14 73 1 28 7 66 14 85 20 57 0
105 -84 200 -74 86 -129 124 -309 218 -155 82 -247 138 -247 151 0 5 -12 15
-27 22 -17 8 -31 25 -36 44 -9 30 -5 37 47 98 32 38 56 76 56 89 0 12 14 39
30 59 17 21 39 56 50 80 24 55 57 91 152 171 133 112 219 228 249 339 21 75
23 244 4 333 -10 44 -24 93 -32 108 -14 27 -17 28 -66 22 -29 -3 -68 -11 -87
-17 -44 -13 -153 -72 -169 -92 -23 -28 -139 -86 -170 -86 -28 0 -34 5 -51 44
-10 24 -27 47 -38 50 -25 8 -37 36 -16 36 11 0 13 7 8 28 -4 15 -11 29 -15 32
-4 3 -11 25 -15 49 -8 50 -31 77 -71 87 -40 10 -62 32 -69 70 -3 18 -12 38
-18 44 -21 17 -69 19 -111 5z m3689 -1430 c-9 -14 -18 -25 -20 -25 -2 0 2 11
8 25 6 14 15 25 20 25 5 0 1 -11 -8 -25z m-74 -105 c0 -5 -5 -10 -11 -10 -5 0
-7 5 -4 10 3 6 8 10 11 10 2 0 4 -4 4 -10z m530 -395 c11 -13 10 -18 -6 -29
-30 -22 -73 12 -47 37 11 12 40 7 53 -8z m-412 -22 c2 -7 -3 -13 -11 -13 -7 0
-22 -9 -32 -20 -36 -39 -112 -79 -219 -114 -60 -20 -119 -44 -130 -54 -12 -10
-75 -34 -141 -52 -66 -19 -133 -40 -148 -48 -16 -8 -31 -11 -34 -8 -13 13 45
59 121 97 43 21 84 43 90 48 15 13 147 65 231 91 39 12 76 27 82 32 17 14 154
57 172 55 8 -1 16 -8 19 -14z m490 -18 c6 -14 16 -25 22 -25 16 0 12 -27 -6
-34 -9 -3 -12 -2 -9 5 4 5 -5 22 -19 36 -14 14 -23 29 -20 34 9 15 20 10 32
-16z m-148 -20 c8 -7 32 -15 52 -19 27 -5 36 -11 31 -21 -9 -24 -55 -17 -106
15 -53 33 -63 56 -19 45 15 -3 34 -12 42 -20z m113 1 c20 -16 23 -36 4 -36
-17 0 -37 20 -37 37 0 16 10 16 33 -1z"/>
<path d="M15450 3659 c0 -5 5 -7 10 -4 6 3 10 8 10 11 0 2 -4 4 -10 4 -5 0
-10 -5 -10 -11z"/>
<path d="M3437 3506 c-107 -56 -136 -80 -99 -81 13 0 31 -27 54 -77 13 -29 52
-48 97 -48 14 0 41 -9 59 -20 36 -22 52 -26 34 -8 -13 13 -17 48 -5 48 3 0 15
-8 26 -17 18 -17 19 -17 12 20 -5 25 -4 37 4 37 6 0 11 -10 11 -22 0 -19 2
-20 10 -8 5 8 10 38 10 66 0 36 6 58 20 74 32 37 25 57 -26 80 -26 11 -56 20
-68 19 -11 0 -74 -29 -139 -63z m18 -156 c13 -6 15 -9 5 -9 -8 0 -22 4 -30 9
-18 12 -2 12 25 0z"/>
<path d="M11790 3506 c-41 -8 -88 -17 -103 -20 -92 -21 -407 -140 -465 -176
-67 -41 -49 -74 62 -116 76 -29 106 -49 106 -70 0 -7 -21 -26 -47 -42 -59 -37
-113 -89 -113 -110 0 -9 -10 -26 -22 -39 -30 -32 -11 -29 97 13 276 109 344
125 544 122 74 -1 160 -7 190 -15 81 -19 83 -18 114 40 42 80 56 95 67 77 5
-8 10 -36 10 -61 0 -87 8 -105 71 -154 49 -38 58 -42 50 -23 -14 39 -50 220
-55 279 -2 30 -11 84 -19 120 -9 35 -18 85 -22 112 -4 33 -11 47 -22 47 -12 0
-15 -9 -11 -43 5 -46 -18 -115 -37 -109 -13 4 -7 49 12 89 23 50 13 63 -52 63
-31 0 -64 4 -74 10 -32 17 -201 20 -281 6z m97 -412 c-3 -3 -12 -4 -19 -1 -8
3 -5 6 6 6 11 1 17 -2 13 -5z"/>
<path d="M14982 3420 c0 -25 6 -63 13 -85 l13 -40 -4 50 c-2 28 -8 66 -13 85
l-9 35 0 -45z"/>
<path d="M13949 3254 c-10 -13 -10 -17 1 -24 17 -10 30 -4 30 15 0 22 -16 26
-31 9z"/>
<path d="M14235 3210 c-3 -5 1 -10 9 -10 8 0 18 5 21 10 3 6 -1 10 -9 10 -8 0
-18 -4 -21 -10z"/>
<path d="M13933 3202 c-6 -4 -19 -26 -28 -49 -18 -46 -11 -74 25 -93 27 -15
82 12 120 58 27 33 46 79 36 89 -2 3 -29 -4 -58 -14 -52 -19 -54 -19 -68 -1
-9 10 -20 15 -27 10z"/>
<path d="M8360 3177 c0 -5 5 -18 11 -29 6 -11 11 -63 11 -116 1 -90 15 -174
41 -234 7 -16 15 -28 18 -28 7 0 19 114 19 188 0 40 -8 68 -34 120 -35 68 -65
114 -66 99z"/>
<path d="M23972 2935 c-17 -14 -32 -36 -34 -48 -3 -19 -6 -17 -23 17 -10 22
-21 34 -23 27 -3 -9 -8 -9 -20 1 -13 11 -15 10 -10 -4 5 -11 0 -18 -15 -22
-12 -3 -18 -8 -14 -12 11 -12 -26 -63 -55 -75 -32 -13 -33 -17 -14 -61 8 -18
26 -76 41 -128 63 -221 89 -286 117 -293 12 -4 18 -15 19 -34 0 -26 1 -26 15
11 38 104 54 236 54 439 1 110 -1 201 -3 204 -3 2 -18 -8 -35 -22z"/>
<path d="M11627 2790 c-59 -10 -129 -25 -155 -34 -26 -8 -72 -23 -102 -32
-118 -37 -293 -133 -307 -170 -34 -90 399 -163 706 -119 163 24 391 97 391
126 0 5 16 9 35 9 41 0 105 24 105 39 0 18 -34 68 -82 119 -44 47 -50 50 -110
55 -35 3 -76 9 -93 13 -73 16 -281 13 -388 -6z"/>
<path d="M10700 2444 c-75 -20 -111 -37 -210 -101 -123 -80 -162 -112 -290
-236 -145 -141 -163 -166 -184 -249 -29 -119 -12 -396 31 -514 14 -39 59 -84
83 -84 14 0 25 32 35 95 4 28 24 104 45 170 21 66 46 149 56 185 34 125 124
335 173 406 36 51 136 143 281 258 113 90 110 86 70 85 -19 0 -60 -7 -90 -15z"/>
<path d="M4612 2423 c-16 -45 -76 -103 -106 -103 -23 0 -26 -4 -26 -36 l0 -36
61 4 c45 3 65 10 75 23 8 10 14 14 14 8 0 -6 11 -13 25 -15 32 -7 32 6 -2 54
-19 28 -26 51 -26 83 0 25 -1 45 -3 45 -1 0 -7 -12 -12 -27z"/>
<path d="M12366 2374 c-24 -24 -37 -51 -30 -67 3 -9 -6 -19 -28 -27 -18 -8
-51 -25 -73 -40 -97 -63 -248 -122 -424 -166 -97 -24 -184 -44 -194 -44 -54 0
-172 -55 -240 -111 -46 -38 -95 -61 -121 -57 -13 1 -31 -3 -40 -11 -13 -11
-24 -11 -58 -1 -88 24 -85 24 -122 -15 -18 -21 -73 -104 -122 -184 -48 -80
-109 -179 -136 -218 -49 -74 -120 -195 -198 -338 -46 -84 -186 -296 -248 -374
-47 -61 -156 -165 -211 -201 -104 -70 -218 -44 -440 98 -116 74 -221 152 -287
215 -60 56 -82 72 -91 64 -2 -3 7 -22 21 -43 26 -38 26 -65 0 -30 -7 11 -17
16 -21 12 -5 -5 2 -15 15 -25 24 -17 285 -280 388 -390 74 -80 224 -211 377
-329 l119 -92 608 0 608 0 10 48 c6 26 16 79 22 117 6 39 22 126 35 195 79
420 80 448 10 685 -99 335 -110 388 -110 527 0 81 4 131 11 138 8 8 33 -9 95
-66 190 -175 513 -509 629 -649 195 -235 404 -432 478 -451 38 -10 88 4 101
30 8 14 22 24 35 24 11 0 44 7 71 17 91 31 111 35 189 35 l79 0 -7 32 c-11 58
-53 88 -148 107 -79 17 -85 27 -63 104 10 34 22 66 27 72 10 12 11 65 0 65
-25 0 -77 -70 -120 -162 -27 -58 -36 -68 -57 -68 -40 0 -98 34 -167 98 -35 32
-75 63 -90 69 -14 7 -34 24 -45 39 -10 15 -57 66 -104 113 -106 106 -119 136
-93 219 10 31 26 73 36 92 10 19 18 40 18 46 0 11 41 109 60 145 5 9 12 34 16
55 3 22 11 44 16 50 4 7 15 46 23 87 18 92 48 206 70 267 10 26 19 89 22 150
5 97 4 107 -17 133 -24 30 -60 35 -84 11z"/>
<path d="M2265 2298 c-16 -6 -41 -20 -54 -32 -54 -48 -131 -193 -172 -323 -17
-54 -42 -128 -54 -164 -13 -37 -31 -100 -40 -140 -53 -245 -76 -362 -81 -424
-3 -38 -12 -97 -19 -130 -8 -33 -24 -100 -36 -150 -12 -49 -25 -126 -29 -170
-11 -113 -40 -217 -65 -230 -17 -9 -19 -16 -14 -55 7 -53 -11 -86 -66 -120
-45 -28 -77 -21 -155 31 -83 55 -177 170 -337 409 -142 214 -171 261 -216 349
-26 52 -56 104 -66 115 -11 12 -34 48 -52 81 -17 33 -37 67 -44 75 -7 8 -18
31 -24 51 -6 20 -28 63 -48 95 -19 33 -43 75 -52 94 -40 85 -342 630 -349 630
-3 0 -21 -12 -40 -26 -23 -18 -46 -52 -69 -103 -19 -42 -36 -77 -38 -79 -2 -2
-12 1 -22 6 -10 5 -30 12 -45 16 -26 6 -28 3 -44 -51 -9 -32 -20 -68 -25 -81
-5 -13 -9 -456 -9 -997 l0 -975 481 0 c470 0 482 0 510 21 35 25 37 37 7 41
-13 2 -22 8 -21 13 1 6 -5 17 -13 27 -10 11 -12 18 -5 23 6 3 11 15 11 26 0
10 5 28 12 39 10 16 7 32 -20 97 -18 43 -32 83 -32 90 0 25 29 0 66 -55 20
-31 58 -82 84 -112 26 -30 55 -69 66 -86 10 -17 32 -52 49 -77 l30 -47 2287 0
c1259 0 2288 2 2288 4 0 2 9 48 20 102 43 207 69 401 76 559 6 152 1 169 -66
203 -50 26 -73 26 -325 -3 -489 -56 -723 -67 -987 -43 l-137 12 5 30 4 31 -11
-27 c-10 -26 -14 -28 -52 -22 -151 22 -343 75 -517 144 -30 12 -66 25 -80 30
-53 17 -217 92 -252 115 -21 14 -40 25 -43 25 -3 0 -32 18 -63 39 -31 22 -91
61 -132 87 -143 90 -380 309 -515 474 -33 41 -70 85 -83 99 -12 13 -47 61 -76
105 -30 45 -85 127 -124 182 -125 182 -115 174 -177 152z"/>
<path d="M4682 2230 c0 -14 2 -19 5 -12 2 6 2 18 0 25 -3 6 -5 1 -5 -13z"/>
<path d="M15750 2088 c-31 -4 -95 -27 -145 -52 -49 -24 -124 -58 -165 -76
-165 -69 -168 -71 -178 -113 -23 -87 44 -179 139 -191 101 -14 277 25 425 94
38 18 84 39 102 47 39 19 82 67 82 94 0 26 -38 84 -93 142 -25 26 -47 47 -49
47 -2 0 -17 4 -33 8 -17 5 -55 5 -85 0z"/>
<path d="M4675 2035 c4 -11 14 -44 22 -74 14 -51 13 -54 -7 -76 -21 -22 -21
-22 -1 -28 23 -6 41 10 41 36 0 15 5 17 30 12 27 -6 30 -4 30 19 0 17 -11 33
-37 52 -21 15 -49 39 -62 53 -19 21 -22 22 -16 6z"/>
<path d="M20403 1858 c-15 -23 -42 -55 -59 -70 -18 -16 -35 -40 -38 -54 -5
-17 -12 -24 -21 -20 -8 3 -15 1 -15 -4 0 -6 -5 -10 -12 -10 -9 0 -9 3 0 12 18
18 14 28 -12 28 -42 0 -49 -21 -30 -90 15 -55 20 -61 40 -57 32 6 46 -8 80
-81 19 -43 39 -49 80 -27 18 10 53 18 76 19 34 1 43 5 46 20 3 11 16 29 30 40
15 12 35 31 46 43 11 13 26 23 33 23 7 0 13 5 13 10 0 6 9 1 20 -10 11 -11 20
-23 20 -26 0 -4 25 -57 55 -119 31 -63 59 -133 63 -157 7 -41 9 -43 45 -46 35
-3 37 -2 37 28 0 33 -34 112 -56 131 -8 6 -14 16 -14 21 0 6 -22 55 -50 110
-27 55 -50 107 -50 116 0 10 -7 25 -15 35 -13 18 -14 18 -25 -2 -6 -12 -18
-21 -28 -21 -31 -1 -61 -33 -64 -70 -2 -27 -9 -37 -29 -44 -14 -5 -37 -6 -51
-3 -22 6 -26 15 -41 104 -10 54 -17 119 -17 144 0 29 -6 51 -14 58 -12 10 -20
5 -43 -31z"/>
<path d="M18996 1864 c-3 -8 1 -31 9 -51 18 -42 19 -79 4 -89 -6 -3 -52 -6
-102 -6 -85 0 -90 -1 -61 -13 41 -18 63 -54 75 -123 21 -116 43 -202 50 -195
4 5 15 44 23 88 28 142 38 179 63 231 21 45 23 57 14 90 -19 70 -60 107 -75
68z"/>
<path d="M22205 1745 c17 -14 50 -45 75 -68 25 -23 65 -56 90 -72 88 -57 288
-215 331 -260 24 -25 58 -52 75 -59 18 -8 49 -29 70 -48 22 -18 55 -45 74 -59
33 -25 117 -99 218 -192 24 -21 45 -37 47 -35 3 2 -37 44 -87 93 -114 111
-131 136 -162 238 -36 120 -38 129 -45 282 -4 77 -12 150 -19 161 -12 22 -59
38 -68 23 -3 -5 -28 -9 -55 -9 -28 0 -58 -4 -67 -9 -25 -12 -327 10 -475 35
l-32 6 30 -27z"/>
<path d="M8674 1749 c-80 -10 -178 -48 -182 -72 -6 -28 25 -111 58 -161 40
-59 115 -125 207 -184 147 -93 312 -214 392 -288 45 -42 81 -71 81 -65 0 44
-190 420 -286 566 -39 59 -125 151 -174 186 -32 22 -41 24 -96 18z"/>
<path d="M21271 1680 c-24 -11 -51 -20 -62 -20 -30 0 -41 -98 -12 -107 7 -3
18 7 24 21 6 13 25 30 42 37 43 18 80 56 73 74 -7 19 -12 19 -65 -5z"/>
<path d="M24730 1676 c0 -2 7 -7 16 -10 8 -3 12 -2 9 4 -6 10 -25 14 -25 6z"/>
<path d="M1080 1656 c0 -14 76 -221 100 -271 5 -11 19 -51 32 -89 35 -106 120
-270 141 -274 17 -3 18 2 15 60 -7 103 -68 418 -94 483 -13 33 -24 66 -24 73
0 15 -46 16 -90 0 -26 -9 -35 -9 -38 0 -2 7 -12 17 -23 22 -15 8 -19 7 -19 -4z"/>
<path d="M19739 1656 c-14 -7 -54 -16 -88 -20 -35 -4 -71 -11 -80 -16 -20 -11
-67 -31 -151 -64 -36 -13 -79 -32 -95 -40 -17 -9 -35 -16 -41 -16 -28 0 -93
-60 -104 -97 -6 -21 -15 -47 -20 -58 -5 -11 -11 -29 -13 -40 -3 -11 -24 -81
-46 -155 -23 -74 -49 -166 -57 -203 -16 -69 -15 -83 7 -190 11 -49 10 -65 -4
-111 -10 -30 -17 -86 -17 -129 0 -65 3 -78 19 -87 25 -13 48 -4 89 34 l33 31
-3 -60 c-3 -74 6 -93 33 -69 10 9 19 22 19 28 0 6 11 33 25 61 14 27 23 56 20
64 -3 8 -10 73 -16 145 -5 72 -12 142 -15 156 -3 14 -8 76 -11 138 -6 118 -4
129 42 197 37 54 73 67 45 16 -14 -26 1 -27 24 -2 16 17 20 18 44 5 15 -8 34
-14 42 -14 15 1 132 111 265 251 l70 73 2 67 c1 37 6 76 12 88 19 35 12 39
-30 17z"/>
<path d="M24770 1656 c0 -2 7 -7 16 -10 8 -3 12 -2 9 4 -6 10 -25 14 -25 6z"/>
<path d="M18642 1450 c-1 -19 -5 -46 -8 -60 -5 -21 -4 -23 6 -7 6 9 9 36 7 60
-3 39 -4 39 -5 7z"/>
<path d="M19940 1385 c0 -19 -9 -61 -20 -92 -33 -100 -58 -337 -85 -813 -1
-30 -6 -151 -10 -267 l-8 -213 461 0 462 0 0 343 c0 188 -3 352 -6 365 -9 33
-22 27 -34 -19 -13 -48 -72 -117 -117 -136 -62 -26 -97 -18 -159 37 -31 28
-61 50 -65 50 -5 0 -40 42 -79 94 -69 92 -186 307 -237 436 -14 36 -34 85 -45
108 -11 24 -17 51 -13 60 8 22 -14 82 -31 82 -9 0 -14 -11 -14 -35z"/>
<path d="M18585 1277 c-17 -41 -7 -80 20 -75 14 3 15 1 15 -32 0 -14 -6 -20
-17 -18 -26 5 -37 -69 -12 -82 22 -12 169 -13 151 -2 -7 5 -15 21 -18 37 -7
39 -31 85 -64 120 -15 17 -35 44 -43 60 l-16 30 -16 -38z"/>
<path d="M10002 1228 c-6 -13 -16 -48 -22 -79 -13 -66 -48 -125 -115 -191 -26
-27 -41 -48 -33 -48 27 0 114 28 155 49 56 28 67 50 58 119 -4 30 -8 74 -10
97 -1 23 -7 50 -12 59 -8 15 -10 14 -21 -6z"/>
<path d="M23270 875 c0 -14 87 -85 104 -85 11 0 17 2 15 3 -30 25 -119 86
-119 82z"/>
<path d="M13157 773 c-27 -4 -28 -6 -25 -54 5 -59 16 -69 79 -69 37 0 58 -8
99 -35 29 -19 54 -35 56 -35 12 0 0 71 -19 109 -35 70 -98 98 -190 84z"/>
<path d="M9304 690 c18 -195 1 -308 -71 -480 -42 -99 -83 -202 -83 -207 0 -2
76 -3 169 -3 l169 0 5 28 c3 15 9 56 13 91 l7 64 15 -29 c16 -31 50 -63 69
-64 7 0 13 22 15 58 3 49 -2 70 -38 152 -23 52 -66 136 -95 185 -28 50 -74
129 -101 177 -27 47 -56 92 -65 100 -15 12 -15 6 -9 -72z"/>
<path d="M19271 710 c0 -8 4 -24 9 -35 l9 -20 0 20 c0 11 -4 27 -9 35 -9 13
-10 13 -9 0z"/>
<path d="M16980 689 c7 -11 14 -19 16 -16 7 7 -7 37 -17 37 -6 0 -5 -9 1 -21z"/>
<path d="M18675 410 c-10 -11 -14 -20 -9 -20 5 0 15 9 22 20 7 11 11 20 9 20
-2 0 -12 -9 -22 -20z"/>
<path d="M18589 321 c-28 -27 -49 -57 -49 -70 0 -11 -6 -21 -12 -21 -13 0 -60
-61 -71 -93 -5 -15 -2 -16 21 -11 15 4 43 15 62 24 19 10 54 23 77 29 47 13
99 52 108 81 3 10 -3 37 -15 60 -17 34 -24 39 -36 30 -11 -10 -14 -9 -14 4 0
27 -21 18 -71 -33z m-7 -93 c-7 -7 -12 -8 -12 -2 0 14 12 26 19 19 2 -3 -1
-11 -7 -17z"/>
<path d="M7559 306 c-2 -2 -29 -6 -59 -10 -66 -7 -152 -22 -200 -35 -125 -33
-162 -45 -251 -82 -137 -56 -207 -95 -253 -140 l-38 -39 790 0 c462 0 793 4
796 9 14 22 -141 130 -273 190 -122 56 -188 78 -286 96 -72 14 -216 21 -226
11z"/>
<path d="M29920 80 l0 -80 80 0 80 0 0 80 0 80 -80 0 -80 0 0 -80z"/>
</g>
</svg>
