<svg version="1.1" id="Layer_1" xmlns="http://www.w3.org/2000/svg" xmlns:xlink="http://www.w3.org/1999/xlink" x="0px" y="0px"
	 width="100%" viewBox="0 0 1239 1104" enable-background="new 0 0 1239 1104" xml:space="preserve">
<path fill="#000000" opacity="1.000000" stroke="none" 
	d="
M1240.000000,411.000000 
	C1240.000000,642.666687 1240.000000,873.833313 1240.000000,1105.000000 
	C827.000000,1105.000000 414.000000,1105.000000 1.000000,1105.000000 
	C1.000000,737.000000 1.000000,369.000000 1.000000,1.000000 
	C414.000000,1.000000 827.000000,1.000000 1240.000000,1.000000 
	C1240.000000,137.500000 1240.000000,274.000000 1240.000000,411.000000 
M434.021759,984.515808 
	C450.154083,993.066956 466.387634,1001.433533 482.394470,1010.213440 
	C505.164886,1022.703308 527.755859,1035.520142 550.450745,1048.148071 
	C558.492310,1052.622681 566.681396,1056.834473 574.684875,1061.374634 
	C590.549316,1070.374023 606.228638,1079.707764 622.254028,1088.406738 
	C624.775452,1089.775513 629.269836,1089.642944 631.891785,1088.312500 
	C641.717224,1083.326416 651.107666,1077.490112 660.729370,1072.094116 
	C674.738403,1064.237549 688.852783,1056.568115 702.833923,1048.662720 
	C713.409912,1042.682495 723.722839,1036.229980 734.376282,1030.395630 
	C750.324951,1021.661438 766.546448,1013.426147 782.513855,1004.725220 
	C808.504517,990.562256 834.334473,976.104492 860.327087,961.945190 
	C877.487732,952.596924 894.837341,943.596497 912.060791,934.362732 
	C933.250549,923.002563 954.295410,911.367737 975.589355,900.207520 
	C999.904419,887.464111 1024.422485,875.108093 1048.856567,862.591858 
	C1064.211426,854.726440 1079.538086,846.804688 1094.944580,839.041809 
	C1106.855713,833.040100 1119.132812,827.717346 1127.827148,816.851440 
	C1129.801514,814.383972 1131.056641,812.268982 1131.092163,809.004456 
	C1131.182251,800.722595 1131.497803,792.426697 1132.157349,784.171143 
	C1133.260132,770.367554 1134.798706,756.599243 1135.967163,742.800293 
	C1136.817871,732.754700 1137.319702,722.680176 1138.062622,712.624817 
	C1139.339966,695.334045 1140.693726,678.049011 1141.996582,660.760071 
	C1142.704224,651.368774 1143.346191,641.972473 1144.065918,632.582153 
	C1145.358276,615.718262 1146.711182,598.859070 1147.987305,581.994019 
	C1148.436890,576.054382 1148.613525,570.092896 1149.127441,564.159790 
	C1150.350708,550.032104 1151.667969,535.912354 1153.011963,521.795532 
	C1153.886353,512.611206 1155.360229,503.452484 1155.641357,494.253998 
	C1155.831543,488.038513 1158.517822,481.295837 1153.960449,475.523529 
	C1144.671631,463.758728 1135.304565,452.054688 1125.867676,440.408264 
	C1111.239990,422.355377 1096.599609,404.311218 1081.770996,386.423981 
	C1079.552124,383.747498 1080.102905,382.364410 1082.193359,380.245209 
	C1098.084229,364.135223 1113.919556,347.969910 1129.710815,331.762146 
	C1136.082397,325.222504 1142.312378,318.544769 1148.585938,311.910095 
	C1159.874146,299.972260 1171.042114,287.918915 1182.451050,276.097992 
	C1197.355225,260.655731 1212.531982,245.475510 1227.349854,229.952042 
	C1229.297241,227.912003 1230.825928,224.517120 1230.845581,221.737717 
	C1231.082764,188.240555 1231.003052,154.741119 1230.983643,121.242287 
	C1230.982910,119.931549 1231.272461,118.104317 1230.556763,117.392136 
	C1224.936768,111.799683 1219.838989,105.182297 1213.183838,101.234688 
	C1199.493408,93.113853 1184.823120,86.665314 1170.760498,79.146431 
	C1149.856567,67.969643 1129.227905,56.277355 1108.299316,45.148033 
	C1088.681274,34.715626 1068.804565,24.770380 1049.089844,14.518341 
	C1044.274048,12.014033 1039.726562,8.993861 1034.912354,6.486176 
	C1028.370483,3.078503 1019.940918,4.438083 1014.903931,9.622697 
	C1007.496582,17.247211 1000.327209,25.106455 992.822144,32.631977 
	C956.104065,69.450348 919.194092,106.078552 882.678528,143.096130 
	C877.889526,147.950958 874.060913,148.729309 867.816772,146.583374 
	C846.241882,139.168671 824.485596,132.272842 802.731201,125.391762 
	C767.027405,114.098396 731.253967,103.025162 695.543518,91.752724 
	C675.800842,85.520706 655.922302,79.627106 636.508606,72.483994 
	C627.015930,68.991211 620.513550,69.637924 614.139038,77.958931 
	C610.943787,82.129852 608.879395,85.604759 608.883728,91.033417 
	C609.024780,266.527222 609.000000,442.021210 609.000000,617.515137 
	C609.000000,619.923218 609.000000,622.331360 609.000000,624.587646 
	C573.509338,624.587646 538.935608,624.587646 504.000061,624.587646 
	C504.000061,622.031067 504.000061,619.884766 504.000061,617.738464 
	C503.999969,562.240356 504.001556,506.742279 503.997467,451.244202 
	C503.997009,445.109161 500.110565,441.017853 494.074066,441.015961 
	C421.743225,440.993164 349.412384,440.980713 277.081757,441.105743 
	C275.049683,441.109253 272.641602,442.221893 271.052979,443.574127 
	C262.631378,450.742188 255.831970,459.131134 251.655304,469.580719 
	C249.542526,474.866638 246.591797,479.818604 244.004562,484.913757 
	C235.969162,500.738129 227.906052,516.548462 219.893463,532.384338 
	C214.321625,543.396301 208.758240,554.413330 203.295731,565.479675 
	C197.792740,576.628174 192.459366,587.860229 186.976685,599.018799 
	C181.961197,609.226624 176.880524,619.402832 171.764069,629.560547 
	C166.592056,639.828369 161.340851,650.056335 155.800522,660.937683 
	C159.454742,664.385071 163.453598,667.704651 166.886337,671.532043 
	C169.905670,674.898499 173.138092,676.110779 177.706833,676.104736 
	C281.036438,675.968506 384.366241,676.016357 487.695953,675.929443 
	C491.138733,675.926514 493.695282,676.725769 495.939880,679.383667 
	C502.333588,686.954590 508.762451,694.503357 515.407166,701.853210 
	C529.512939,717.455627 543.767029,732.924011 557.954956,748.452148 
	C568.455566,759.944641 578.970276,771.424438 589.410889,782.971191 
	C590.523315,784.201477 591.181274,785.842712 592.317017,787.738892 
	C590.277954,787.860901 589.126343,788.012146 587.978760,787.985962 
	C574.197876,787.672546 560.416992,787.021240 546.637329,787.048584 
	C420.378021,787.299255 294.118988,787.671326 167.859848,787.993774 
	C151.027206,788.036804 134.194168,787.964966 117.361885,788.055054 
	C115.654663,788.064148 113.504402,788.310730 112.323746,789.331116 
	C107.186356,793.771301 102.331802,798.538696 97.144211,803.403137 
	C107.819473,814.707275 117.726944,825.138855 130.998535,831.449158 
	C145.732773,838.454956 160.699509,844.980347 175.337753,852.177124 
	C193.484772,861.098999 211.343552,870.605164 229.428650,879.655396 
	C246.731003,888.313965 264.219330,896.600891 281.522491,905.257812 
	C296.291809,912.647095 310.920410,920.317932 325.600189,927.885742 
	C345.647003,938.220276 365.713318,948.517517 385.714600,958.939514 
	C401.652588,967.244324 417.505676,975.711975 434.021759,984.515808 
M335.000580,238.481735 
	C342.745728,229.062576 350.583099,219.717422 358.214417,210.206894 
	C369.657532,195.945984 380.956055,181.569031 392.312347,167.246109 
	C374.029633,148.491837 355.542694,129.348999 336.839539,110.419777 
	C327.787079,101.257889 318.255981,92.571098 309.068512,83.540077 
	C284.618347,59.506168 260.233093,35.406212 235.831680,11.322735 
	C230.686630,6.244717 226.208878,5.478189 219.750092,8.683373 
	C213.858200,11.607240 207.915176,14.435607 202.101425,17.508034 
	C182.204819,28.022881 162.371521,38.657490 142.482025,49.185871 
	C128.560135,56.555332 114.542465,63.744526 100.645981,71.161125 
	C82.853844,80.656837 65.130035,90.280846 47.396893,99.886688 
	C35.729790,106.206619 23.145985,111.219070 14.563491,122.045090 
	C13.254004,123.696892 12.119914,126.049042 12.108514,128.084015 
	C11.949846,156.407333 11.958038,184.732056 12.097427,213.055573 
	C12.106791,214.958252 13.018113,217.304474 14.318007,218.681671 
	C24.355818,229.316376 34.573551,239.781815 44.772247,250.264008 
	C69.585045,275.766571 94.400810,301.266296 119.248375,326.734985 
	C135.162369,343.046783 151.104935,359.331024 167.093506,375.569702 
	C175.711761,384.322723 175.829849,384.314636 168.409851,394.159241 
	C159.009232,406.631714 149.601715,419.101746 139.998642,431.417999 
	C130.783936,443.236115 121.269737,454.820160 111.973221,466.575134 
	C104.501442,476.022797 104.558380,476.068054 113.222588,484.722961 
	C113.693916,485.193817 114.169746,485.660187 114.644257,486.127838 
	C118.195045,489.627380 129.305344,490.579773 133.064941,487.233826 
	C137.275848,483.486206 141.339828,479.469757 144.878128,475.093597 
	C150.659561,467.942932 155.806595,460.282471 161.502548,453.058899 
	C172.517059,439.090363 183.758484,425.300995 194.847305,411.390747 
	C204.695770,399.036407 214.424515,386.586609 224.283020,374.240356 
	C231.270676,365.489441 238.389786,356.843536 245.443893,348.145660 
	C251.255600,340.979675 257.025482,333.779510 262.872894,326.642883 
	C269.872406,318.100159 277.011505,309.670868 283.948242,301.077911 
	C290.977417,292.370483 297.717133,283.428345 304.793396,274.760284 
	C314.593140,262.756073 324.588989,250.912003 335.000580,238.481735 
z"/>
<path fill="#008080" opacity="1.000000" stroke="none" 
	d="
M433.709106,984.311584 
	C417.505676,975.711975 401.652588,967.244324 385.714600,958.939514 
	C365.713318,948.517517 345.647003,938.220276 325.600189,927.885742 
	C310.920410,920.317932 296.291809,912.647095 281.522491,905.257812 
	C264.219330,896.600891 246.731003,888.313965 229.428650,879.655396 
	C211.343552,870.605164 193.484772,861.098999 175.337753,852.177124 
	C160.699509,844.980347 145.732773,838.454956 130.998535,831.449158 
	C117.726944,825.138855 107.819473,814.707275 97.144211,803.403137 
	C102.331802,798.538696 107.186356,793.771301 112.323746,789.331116 
	C113.504402,788.310730 115.654663,788.064148 117.361885,788.055054 
	C134.194168,787.964966 151.027206,788.036804 167.859848,787.993774 
	C294.118988,787.671326 420.378021,787.299255 546.637329,787.048584 
	C560.416992,787.021240 574.197876,787.672546 587.978760,787.985962 
	C589.126343,788.012146 590.277954,787.860901 592.317017,787.738892 
	C591.181274,785.842712 590.523315,784.201477 589.410889,782.971191 
	C578.970276,771.424438 568.455566,759.944641 557.954956,748.452148 
	C543.767029,732.924011 529.512939,717.455627 515.407166,701.853210 
	C508.762451,694.503357 502.333588,686.954590 495.939880,679.383667 
	C493.695282,676.725769 491.138733,675.926514 487.695953,675.929443 
	C384.366241,676.016357 281.036438,675.968506 177.706833,676.104736 
	C173.138092,676.110779 169.905670,674.898499 166.886337,671.532043 
	C163.453598,667.704651 159.454742,664.385071 155.800522,660.937683 
	C161.340851,650.056335 166.592056,639.828369 171.764069,629.560547 
	C176.880524,619.402832 181.961197,609.226624 186.976685,599.018799 
	C192.459366,587.860229 197.792740,576.628174 203.295731,565.479675 
	C208.758240,554.413330 214.321625,543.396301 219.893463,532.384338 
	C227.906052,516.548462 235.969162,500.738129 244.004562,484.913757 
	C246.591797,479.818604 249.542526,474.866638 251.655304,469.580719 
	C255.831970,459.131134 262.631378,450.742188 271.052979,443.574127 
	C272.641602,442.221893 275.049683,441.109253 277.081757,441.105743 
	C349.412384,440.980713 421.743225,440.993164 494.074066,441.015961 
	C500.110565,441.017853 503.997009,445.109161 503.997467,451.244202 
	C504.001556,506.742279 503.999969,562.240356 504.000061,617.738464 
	C504.000061,619.884766 504.000061,622.031067 504.000061,624.587646 
	C538.935608,624.587646 573.509338,624.587646 609.000000,624.587646 
	C609.000000,622.331360 609.000000,619.923218 609.000000,617.515137 
	C609.000000,442.021210 609.024780,266.527222 608.883728,91.033417 
	C608.879395,85.604759 610.943787,82.129852 614.139038,77.958931 
	C620.513550,69.637924 627.015930,68.991211 636.508606,72.483994 
	C655.922302,79.627106 675.800842,85.520706 695.543518,91.752724 
	C731.253967,103.025162 767.027405,114.098396 802.731201,125.391762 
	C824.485596,132.272842 846.241882,139.168671 867.816772,146.583374 
	C874.060913,148.729309 877.889526,147.950958 882.678528,143.096130 
	C919.194092,106.078552 956.104065,69.450348 992.822144,32.631977 
	C1000.327209,25.106455 1007.496582,17.247211 1014.903931,9.622697 
	C1019.940918,4.438083 1028.370483,3.078503 1034.912354,6.486176 
	C1039.726562,8.993861 1044.274048,12.014033 1049.089844,14.518341 
	C1068.804565,24.770380 1088.681274,34.715626 1108.299316,45.148033 
	C1129.227905,56.277355 1149.856567,67.969643 1170.760498,79.146431 
	C1184.823120,86.665314 1199.493408,93.113853 1213.183838,101.234688 
	C1219.838989,105.182297 1224.936768,111.799683 1230.556763,117.392136 
	C1231.272461,118.104317 1230.982910,119.931549 1230.983643,121.242287 
	C1231.003052,154.741119 1231.082764,188.240555 1230.845581,221.737717 
	C1230.825928,224.517120 1229.297241,227.912003 1227.349854,229.952042 
	C1212.531982,245.475510 1197.355225,260.655731 1182.451050,276.097992 
	C1171.042114,287.918915 1159.874146,299.972260 1148.585938,311.910095 
	C1142.312378,318.544769 1136.082397,325.222504 1129.710815,331.762146 
	C1113.919556,347.969910 1098.084229,364.135223 1082.193359,380.245209 
	C1080.102905,382.364410 1079.552124,383.747498 1081.770996,386.423981 
	C1096.599609,404.311218 1111.239990,422.355377 1125.867676,440.408264 
	C1135.304565,452.054688 1144.671631,463.758728 1153.960449,475.523529 
	C1158.517822,481.295837 1155.831543,488.038513 1155.641357,494.253998 
	C1155.360229,503.452484 1153.886353,512.611206 1153.011963,521.795532 
	C1151.667969,535.912354 1150.350708,550.032104 1149.127441,564.159790 
	C1148.613525,570.092896 1148.436890,576.054382 1147.987305,581.994019 
	C1146.711182,598.859070 1145.358276,615.718262 1144.065918,632.582153 
	C1143.346191,641.972473 1142.704224,651.368774 1141.996582,660.760071 
	C1140.693726,678.049011 1139.339966,695.334045 1138.062622,712.624817 
	C1137.319702,722.680176 1136.817871,732.754700 1135.967163,742.800293 
	C1134.798706,756.599243 1133.260132,770.367554 1132.157349,784.171143 
	C1131.497803,792.426697 1131.182251,800.722595 1131.092163,809.004456 
	C1131.056641,812.268982 1129.801514,814.383972 1127.827148,816.851440 
	C1119.132812,827.717346 1106.855713,833.040100 1094.944580,839.041809 
	C1079.538086,846.804688 1064.211426,854.726440 1048.856567,862.591858 
	C1024.422485,875.108093 999.904419,887.464111 975.589355,900.207520 
	C954.295410,911.367737 933.250549,923.002563 912.060791,934.362732 
	C894.837341,943.596497 877.487732,952.596924 860.327087,961.945190 
	C834.334473,976.104492 808.504517,990.562256 782.513855,1004.725220 
	C766.546448,1013.426147 750.324951,1021.661438 734.376282,1030.395630 
	C723.722839,1036.229980 713.409912,1042.682495 702.833923,1048.662720 
	C688.852783,1056.568115 674.738403,1064.237549 660.729370,1072.094116 
	C651.107666,1077.490112 641.717224,1083.326416 631.891785,1088.312500 
	C629.269836,1089.642944 624.775452,1089.775513 622.254028,1088.406738 
	C606.228638,1079.707764 590.549316,1070.374023 574.684875,1061.374634 
	C566.681396,1056.834473 558.492310,1052.622681 550.450745,1048.148071 
	C527.755859,1035.520142 505.164886,1022.703308 482.394470,1010.213440 
	C466.387634,1001.433533 450.154083,993.066956 433.709106,984.311584 
M393.429749,562.000000 
	C396.177002,562.000000 398.924255,562.000000 401.655884,562.000000 
	C401.655884,548.936829 401.655884,536.717590 401.655884,524.422607 
	C380.653107,524.422607 359.997162,524.422607 339.346436,524.422607 
	C339.346436,537.067566 339.346436,549.286987 339.346436,562.000000 
	C357.273956,562.000000 374.859650,562.000000 393.429749,562.000000 
M882.500000,524.000000 
	C872.768188,524.000000 863.036377,524.000000 853.359497,524.000000 
	C853.359497,537.088074 853.359497,549.311035 853.359497,561.551514 
	C873.385620,561.551514 893.049011,561.551514 912.987915,561.551514 
	C912.987915,550.304810 912.994934,539.504272 912.983948,528.703674 
	C912.980225,524.995361 910.770447,523.951050 907.449951,523.980408 
	C899.467163,524.050964 891.483398,524.001221 882.500000,524.000000 
z"/>
<path fill="#008080" opacity="1.000000" stroke="none" 
	d="
M334.750732,238.740540 
	C324.588989,250.912003 314.593140,262.756073 304.793396,274.760284 
	C297.717133,283.428345 290.977417,292.370483 283.948242,301.077911 
	C277.011505,309.670868 269.872406,318.100159 262.872894,326.642883 
	C257.025482,333.779510 251.255600,340.979675 245.443893,348.145660 
	C238.389786,356.843536 231.270676,365.489441 224.283020,374.240356 
	C214.424515,386.586609 204.695770,399.036407 194.847305,411.390747 
	C183.758484,425.300995 172.517059,439.090363 161.502548,453.058899 
	C155.806595,460.282471 150.659561,467.942932 144.878128,475.093597 
	C141.339828,479.469757 137.275848,483.486206 133.064941,487.233826 
	C129.305344,490.579773 118.195045,489.627380 114.644257,486.127838 
	C114.169746,485.660187 113.693916,485.193817 113.222588,484.722961 
	C104.558380,476.068054 104.501442,476.022797 111.973221,466.575134 
	C121.269737,454.820160 130.783936,443.236115 139.998642,431.417999 
	C149.601715,419.101746 159.009232,406.631714 168.409851,394.159241 
	C175.829849,384.314636 175.711761,384.322723 167.093506,375.569702 
	C151.104935,359.331024 135.162369,343.046783 119.248375,326.734985 
	C94.400810,301.266296 69.585045,275.766571 44.772247,250.264008 
	C34.573551,239.781815 24.355818,229.316376 14.318007,218.681671 
	C13.018113,217.304474 12.106791,214.958252 12.097427,213.055573 
	C11.958038,184.732056 11.949846,156.407333 12.108514,128.084015 
	C12.119914,126.049042 13.254004,123.696892 14.563491,122.045090 
	C23.145985,111.219070 35.729790,106.206619 47.396893,99.886688 
	C65.130035,90.280846 82.853844,80.656837 100.645981,71.161125 
	C114.542465,63.744526 128.560135,56.555332 142.482025,49.185871 
	C162.371521,38.657490 182.204819,28.022881 202.101425,17.508034 
	C207.915176,14.435607 213.858200,11.607240 219.750092,8.683373 
	C226.208878,5.478189 230.686630,6.244717 235.831680,11.322735 
	C260.233093,35.406212 284.618347,59.506168 309.068512,83.540077 
	C318.255981,92.571098 327.787079,101.257889 336.839539,110.419777 
	C355.542694,129.348999 374.029633,148.491837 392.312347,167.246109 
	C380.956055,181.569031 369.657532,195.945984 358.214417,210.206894 
	C350.583099,219.717422 342.745728,229.062576 334.750732,238.740540 
z"/>
<path fill="#000000" opacity="1.000000" stroke="none" 
	d="
M392.937531,562.000000 
	C374.859650,562.000000 357.273956,562.000000 339.346436,562.000000 
	C339.346436,549.286987 339.346436,537.067566 339.346436,524.422607 
	C359.997162,524.422607 380.653107,524.422607 401.655884,524.422607 
	C401.655884,536.717590 401.655884,548.936829 401.655884,562.000000 
	C398.924255,562.000000 396.177002,562.000000 392.937531,562.000000 
z"/>
<path fill="#000000" opacity="1.000000" stroke="none" 
	d="
M883.000000,524.000000 
	C891.483398,524.001221 899.467163,524.050964 907.449951,523.980408 
	C910.770447,523.951050 912.980225,524.995361 912.983948,528.703674 
	C912.994934,539.504272 912.987915,550.304810 912.987915,561.551514 
	C893.049011,561.551514 873.385620,561.551514 853.359497,561.551514 
	C853.359497,549.311035 853.359497,537.088074 853.359497,524.000000 
	C863.036377,524.000000 872.768188,524.000000 883.000000,524.000000 
z"/>
</svg>