<?xml version="1.0" standalone="no"?>
<!DOCTYPE svg PUBLIC "-//W3C//DTD SVG 20010904//EN"
 "http://www.w3.org/TR/2001/REC-SVG-20010904/DTD/svg10.dtd">
<svg version="1.0" xmlns="http://www.w3.org/2000/svg"
 width="1239.000000pt" height="1104.000000pt" viewBox="0 0 1239.000000 1104.000000"
 preserveAspectRatio="xMidYMid meet">

<g transform="translate(0.000000,1104.000000) scale(0.100000,-0.100000)"
fill="#000000" stroke="none">
<path d="M9472 10289 l-718 -722 -119 41 c-66 22 -187 61 -270 87 -82 26 -253
80 -380 120 -126 41 -333 106 -459 145 -126 39 -232 73 -236 75 -4 2 -79 27
-166 54 -88 27 -285 89 -439 139 -154 50 -320 103 -368 118 l-89 27 -79 -79
-79 -79 0 -2702 0 -2703 -515 0 -515 0 0 889 0 889 -39 31 -39 31 -1119 0
-1118 0 -81 -82 c-64 -66 -93 -105 -136 -188 -30 -58 -60 -114 -66 -125 -6
-11 -171 -344 -368 -740 -196 -396 -371 -749 -389 -785 -18 -36 -58 -114 -89
-175 l-56 -110 82 -82 83 -83 1605 0 1605 0 110 -123 c61 -68 200 -222 310
-343 110 -120 250 -275 310 -344 61 -68 143 -159 183 -202 39 -43 72 -79 72
-80 0 -2 -1073 -3 -2385 -3 l-2385 0 -87 -88 -88 -88 108 -105 c100 -96 204
-170 267 -189 22 -7 734 -353 805 -391 17 -9 255 -130 530 -269 830 -418 1374
-698 1595 -820 52 -29 133 -72 180 -97 47 -25 94 -50 105 -56 11 -6 88 -48
170 -93 83 -44 175 -96 205 -114 30 -18 91 -51 135 -75 44 -23 85 -46 90 -50
10 -8 22 -14 215 -120 63 -34 155 -85 204 -113 90 -51 127 -71 256 -140 38
-20 94 -53 123 -71 50 -32 75 -47 232 -133 33 -18 71 -33 84 -33 14 0 111 49
215 109 105 59 221 125 258 144 37 20 85 47 105 60 21 13 83 48 138 77 55 29
116 64 135 76 19 13 40 24 46 24 6 0 49 24 95 53 46 28 111 65 144 81 33 16
93 49 133 73 67 41 128 74 231 126 20 11 72 40 116 66 44 26 130 74 190 106
61 32 142 76 180 98 39 23 115 64 170 92 55 29 177 94 270 145 94 51 206 112
250 135 103 54 214 114 345 185 58 32 150 81 205 109 55 28 134 69 175 91 41
23 152 81 245 130 94 48 220 114 280 145 61 32 191 99 290 150 99 50 189 97
200 103 11 6 81 41 155 78 323 160 321 158 402 241 l76 78 7 125 c7 131 28
405 75 970 5 69 17 220 25 335 23 310 44 592 50 660 3 33 11 150 19 260 9 110
27 335 41 500 46 522 44 483 17 524 -13 20 -41 56 -61 80 -20 24 -79 96 -131
161 -52 64 -142 174 -200 244 -58 71 -119 147 -135 171 -17 23 -48 63 -70 87
-54 61 -139 167 -143 179 -2 5 142 159 321 342 178 183 357 368 397 412 41 44
235 247 432 452 l358 372 0 543 0 543 -82 82 c-72 71 -100 91 -218 151 -251
129 -425 221 -687 366 -54 29 -190 101 -303 160 -113 58 -221 116 -240 127
-19 11 -80 42 -135 69 -55 26 -152 78 -215 114 -108 62 -119 66 -178 66 l-62
0 -718 -721z m-5472 -4669 l0 -180 -305 0 -305 0 0 180 0 180 305 0 305 0 0
-180z m5110 0 l0 -180 -290 0 -290 0 0 180 0 180 290 0 290 0 0 -180z"/>
<path d="M2105 10931 c-200 -105 -410 -214 -440 -229 -16 -8 -77 -41 -135 -72
-58 -32 -163 -88 -235 -125 -71 -37 -134 -70 -140 -75 -5 -4 -66 -36 -135 -72
-69 -36 -145 -77 -170 -92 -25 -14 -83 -44 -128 -66 -46 -22 -96 -48 -110 -59
-15 -10 -85 -49 -157 -86 -204 -106 -222 -118 -291 -186 l-64 -63 0 -459 0
-460 308 -313 c169 -173 442 -453 607 -624 165 -170 394 -407 510 -526 l209
-216 -19 -33 c-25 -42 -93 -132 -164 -216 -31 -37 -78 -97 -106 -134 -27 -37
-66 -86 -85 -109 -50 -57 -194 -244 -269 -346 l-61 -84 67 -68 67 -68 69 0 68
0 56 53 c57 53 154 169 187 222 11 17 47 64 81 105 77 92 147 182 222 280 50
65 122 156 388 486 28 34 70 88 95 120 25 31 61 76 81 98 19 23 57 70 84 106
27 36 77 97 110 135 34 39 74 88 90 110 16 22 54 69 85 105 30 36 68 83 84
104 16 22 48 61 70 87 23 26 73 86 111 135 39 48 115 141 170 207 104 126 156
189 284 346 42 52 113 139 159 195 45 56 108 135 139 176 30 41 73 93 94 115
l38 40 -392 395 c-216 218 -582 581 -813 808 l-422 412 -43 0 c-34 -1 -70 -14
-154 -59z"/>
</g>
</svg>
